<mxfile modified="2021-04-15T16:56:14.821Z" host="app.diagrams.net" agent="5.0 (Windows NT 10.0; Win64; x64) AppleWebKit/537.36 (KHTML, like Gecko) Chrome/89.0.4389.128 Safari/537.36" etag="iAvQ71asiRzZ0J8q_0FF" version="14.5.8" type="github">
  <diagram id="f106602c-feb2-e66a-4537-3a34d633f6aa" name="Page-1">
    <mxGraphModel dx="1102" dy="597" grid="1" gridSize="10" guides="1" tooltips="1" connect="1" arrows="1" fold="1" page="1" pageScale="1" pageWidth="1169" pageHeight="827" background="#ffffff" math="0" shadow="0">
      <root>
        <mxCell id="0" />
        <mxCell id="1" parent="0" />
        <mxCell id="i7WmX-7RhP07Q_WVPCmK-1001" value="" style="fillColor=#dae8fc;strokeColor=#6c8ebf;shadow=0;fontSize=14;align=left;spacing=10;9E9E9E;verticalAlign=top;spacingTop=-4;fontStyle=0;spacingLeft=40;html=1;" vertex="1" parent="1">
          <mxGeometry x="170" y="99" width="240" height="331" as="geometry" />
        </mxCell>
        <mxCell id="14" value="" style="shadow=0;fontSize=14;align=left;spacing=10;9E9E9E;verticalAlign=top;spacingTop=-4;fontStyle=0;spacingLeft=40;html=1;" parent="1" vertex="1">
          <mxGeometry x="420" y="99" width="400" height="331" as="geometry" />
        </mxCell>
        <mxCell id="997" value="&lt;div&gt;&lt;span&gt;BIMS + Sonda&lt;/span&gt;&lt;/div&gt;" style="rounded=1;absoluteArcSize=1;arcSize=2;html=1;strokeColor=none;gradientColor=none;shadow=0;dashed=0;fontSize=12;fontColor=#9E9E9E;align=center;verticalAlign=top;spacing=10;spacingTop=-4;fillColor=#F1F8E9;" parent="1" vertex="1">
          <mxGeometry x="290" y="180" width="110" height="215.56" as="geometry" />
        </mxCell>
        <mxCell id="999" style="edgeStyle=orthogonalEdgeStyle;rounded=0;elbow=vertical;html=1;labelBackgroundColor=none;startFill=1;startSize=4;endArrow=blockThin;endFill=1;endSize=4;jettySize=auto;orthogonalLoop=1;strokeColor=#001DBC;strokeWidth=2;fontSize=12;fontColor=#000000;align=left;dashed=0;entryX=0;entryY=0.5;entryDx=0;entryDy=0;fillColor=#0050ef;" parent="1" source="997" target="i7WmX-7RhP07Q_WVPCmK-1011" edge="1">
          <mxGeometry relative="1" as="geometry">
            <Array as="points">
              <mxPoint x="560" y="255" />
              <mxPoint x="560" y="190" />
            </Array>
            <mxPoint x="585" y="175" as="targetPoint" />
          </mxGeometry>
        </mxCell>
        <mxCell id="i7WmX-7RhP07Q_WVPCmK-1002" value="" style="shape=image;verticalLabelPosition=bottom;labelBackgroundColor=#ffffff;verticalAlign=top;aspect=fixed;imageAspect=0;image=data:image/png,iVBORw0KGgoAAAANSUhEUgAAAggAAAIICAYAAAAL/BZjAAAgAElEQVR4XuxdB3hUxdp+v7ObRgi915CEBBJKkJaAKE1A7AXUi71fFZVfRekLghRFvXZRvNivoFhABBsIUqVDAgmh9w4BUnfP9z+zJdkkG7K9zjwPCsmUb96ZM+c933yFIItEQCIgEZAISAQkAhKBcgiQREQiIBGQCEgEJAISAYlAeQQkQZB7QiIgEZAISAQkAhKBCghIgiA3hURAIiARkAhIBCQCkiDIPSARkAhIBCQCEgGJQNUISA1C1RjJGhIBiYBEQCIgEQg5BCRBCLkllxOWCEgEJAISAYlA1QhIglA1RrKGREAiIBGQCEgEQg4BSRBCbsnlhCUCEgGJgERAIlA1ApIgVI2RrCERkAhIBCQCEoGQQ0AShJBbcjlhiYBEQCIgEZAIVI2AJAhVYyRrSAQkAhIBiYBEIOQQkAQh5JZcTlgiIBGQCEgEJAJVIyAJQtUYyRoSAYmAREAiIBEIOQQkQQi5JZcTlghIBCQCEgGJQNUISIJQNUayhkRAIiARkAhIBEIOAUkQQm7J5YQlAhIBiYBEQCJQNQKSIFSNkawhEZAISAQkAhKBkENAEoSQW3I5YYmAREAiIBGQCFSNgCQIVWMka0gEJAISgaBHoO1zP7fUhtXI3Tat19mgn6ycoF0ISIJgF0yykkRAIiARCB4EEoZ/UUMb2fATEPozIQpAuGl2BAIMBBQAvKkQGLZn+jUHgmfmciaOICAJgiNoyboSAYmARCCAEWj9/JLuikJfERALkCKmwmXeAgTjDy2FoAewasfuM30xb6ghgKcuRXcCAUkQnABNNpEISAQkAoGEQOKIP5qSVv8NgXqYlASlR38VBME4TQad1BP3zpnaPzOQ5i1ldQ0BSRBcw0+2lghIBCQCfo1A6xd+fYaAiQTUpJIT3zGCYCYUBXqi3rum9l3r1xOWwrkNAUkQ3Aal7EgiIBGQCPgPAslPLK2uj9Z/DvDNQipx2LtIEEQPxaq+OCnrtYF7/WemUhJPISAJgqeQlf1KBCQCEgEfIZDwwh/xCgw/AUi2iOAegmDs7XRxZGFcjm5wro+mJ4f1EgKSIHgJaDmMREAiIBHwBgKJIxd3A2MhQPWtbQ3cSBDENObt2H36Lmm46I0V9d0YkiD4Dns5skTAOQR0OqXegebR1dWYaL2+sLrohFWlOmv1xuc5rFyvBoQZoGrzoOTnIywq/5Dm7AXMeqzYucFlK39GIP7/lvTQKFgCgnFfeIwgkDBc5Bt2Tu2/0J/xkLK5hoAkCK7hJ1tLBNyGQJMbPqyG6LC6pFBdQKkNUD1SWLijJYCpKQgtCWgMoK6VEXrpS8D8NJc+1FaPt/GvVoZpjFMaBUeZkcNE2SDeQdAeZFV/XF+E40e+/tcpt01MduQVBOKfW9JZQ7QCxCKugbmU3Q2u2yBYd0v5GlJbbX+l/3GvTFAO4nUEJEHwOuRywFBGIOHatyKK69auU2gw1NEwGoGQxkRdFXBXQGlS7qOvLFRk9E8r/2HoFEEw0oUKT38ZQnEWTEsAXqBqaCtDOXJo9tAzobx2/jz3hOGLkpUIzWajAqlcXAPrLeNOgiCGYeB/OyJWDINOp/ozPlI25xCQBME53GQriUCVCNR7cHZMRGFETYa+JbEyCKphMBGlAqZYNGz1hjY9iBVUAL4kCFbfoCVyZQP0BpH+FzYUHd8354GCKkGQFTyOQPz/LWmuUVAa7dCLBEHsWSZcv+OVvj97fKJ+OkDCW4siap5poInBBXUZehdBR0FDliRB8NNNJ8UKLAQSrl0UoVa/GJmnudRJYRoG4C4iRIsgNGUi01lNK+AIQrmoe8z0oR7qlMZhucc2SJsGn2zYxOcW1GOEnSRrdZCXCQLAZ/IilKb7dH2CnjAm6zLCNRGG6PDiS7exQncB3IuIrM1+BDlYx1D+qxZfmts64+SFeQEcgVISBJ881nLQYECg/pD/NgojPEagx0Dc2JZqN5gJgkXjwQQ9Een2fzx0SjCsa6DModmIuVGRSsxhAtX2LUEw6sNey5za74VAwc5ROXuO/DsmP0bzPoBhZZ9zcVVn4zVa+rNLBpUGbB7bbZWjY/pDfUkQ/GEVpAwBgUDjOz65gghPg3EdQNUBijAqWC3FxpdbKBAE4+WIae5FUHljsaHw+sOf3Xc6IBY1YIVkSnhu8e8E6mvCv7xBasVN6VY3x5JgzSWXYwZmTdfMaVdvClhIbQieOnlVD2LMJaJGYGiMVcq9NasgCKZemU8VKcWJ20YFVqZMSRCCaTfLubgVgQa3fdRBqyhPk4L+YKoHiCuDSvhAhYPDVC/ECILp/CTSs4od4dqovtmzbpDeEG7dlabOEp9bPJqBEo2NrwmCca+DV++Y2q+HB6br9S5TJ63uqRB/CkKcSERRhhU4QxBMeTILGfzYhtHdP/X6hJwcUBIEJ4GTzYIPAXFloCH1EYX5VgK1AKFO6SwtL3xJEMpjYiIF1vuh5B+qCiy9WFB065kv75ZR99z0yMSP+HmQomiEUWCJeYs/EAQxPZX46Z2v9HvbTVP1ejedXllen/XauUToBUBj82m3nyAUE7CKGVsZyNUADVVF6aao6i//jOn+ktcn58SAkiA4AZpsEiQI6HRKo4xm1yqs3AdwJ+PXgvnQNT4YNq8MJEFwgCCYLmAIuWCevv88TZeR91x7dpKeX9JKZV4PWJNX318xWGbFhJNhRXVbbX2t4yXXZur91p0mrhrHCl4gRoxx9DJ6g8qucCrYIOSpjLc0Gs3cU4UXd9gy3OysW18PjXF+w2Nd/D5YmSQI3t+HckQfItDkhg/rcZhyN4EGQ0F3ADVsqQ8lQbCmAaXHRPnUwJZalWgQrC00xIm7WWF+bO/soet8uAUCduiE4YsiEEZ/E1GX8pPwFw2CeKky89c7pvb7V6AAnahbWi+awn8EoUf5s8ABDYLw4JiECO1HG57vEjTXapIgBMoulnI6jUCjIZ8kK3r97UR0rQhMJDoqe61Y8etAEgSPEARx/hoAfEjF2jH75txyzulFDcGGrf/vlw9A9JitqfuOIGAFg3YC3BigfkQQURyLVBU9dk7ru8HPl4k66v4eoij4BKBok6xlzwJ7CAJIWcCsH75pbM/9fj5fh8WTBMFhyGSDAECAGt/6YSdScQMR7iCitlxOZygJQpWRFEuW2Sp+Y3mNQGkd2zYIFeqXaBqYDzLo2f0fD5kfAPvJ5yK2HrH4ARB/YiP8pWlne9mLgYkWA+ozO6f2z7aAk/jc0nqaCJ5IwBMA7cx8pU9bnwNXiQCdP1wfZjhaOJkIIyuLPFn1FQMbmGnEJsOSd4M1kqQkCP66g6VcDiLA1OTGD1I1Cl3HjEegUAvrt5ckCOW+jqoOtexZgmDpnTFfEx727O73bj7o4IKHTPX455e0U1R1NYDq/kAQGHhn5+7Tz1ZmT5I8ZtkQMH8Fohczp/R+3d8Wqv1LK2prougbAl1TXmnggAbhFKtK/03ju2/xt/m5Ux5JENyJpuzL6wg0uumD5DBWBzEp/0eEpkIAIxko80VFpp9ZfRJIDYKPNQhWO4WJ8pjVxw98NOQLgExLJYsRgeQnllYvjiwQORbiTVvY9pHtJQ0CM/ijndP6P255zCpbpnaj/7xOhfIVwrlppq7PRX9Zzva6FXEKlD8UQqwVA7YSz64rht25eroiR5cW9J45kiD4y86VctiJAFOTm95rpjBdDfBUkNLMdG5aGdJJgmDGsrxtRdnHvYpkTVbnp9uMFG2+30pjS/BWUrQ37fvgln12boZgr0YJI375kwi9SxfDpwThrx3T+pXKUgX67UYt+zcU3L19Su+e/rBQHXSrr1AUw3Jmii4T/ryS6zGbVwyMzI3j01P8YT7ekEESBG+gLMdwGYG4IR/WLCwo6kyszCRCqnjTWGsKJEGwlesp0AiCaZsQ+PFqZ/m/mfOGFrm8cQK4g4QRiyYS0fgyU/CdBuHwjmn9jGTc7qLTKe2Key8FK8O3v3LVVrvbeaBip0mrrlaZ/xSpUcS54QxBIFDGhnFp7Twgnt92KQmC3y6NFKxz5w/DjtfTt1S0eJMJ15UxJpIEwWqDmB/jsv+rYJFdPkas/2kQTFMyH94nYKBue2ffFnSW4fY82XEjfm5PpGxWyuf68gVBYBQbiqhV9hv9Dtsju3UdkS+iVrX6uRfDEOOrZE6pE1deB+aFFvWVkwRh98Zx6QmOzj/Q60uCEOgrGKTyt7juHWENPYoJxkxp5aOdSg2C9cIHJUEwpsNmxsv7Z91W9is6SPe89bTi/+8X4VcfUSETqC8IAvDqjmn9RzoLe4exfyYZGBMypvT1emyETrqVdzL4a5NqyvScOEwQGEc2tjnUAkOHChfdkCqSIITUcvv3ZJsPenugoqgfgJSmAIVZB+WRBMF0wJU8sLbuTYNLg2AkCKZCx8FhvffNumGnf+9g16Xr/OiHYeeim58CUQ0rbUppx94nCNt2RP6d6qobX8qYpb8b9MqIndOv3uY6Svb1kDrx72Fg/hQgc5IlpwhCbpiiJK4dk3bcvlGDq5YkCMG1ngE3mxbXTa1NarX3QBgAUB3TG1D8p0yeRKlBMH8BhSZBENH5IOwRPts/67ZHAm6T2yuwTqfEn+v2Gwh9LV+7vtQgMGDQMrffPuOaHfZOobJ6IgpkZM2oHNYWdszQDTrjan9Vte80ccU9zJgtPjRK6jqsQSAVrF65aXxP4WIakkUShJBcdl9PmqnFoP8MI6IXGWhDRNrSh1gShPLpZK0PuJAlCKVbdh9A/9r/4a1Bd2jHP7voeRBeNSlNTCvtY4Lw7s7p/Z9y12nR9qWld2g0eHh79slBnszJYSYHHwMILxvXwDENAhGe2jiux7vumn8g9iMJQiCuWoDK3PTat5ppVHUMEW4EUZPyzN50MEqCIAmCaWdYp9YuGxyBihj81YHG2x5yVfXtL49S3NO/9CMN/17+mfAZQWDeW61a7XYbdF3y3IlRu7HL1hFh4baXe09yZ7+WvjpMWPG0ouA1sMl2yVmCwMCszeN7VBnvwRNz8Kc+JUHwp9UIUllaXTPzRiblKSgidgHCbQUykhoEq8OssqcyZG0QzMGvLJvE/HVNoH0Mfmj/B7f+GciPTuxTC9powpSNAIk8Bub3mm81CAS+OXP6NT+6G9d2Y/5qDlIzifH4til9vnRf/0ztx68YqxDpiKwVL9auvnZqEAgbCw2FV/tTgCf34eRYT5IgOIaXrG0nAvV766pHR8Q8CaaHQNTaROZLH9DykQ4lQZAEwbIHLF/NlWoQSgiCsYUKxixteOSzOW8PLrRze/pNtbbPLm5cROoqAmLLaEl8ecXA+GbHjP53egqkduOWvgrGcGYakjGl9wJXxxGGnUWN275OoKeMe6fSwEd2EYR8VTWkbtH1Kskx4ap8gdxeEoRAXj0/lD1+wKvtVNY8xsSPAhReemUgCUL55bJ+AZoexApuCGWbBK8GoRhAiSqbmLVEFG0nQbBgdAxQ7t/3wc1L/PCxsClSw+eXRMcYDD8DEJo1czhwc1UfEQQGnTNowzrsnnK1x3Jj9NYt1Z7S804wNYOi3Lv95avnOrtm7aeuqE0FLEJ0DxZ9uEoQiJU7N05I/8ZZeYKtnSQIwbaiPpiPCGh0ptaF3qqCEUTKtWVEKLEpkAQhhAmC+LLfA6Y9RNgNKBmsYBfrsV+vDT92ZNYNFe65k4fMDb9UE01ZExanAO1UqKkEFtkB24IUowtg+cNLEAoV/K6qYMLhd2897YNHwf4hh8zVxDet9jmRcpelkT9oEFTiB3ZNGzDH/ok4V7P92KU3M2O+KT+KMqZt1rEZ8+Y5FGeAOoxf3pcU/pKZGlp2g0sEgfmbTRN63uWufCArtraoHaZU6wtFHQimbkRoojKKiVhcsfxoKMb3PVKzHQ4+5RzizrWSBME53GQrAAnX6mroi2KuZQWTCUgQB1yZpDElp7jly1heMVhvnCDWIJwDsBPMa/Qa+uHQrvorsayP3i0PzZC5mpb1wgawyg8SIZ1gStBl/AIvzSV92kCauw812PSrnxoxUtwzC2cqRCOsr9p8TRAY+D17en/hbuyVhFntxi77HsDNJqdmrFFBD26ffHWVLpWdxvzRUtWEjwPxQ6WaFyubDeeuGM7qw9T4baN6nXV1n67IiGuhpbAnifl5wX6sCOARIl4DFX8AOMOglgrjj+7ts9a7Oqan2kuC4Clkg7jfVv2mNGSE3wHCVECpZpwqmVSkkiBYFt5MhkTw90r2QrAQBCZWFSgHmfkfUtV39825a5l3tj9T7KPf3QRFmQRGO1ZKowiJvciMryPCIp7JeXvwSe/IY98ocSN+fokYU03KtdIj2McEIV8DtMmcfs0B+2Zhu9bcjOTwzORMvU4oc6ooJoNF3klANTMWIh7aXGJMV6sp+6xf1uIqQclTY5nwDIHus5w57iIIKuiKLeN7bKpK5sv9PiMjufoF6J8CaEoZD1Xmc6xgUlrb7DctEeJdGcebbSVB8CbaAT5Wq35vNmToRwH8dCkTKL03lwTBeoGDnCCwiF1FJxj8ixqujD30wVCfqkrjHvu2tUHR/ACgjTicLS9bAhcQ6K59p4oXeNL33t5HO27Ezw+A8Yn5q9lvCAIZ1Bt3vjbQYYPB9es7hxWEnYnThoc/wQa+k4gaMENPRMtUg37yuSisGdw6p1Lj0XZj/3qOwK9Zk6USosTIB+EMQA2IEFbhZWX+QUkqdydtEJjw3ubxPZ+0dw1t1fsns207A6u/Amhs9Xtm5s0HM7O7Dh2KgAzTLAmCK7siRNrG9n6jFivF84moT8mUS8Pgmn4kNQg2radFuOgg0yDkM7BSQ4aH984e5neJlFo98f0AlfE/Bmqbt6XlI30T8s713TfnAXH94ZMS/+zP9zPw3xK5/ESDoBLmZ0+/5jZHQGEG/ZPZuqMKWgwIGwDbhRmXCvIKE/p023fMZg2dTmlf3DuDCG3KeDlZKlt5rHiGIPDphLY9G84bSk69wJmhrMloPZpIebnc/ARvmZuWkuUxbxBH1svZupIgOItcCLSL7a2rRVRtBxMamUiA1XaRBKFiPCMbd5/BRBCY6Pb9n9wxv7zBvT8+Cs0f+/57Usz321ZafIYyef97N3k9+VP8/y26l1WRF6CET5sdfHx+xaC/WBxd49AbPfIdWcc12xP/AVEXe9towN27pmSvs1W/w6g/u0OjrPE2QSCgYOOEnqWxJ+ydjFW9NRmJawDqXr4pA7PTU7IedqJLv2oiCYJfLYd/CNOqz7SOAP0EoLm4SihR+UmCUCa6X2VfNKWvAGE4F/AahPUo1t+4vzDihD+o6O1/QphaPPHj9cTqD0TWhmLCal4YiClXHXj3xgz7+3O+ZqtnFo4mIvGFWaJM8pcrBn2+tnnO230O2Tu7lVviG2jDtNnMqGlvG/O3hVpE+m692u7eYJMkjF0+A8QviN/ZssUowcu6sUtXDGwwFBelbJ3cN8uReVjqMkOzNiNpP6jUSLaE/BE+79Y2675AszewhYMkCM7sjiBt06rvjAEwqO9DoVYlXmTWu1wShFAhCMwKPqQi/aT9X9xzNJC3e8tHv2tMWqMavIPp5VNy5LFKtJULCvsemj3UM8mDdDol7mzXLwC+s7z1rl8QBOLHd04f8KG967s2s/V1rCo/gFCaO8XexqYXfyGFGxLSWudUICRJI/+OCQ83HCZCjHcIAj28aUKP2Q6IX1J1aVZivchiyiYyXWOVKYRftXnVr+/SZYOI7RHwRRKEgF9C1ycQ22vaTaTBdIASjcTAeldIgmAG2GJ0WApO8GkQYGDGJDIYPgp0YmD9VDQbMTdKWxg2EoDOiiAYtTsAChn4Kay46JE9s4aed/1pMvWQ/MTS6gVhl/4CcIXxB+XSNPuaIDCwLmvGgAqq8crmvy4z6d8qQyQucvGdwTvyTxRd0afPvoLyY6WO+7OnCs3fXiAI07dM6PmSM2u9JiMhGdAIt8QKVxMMHCgoKuzYp9M+n9m5ODOny7VxcbHdLY7sz5sItLpqyr0g5SWA2pTSAqMKtrRIghD8BIGgB/MkQthH++YMtW1M5s2N6ZmxqOXj8/tAoYWWnAdmgmAcTQHlEmMewjBm739uOu6KCHHP/HwboL4nrO9L+vEngsA4c1FfvZm9dgerMhKfUkBvu4KJdVsGv5Kekj2mYn9MHcetmKaCBZkzFXcbKTJmbdaJJEyOx3pYm5HYSwX9RkCEDSxUFZzeoxI7C3dh5+1+JEHwNuJ+MF7sVZPvUEgzDkBKRfsCSRCM51LJf0pOKuNfKsYusCZT1ovr/26OIFaJ8YoSRu/s/fhfLr0U/WBb2yVC/OPzGxQrypcE9C9HECzt85iwWGH8Z++7Ny23q1NzpRZPL+ysAU8non4V2vkPQSjUs9oj59VBG+2Z2+qM1vcTFKPnhRsLE/jq7inZK8r3GatbGhmjVzaCIKJmupUgMJQPtkxIfwJWZlX2zmn11tb9SaP8Ati+XiEVI7u3zzKl6g6iIglCEC3m5aeiU1r1DLsdGnqJgE4VLIatvRKkBiEECALNYg0mHvzkriMh8whYJqpjJfbkjy+ogAhooxE/VqzUZqXEgbMB5WdS+dcivbLcVkjoZo8vaKoNp+sA3EnMvYWtQTkuYBrVTwiCQnhpx4wB0+1Z8zUZSTcBENEOPfGe2J9fVJhqSx2foFtTI1JfeEjYI7hPg0CvbJ7QY6wz5GDt9jYDVfBCqtT2gteeCVevvly8B3vw9sc6nlh4f5xn6Mo0ZIgm7ljqIAbGE6hbyaNunVmxzAEmNQhGOEr+Y9k6QWCDwMRQ8Au4aOSBT+/3igW/Pz94LZ76sSdUdR6IGtsmCGU2ARPxfgIdAiOfiWJEBkYAjcpnD/RbgsC8IOu1gTfasyYrtyakazQakUY70p76ztRhqO+np+x6wlbbTqOW1y/WqjuIlLqWVajM5qeKQEn5KmH41glXOmWQuCYj8UqARGjkcFtysrC9VNWU9Pa7qgwR7QxGvm4jCYKvV8Bj4zO16jGlFzQ0iczZ4kyJUcwDSoJg9V1k9RiY/xqEBCGTCC/snzNskce2XAB23OTRBdW0YfpvFCjXW8S3vnqw/ngWj4xNE9UypyiVVxb4hQaBwbsuRRelHtFVTIxVftlWZrZtqWF1jZH8eLqQOiAteddvtobpoFvZgFX1L4DbOOnmuJ0U3L1pfK8tzkxjdUbr7gRaarFZsdUHgcd0T8l+xZn+A6GNJAiBsEoOyhjbY0qqRuFpDBpYITe6JAhGNI3W7CW7P6gJwikwv3rg87tnOLiNQqp6i6d+HKkwJgCoFnQEgZGrspKeM7N/ZlWLuv5I52rFZy+uIIv3RVUNXP09Y08MaTqmpGRetNmVjpV2/PeXCvNtBISVqWN+bCtqECgXwLtFOKLL1A0tckbE5duSOoQrEDYol4v3cFqvQasr22RdcGaMQGgjCUIgrJKdMsam6WI1Gu00ACKRUrmXoOhEahAspCDYCQIBxQz8WMjq/cc/v/eSnVsopKu1fPzHTqTh+Uwkrg7MxUpnEIAaBAYZVAMP2/36wG/sWFxatT1prkK43Y667qzySVpKljEzY2Wl/bgVnRVS3wKUVIBLEsSZyL7RxkP875DCWBCVq3l+tYORIa3HXb0jNhZqxDoC6l9+ktwrLSX7b3cC4W99SYLgbyvihDzN0nV1wkijI6LhZhpgzo1Qzp5AEoQSrUGQE4R9BoVuOTxn2GYntlNoN3l0fVjL8ENzARIGemUpQQASBBU0IefVAZPsWdS1mUkvMMMXmiZmqOnpKbvWVimnbqk2VdVcx4T+ENEcFehZ5S3Fepq745WrXA7qtSqjWR2Fo7faipBYRjbG3u4pWQlkR9bKKufkxxUkQfDjxalKtIRrh0cYzjV4WqRdJhLW2KbltNyfl30Jmn8jrxiMGAUnQeBCMI05+PndM6vaO/L3l0eg5VM//Aug/wJUYpwWcDYIRHOzZwy4w561XpeRkGKAsoVARq8OjxVCPlT+QaPgC4OKWAb+j4hagbH/QEpW66Hku6yHi3YlRNQp0ohrmLiq5p+ff6F+ny5HTlVVL9B/LwlCgK5gXPrEfiBjCFlT2FMrqzpJEComliq5pyy5tww6G4Qd+WGF3U998lDQ3od6+1Ft+Pj8BpEabSYIJkv6wNIgZGWf39cesx6zK+TvmoykkwDqeRRjwoYY1vRIScksYxewKiOxmwJay8Sfpidn3+9RGS7T+ZqMpGwArasenzenpWR3qrpe4NeQBCHA1jA2XdeGoPxNQN0yvniSIJSspPlOsnRlS6JBlp7wwaRBUFXqf7h1zlLodGqAbWe/F7fzox+GnY5o/Bozng4YggDODTOgVcYbg+zKMbE6I3EjgTz6wmPmT9NSsh+sTCW/cltCvEKaTCoubpfWac8ub2+M1RlJWwlob8e4xdr86tHBkmuhqvlKglAVQn7y+1bdpzQEGX4k5q5QzNnprH3xJEEIOYLA4KVaTcyt++bcEjSx3/3kcSsnBlPzJ+Z30WjChOGauVT0fDH9wrdujgwYNHo1Yeeb1+6zB8u1GUmTGRjtoWBIRhGYsSwtJatfVff16zKSUwww/JqektXUHtndVWfNtqRVUJBuX3/8W1pK9gB76nZ+dH2Y2lw/UVFwL4DaIBJeGEKjc5YYM9eP7vamM4Gb7BnbXXUkQXAXkh7qp1n6iKgIQ823WKF/CRcs0xlkw1lfEoRQIgiXGLj90Bf3LPbQtpPd2kCg2YjFdbT6wm8J1KdMcEE/ioPAipK8a8Y1dgXtWZURn0DQ7PSk3QEznziYmd1k6FD7bAtWbU28WVFoWFq7rCGe3oTMUNZkJi4hUH+7xiIU1FLQoI0dbo2pk1cN0ZAi8lc0tPTNCuYA9LlGpTMGRaNh0us3vdTdqRgNdsnrhkqSILgBRE91Edd94jMAi6xjjcpEX5EEwUiSrK8SrOPbBvMVA4BFGuDhYFgF19kAACAASURBVMq2aHl+1q1LbqRG6xOY0JRAjQmox6BaUBHOUAsVhc4DfJpVPkCgHE1BTKYvVL2tnv7+HnDYLIBNUQb9hCCoxJ3tzbGw6mCzKCU3WtgdRHvq/AKQV0RKwlXJO+z2Lpg7F5rmyUmfgdS37PJqcFJ44zgpSXMIuNvuLhi/pLXLGny5+r11S7W52ogPAXrA+ClnOqd+1oQpD/8zslvAJUKTBMHu3eG9ivHddH0ZmEmE1IrJlKQGwaJFCSmCQLjAzMMPf3nvZ1VlomPmGJgyzok/1e3YuQJKy331WSIy2NHG6SrrcuKbGwq1VxFzDxASAWoOQKiV7ZHVelwVhIPMyCHQP4pWnb/o6+wNOh08bosR9+T8RFUJEy+YdD8gCMUgQ69dr11XtZsggPXrO4cVR15cSYSuTi+iHQ0V4ie7JWe/Z0fVMlVWrWoWpdSMPqbXoJknghAxQ7N6e9IsRcGD9srGQKGq17fo2XH3icraiERTdTQR34NokKUOEd7fMCbdZjhpe8f2ZT1JEHyJfrmxW3Ye3VirCRcuakONSWSMwY7MxTrAu9QghJQG4YrW9YpGDe38cVrbBufNluYiuluNcn8EKRAuee74IhQvWOENkWf1R0SnE7YOgkiIP6cBiC9Q8XUovoxE0qcjtsjFyi1t22nCVOG3fiUY3UFo5rHHjvkgEy0khWantd25wWPjiI6HzNXENox8mhRMAshMbrxug3CRWb0m5/XBIjSyXWV1RhsdgUXUSA8WXpuWkp3m7AD/ZMa3M0D7ZcOowu6tWu0rcLaf8u2WLoU2qkHSOwAec6RPZixNb5fVt7I2Rs2BErEQZBW9lnnFxnE9rnJkHH+rKwmCX6yITmnVVR2hEE02JUcptTGQBMG0QBViOoTAFYNGITxzcwcMv6k9tJqAeFSF5uGYgfMPnDz79f79x2ecYcZ1BLT00WO2QlXVGentdv1c4sjiAUHinv62NSNCvHQGeNlI8ShD7Z8zc3CVIZQt016bkSS0kyL5kCfLBQMp7Xsm79jvyiBrMxPnqIzIGtDeW9410pl+9+6NjTyRH/4BM93nSHsGG1TSpPZM3rG9snadXl75P4JiijlhelRPq/rIhM26TgFtQBwQp44jixlgdSm+8/jeUPAJbIV3lRqEkuUMNYLQsmEM3n3ySnSM86xrurueF4PhInLz1uH0+Z9xOlfYTnr0lsIhsZl5HVh5Mb39zmUONXSwcqunf7oHUF4hWxoSN6d7Zqb1+RGXBh2eeqvQ5NhVVmTEtQjjMBHXwR1apkrHZGBKekrWWLuEqqLSmoykwwDmxUAz0hWSsHZHm7qsquJ67rI2BLbF4TVpKdmVejl0nrT6ZSYeW/bDTh23aWxP8cEX0EUSBB8tX2xXXSMN83SA7zUyzjIHiNQgiIfNOmlOKBGEQV2b4z//vhLVIkwxsPy1qFyEvIJMnDj7HU6d/x7Men8V1SLXUhWG53qk5GzylKDNRsyNClOjRT6Uhwhc+iJ2H0EQIH++a+aahwH7414s2dIhumZY4TIwunhq7qZ+OTMtJTvFXWOsyUxIg6pZzuCvqhkin+zYcavDeUVElEgVyg8AJTgqFzOgsHp99/a7frbVtsPLqwZpgYXGK+ESzS8d3KhfHBsMcUkkQXB0x7hYPyFheIShRq0hRPQpERRjd5IglKJa4q4ZegQhIkyLqQ91x5Be8S7uMs82Lyo+hjO5v+LwqfegNwSeBpXB3yt6eq57x6y9nkKqzrAvatSsV+tzAgYajUXdQxCOMvB4zuvX/uSI3DodlEG3J74FoicdaedEXb2iUP9ubXf+5UTbSpusyUz6Hxh3MHgTFOXW9LY77YrxsHRvbGRUfviDzHjLaVdOxvq0dlk2jTm7jfq9bnG1ajkE1DIJb3qdskLjN41Je9mdGPiqL0kQvIh8XOrY1qQRTJaTy7otSg1CyTKEKEFoVi8aS2fchCg/1RowG1BQtB97j47Hhbz1XnxqPDgU80ekUUZ1b7vTbjW9w9IMmauJa1rtfwBdY5062PhNYHynlB7BJfZGVj83fUHgIgOf5hy88AzmDXX47mbV9taPKqR86LDsDjYgYHb3lKyHHWxmV/U125MOmo1bVSJ1VJE+8qNeHbadtdVYuHDS+egriDAPQGO7BrBdSVXAA7qlZNuy2aDUSSt3ElFiueBZeTUMBXWX6fq4zbDSBfldbioJgssQVt2B0BpwzVriPur50hdhuUhs8orBioSbjs9QuGIQy35tlxaY9WzvqjeSD2qoXIjzF1cg++AzfmVX4E4oGDSmXrh+ZuvWOYXu7Ld8X7HPLLpDIUwDcyMQIo0v/0oJgnDVpIsK+O0aFw9O3GBnToXyY/6TkdDJAM1GT87L3PfZk/kXmt3Q5YjwfHF7+Scj8VqVaKEIblTaOS8H6G2oRSuKIjVqmB4pxBrhuvgvsFD5u1YY+CY9JetOW710mrhqEgjjyuX7FNbUczaOTxcxEIKiSILg4WVsdYWug4b1K1mxuEGZByzjtig1CKXEyXhqhgRBII2CWc9cjUFdWnh4FzrePbOKgydex9HTHzveOEBbsEq3pbffOd8b4jcd/l2zKCViGBQaCKYkJhFxj/cDyjZmnren1rVfQ0cuxXNYsL5JtfpRMYeMYX49XBTgjm4pWXM9OcyazMSvwWTzhe2BcS9p84ubdumyR7gWlyki3kFtJewioBhd0a01CEzq1ZvG9lzuAXl80qUkCB6EPeGKsUsAiDCeCpe7g5RXDNYalHLalBAgCI3rROPnKdehfs0oD+5Ax7s2qPnYc2QUzl74E8xlku453lkgtmAcY4N6c3rHXXYFHfLnKa7JTFoPRmcvyPht9+SsoZ50JRVzWLo0NjKqQYSwG2nk6TkZDLi5Z4esH8uPI+IdnNOEnyFGjJEaWBEEJsreNCatjb/nV3AEO0kQHEHLzrpxqWMHK8Sfg6iOpYkkCKVaEluhkENJg3B991jMfLynX3kpCGPD3YdfRO6lNRDXCiFdCAZibGS94da0jjniCzzgyuqMxPkEusXTgjM4X9UbYi8XYdBahqSRvzZhlaeDlF4ENYJABlaQoah4aserA6rM4rh2R5uBrLJnc5Cw+nL3lF0TbBGeThNWvASNMtU0p3IEgXncpvGB79povV6SILjxCUpO1oUXRBT9TsCVxnhq1veLUoNQct8aygThlQfT8K++iRBBkPyhFOvPYM+Rsci9tAoqB4VdldtgFeF1CfhJm199mC9yPjg7kbXbk6YxYaQnMzRaZFOAa7ulZFX5wk4YvqiGEqGISIPpABn9d8ulzy5i8OdZMwZUaeS4OiPpPwQ87Sw+VbT7NgaaYbZiLnQevbyxGqkRcRlK/dCtNAiKgduv1/WsNJiSh+T1aLf+cUp5dIre6TwudbTItvg2mbUGFSyUJUEIaYJQMzocn77QD50TG3hnQ1Yxit5wAXuOjMa5i3+F5lWCY6twHoy30tpljXesmfdrr9ma9AAUzALBC0E0eObiedkjq8p90fq5xY8rCs1kRjWz64bp+7v8/b3xh7wga/qAGy+H3JYtHaLztYV/A0h1L8L8d1TdyEEdG1WMtWAMpUzh6xjoVGp0YK1BoC0bx6V3MgZ9DaIiCYKLi5nYWVdPry/6hAg3lOx6Wy5MkiCELEFIS2qA956+Gg1rm7J1+7IY1EvYf2wqTp3/EcwiNb0s9iLAjN0KYVS35KxvPX3fbq9M1vVW7WhzNam8hExJujxcOCdKH5l6ucBFnR/9MCw3psVHRCK0celHt+XvtgmCeMHSW1nT+z97uQms3JYQr1GUDQCJvCTuKEv0ZzHkyiuzRA6SCqXDxJW3aYBvTWe85ddWBIExfOP4HiLcdlAVSRBcWM74jmPuAPgdEErj4ZqJgNQgmIEtiWsQmjYI9w5IwoS7uyIizGWvKxd2KqCq+Th8ahaOnfkvVFVeJbgEJmEZQ3kuPXmHN9wH7RJ17Y64RFUN20LGXC6eL1xErdI7VR6wqIluQbVquWHfEOF605FoN0EQH+EqqZprd77a79fLzWTttqQurEAEZXKJeTPzx2cj1KcGV+Lm2kG3soGiIMdkmGibIKhQEjePS6vShsLzK+PeESRBcALPhE6j6qsGvEmEf5UxYzVuHhOkkiBIgjD5ge647xph1OzEJnNTE6ElENqCgyf+g2K9SL4oizUCWk1NhGnrQaOpAY0SDRHcVHhyGNSLKC4+gWLDZWMofYJww4S01r41ZNyQkZJQBH0GmbJ5erywynemt8/+prKBkp9YWr0oqnCuCPFReiQ6QhCM56cKhRrsnNr/sguwZmdSBxggbCAcDojE4AI28LPp7XfNupxGKFW38l0QnrBWHJjmXnJHsn7TuB4eTZ3t8UWtZAAfHl2+mrJr47ZuN/IaVaPMAahJuU1i/qckCGUQDkENQq3qEfhq1DXo4NNES4zzl9bgwLHpyCvc6dqmD4rWhIiwJoiKSET1qHaoXq0zoiPbQhCEyxVBFC5c2oBzl/42RpDMKxBYlrlmLgB4kjZS/16X+Io+856G7p8tSUl6LYTmwAvXCgAzFiz5NuvmyuwORC6KKKrxOQi3WebuuAYBUEyfWBkU1fiKTF3KZf1t16+Pq1kcof2KFDsTMTH0RFio0fIjXZKyT11ujVInrewKxjozHSg58q3Pfia6e/PY9C89vda+6F8SBDtRb9jh+egY1r4MohHWEf6kBqH0y0Acm1TB1sLq0TL/Lpi9GNo0r435umtRo5pXPuZs7l4REnn/sWk4d3Gpnbs7OKsRhaFaRGvUrH4V6te6DZHhzV2eaGHRIRw88aYRW2HPYVVOEeiZvBMF8/v02eeVOxzx9cwGrPMWOQBwKC0lq3IQh8zVxDer/o5C9Li12sxpgmDKZvv8zmn9Z9qzcCKVtQqMJxhjP1Qv14YBPgTGSlXFxB4dsqtkzcm6ueHh1HQFgG6XIwgqodmWsT2Ed0PQFUkQ7FjSuLYvtCat5ncitCgfAlgSBEkQjIcHAX1Sm+GzF0VcLN8Ug+ECjp6eg8On3ofQ0IZmIUSEN0fdGoPRuO4DVWoInMVI2HHsOTIGZy/8BpHVsrTwQT0b7juSsnv5UPJczut1O9pcrarqnwBZhR52djZ2tcvT5nPLLl0q/+JOHLFoNBNNMfZm9aHgCkEQXekNaqddrw7YbJeU5krrtid2ZSCZiTREylliWt0tJfOYI3101P39OAHvl7k2rsAU+LdN43sOcKTfQKorCcLlV4sS2o16EMQi0YkxrKYkCGbASg4ASRA0GsIjg1MwdpiHM+lWulcZuZfWIfvgE+W/agPpLHJJVoUiUC2yDeKaTEVURJxLfTnSOL9wL7IPPm5MZFWmMB8yFPMNPVJ3bSVyH1tjhmZNRuIDRPSRI3K6VFcQHcb9aSlZX1TWT9xzv9yqML4rvacvfbW4ShAAOlktsmbsBl0Xj+R5sDWn9lNX1FaKaL/RMNHarqwcQWAFPTeP7bHKJXz9uLEkCJUsTmysLlIbk78RTG1L3FokQShFSxIE47YI0yh4/d9X4pYrvfdSst6y4o58++5bUVB8wI+PGc+JplCkUVvQqom4/fOdp8iRUx/h0Mm3bLiO8nkVap/CE8229emzTO8KEsYshbnR3xDMLtWudOZAWwa+Sk/JGlYpOXj6txak0ecQIcxDBEHYPry2c3o/EfzJK3EGUnUrPgXoXuOcKycIhkK1sFamrs9FB+AMqKqSIFSyXCIqYpEmfzeYmkmCUF5rYK1CDF0NQrhWwa/Tb0TrpuZ08F599BkHjs8MqWRKZeElNKv/FJrWf9KrqF9uMHHFs33vEBQU7bNZjQgPd2ubJWKmOPySW5ORdDuArwFvBEAqFZ/Bm9JTsq+43LzjRyzaDaI4cRK4iyAQ0ykQ3obC9YjpMYDCAeWaHdP6/O7pBU/VrRCpVZeWumZaGZ5baRBU0KQt43tM8LQ8vuxfEoTLos8UlzLqVkXB/4wPptQgSA2C+WuiSd1oLJl2A+rEeMXtvMwuvZS/Azv23x2i1wmEpvX+jSb1HoWieB/7qg5rhoqzuX9g16HhtqsSCqAiA0yj09rvvKyfv+hg7Y7Wj7GqiHt9kdfFy+c1H9fWvhjXpUnlKZzjRvy8kEDXGSPLu4cg5BUr1GnP1P4ipoCRSHV+dH1YXu3zL0LhF7RcELtt2vVnq1oHV36fqlueDVDrqgiCojE02TDmqqOujOXvbb284fwdDtvyibgH0POPIIg44pBeDKGtQbiyXWPMfq4vqkeFeXVDC6v5XQefxflLIsqswx+hXpXVE4M1qD0UzRv8H7QaX2hsHJuRyHGRc2gEcvMumxQyH4QzYJwCeBOAYywiAzI6ELEwiBYB2HyV7rNYNVDnHh12bqts5nEjfn6GQK+LbLVuIginDZritjlTB9sM2JE05vdhigF37ZjW/3rHVsP+2h11K94hwKyWsmhHbWoQ/tk0rkf3YMrcaAslSRDs3js6JaF9wW0g+pTJ+qEtE1BcBkoKcjfHBwcnY8y/ung9MuLJc9/iwPHXILIuhlqpUa0bWjWehMiI2ACbusl4dOeBhwMvrDXxXWnJ2UJzarMkDF/UjLXIKoli6LoG4RL0dMXO1/tnX26R27z0xwSFUJg5td80d2+GDuP+7kUKfidis49y5QTBQNq4reO6i9TTQV0kQXBweePbjWkOxfAhiIxRwqSbY+jYIEx6IA33DWjj1UyMhcVHjGmYL+T94+BODfzqWk0dxDediprRV/rUANFVJPWGs9h3dApO5y50tSuvtGfwmPSU7FcuN1jCiF92AZxQosdykSAw4Z6s6QMq9ZIokWXIXE1yQr3PQPgk85W+f7gLkATdmhrVUCzCKdcv/caplCCc3bTtcH3MG2pw1/j+2o8kCE6tjE5J6Fg4jEHvGQNyWKMoQy2XRdRst2HiUiagAjFQ0ocj+mJwWqxXL4GPnpptjGkgPBVCrTSp97jRzkCjuBRm369gO3dxhTGDpl+HvCZ+t3vb7Kcv55oZ/+zPnxKZLPzdQRCIMG/H9AFD7V2sFN2qOlxY8AvCw4ZkTuzluvuOjpWOvGIbg5KNdhSllpbmb8AyVwwM0nbaNL77FnvlDeR6kiC4sHpCm8AafoOsworKXAzltlSAEwSRZOl/4waha1JDF3aKY02FFfzuwy/hYr5DsWEcG8RPa1eLTEZckynGMMjBWESa7UMn38TxM8Ihwe+CWX17Jtxwd2VJi8R6xD+1qC9p1d9AijFAk8sEgXBYU6R2yHhj0BlH1rvtyKVppOUvEE5XZur6OBQAqfw4HScsXwmgB8NsaHkZgsDAns0TesY7Imsg15UEwfXVo/jUUfcCypsA15IEIXgIQoPaUZg/8TrENqrh+i6xswcRCfHgidfBZaLz2dk4gKsRhRu9E5rW/3cAz8J+0XMv/YN9xyYhv9A/EgAy+Pew/Is3delSucdCi5cW1tYU4JRGRG+01gaatYPOeDEoKt+147WBldo6XA7RtqP/fEEYFCqk6bV9ytUH7UffVDNZt7R6mKr5CwSjG2eVBIFQbCBuv3XclcL2IiSKJAhuWuYW7V+qrdXQF0TKYOPzYn5oLN1zBeM9K+jL6rXKpEa1Zuglolr6KvN1XjKqxRvTuOHL6sSt/m3jATf1X9Ho8rIyWKVxDaZcDEnNauG7idehdoxXcuCgoOig0er9UsF2N+3IwOkmOjIF8U1fQ1REq8AR2g2Sikybh0++j6PGFNz5bujRuS6YsaqANAP7pGRWepcl8hIUnKv+D8AdjKoDNxAEBn7a9eqAm5yTWrzg54ajsP7fTJyoQLkl45XedicfSR23sqtK+gUEamg5wqokCMB3myb0FPEoQqZIguDmpY7vNPpOgISrTF3reOSSIASODUK3Ng3xzfhBCNd6PjIfsx6nzi/EniMvuXkn+n93Ijxywzr3okXD5/xfWA9KaDJEfQEX8jZ4cJRKuiYsU89dGtyjx6HLMBSmVs/+PJpAk0Uv7iAIDOSperXj7jcG5bgy6Q66pc30hZyjKBQO5g9Ug2Fa5vRrKrVL6Djmj6aqEv4UEb9U/iahCoJwdDP3aAYd+d29kCv4VdVWEoSqEHLq90M08Z0SFxOhD2CK/yoJQmAQhAFdW+C/I72TcKlIf9L4Ysi9tMapXRbIjcLDGiOx2VuIjmofyNNwq+wiwJK4dijSH3drv5V0JrIb/n4gOfvaqpJKxT+7qCeDRfANY3EHQYCqPp89c5BdWRqrAiN5zJ83KaAfSuoRzTeo+g+0rDnIGrWYtEoYq9ScWHkE4CEVYzaYWl6GIBQR0YBN43v8VZUswfZ7SRA8uKJxHcderyj4FIQ6kiD4N0EQGtN/9U/CjEd7enBHWLpWce7CCmQdFPftIfVBYrzCqhNzDRKavRHQroue2yQq9h+bgRPnvvHctQPBoKr8QY922U9VNY/455c04KLi/RBJL9xFEBgHY3Lrxm+Y1aW4qvHt+z1TyphlvxHQz1jfSjVgIjOm/1RuUHkZgkAkeMPUzeN7jrFPluCqJQmCx9dziCYhNekHVjAYZJWa1domQdoglK5CiV1F2YiVFewpLAHtLW6lVnjacqM0HQ6l9hXW/RERnrktFS/ccdmQ827ZKSoXIufQCzh7ocoou24Zz586IQpDQpNXUafmIH8Sy29lyTrwuDFqpriGclthXDIo6uCeybuWV9nnkLmauMbVloLQy/q61GUNAnH37BmD1lU5vgMVYnVLI6sX03mAw91KEEDfbtb1HOKAKEFVVRIELy1nfKquBxSDeNhMUbokQbAiBeUMNs1R3a1DWnuSIMx8ohfu7JPo8Z2QX7gbGXuHhmQOBY0Sg44JixGmretxnINpAGYDsg8+iXMXl7k+LcbqtHZZPeztqNXwBWNJoZfLn1euEAQC3s96beAT9srgSL3E55bWC4/k46UfYmS+DnFOg0CgPzfprjRpJUK0SILgxYWP7a2LVHLV94j4AUkQrEmB7wjC7Bf6Y2C3lh4PgLT/2Cs4fvZLiAM/1ErdGtcivukMCA2CP5Xzlwoxd/ke/PLPAew6ch7FBhV6gwqDCqgqG3OuWELkaBSCVqsY03vXqh6BYb3jcV//RERHemdOBjUPJ87+DwdPvOFE2GbeYyDNTT3a7siwN5Nk3LMLrwPjJ4vJgTs0CMwwcJGhTs7bg3M9tQ+SR/3xkqJRppr6d54gELBYORJ1o/uuQTw1Y8/2KwmCZ/G10btOietq6EyMPwCKMe/jshqFcq6DFTUO5mWTbo6luS+cuGL4dtJgpCc39ugOEAe70BrkF7pkrO1RGT3Zeetmb6FODWH0afzu9GnJzSvCf5fsxLzlu3H2UhHEvy3PlvWjZHm5lN5I2XjeRHpXDaF+zUg8Oqgt7r8mEUp5V2YPzFblIhQVH8XJc9/jxLlvodefsjkKg4VXwvtaA7978fSuA336wO57ilZPftcSmohtRDCdT8Z3bemrwlkNgt5AXfe8MWC9B2Ap02XKmKULiHC90wRBwUcXazcanvN060JPy+rv/UuC4KMVSuo5MkZfGDUW4JEmjbr1UpQeSDIOgmmB3H3FsGj6zegQL5Llea6cPPcD9h97OSSvFBSKQru4+T6PbXD41EW8u2A7/tp6BIdOXTJqBmzF+nCGIFiH5K1dPQIDOzfFuDs7eU2rIJ4KvSEXBkMuVC4wbmSVi1fknHrxruxmC49V5Z1ge+frlFZPd94EUIeyR5KrBAEfZVdf8zh0Oo9b5fbWLdWeKsI8KHSzo0aKYPX+pHZXfTFvKIWeqs/GhpAEwXPvB3t6ptadx3VTFfoJRA1KG0iCUD6ttrsIgqIQfnv9ViQ1r23P+jhVRxiV7Tr0LM5eELlkQi8tc3RUO7Rp8bHP0jLnF+nxyeId+HHVXmQfOgeD8brAcllg/BwuG0DMnGjIVlAx61YlEcgqfFSXPq9RERpc3a4JRg3piJYNqju1f9zQSET6G0pEWx3tK/bpBV8Khx4BkNsIAnBJG5NbJ1M31KyycVQqJ+rrdEo7fZ8RCngaCNqqvBgYWGQg7TMZuh6hqeqrBGJJEJzYe25v0vnRsDhNkzEEFq40xs1sLFQ21nnJuDKSolHjYu2tIDwRLKUyL4aYahH4deYtaN6gVHPq7rXML9qL7AP/hsinEHqF0KjOPWjR8EWfuDBu2X0KsxZl4o9Nh3CpoKwHnbcIgumxJWPGz54pDTH8hhR0SfCspqqSfSZexiIj42Qi+76G455cMIoVmgIyWV+4iSDoNQZuvfPNa33yQLQb+1dbhfA0GPcxIcp0rppyLgAoIMb/SMMfbZ5w1WoIl0ZZyiAgCYIfbYjYzuO6KxplFoE6SILgXjfHerWisPi1W9GwtmeyAzJUnDg7F/uPTXavW5of7c/LiSKiIrZsNAYNatudlM8tM2NmLFq332hbsHbncbCNGwQxkLcJgmlM0xR7tGmIx69tg14pjcq+dN2CQJWdrABwHxHtvVzN2Cd/uokUmlviZeUugsA0dtfrA6dUKaWHK6SPWBWVW72onUKoR4qGFeiPaRrHZGx4zF2xGDw8AR91LwmCj4CvfFidEteNxpHJNqGatEEwIeXKFUOLRjWwcMYtEPfEnijiHnjf0Uk4nbvQE937fZ9h2npIaDoTNaK7e03WIr0BP63ah7d/2IrdR86XCY5TIQWJjwmCRbhO8XXx5HVt0bd9Y4irLi+WswD+TUTf2BqzxZM/pWgUrDYaTZeI5RYNwrpdMwd5b1N4EdBQGcqruzRUQHXHPOM6T2oPrfoRANMDViZugvRisPeKIalFbcx7+QbUjikJBOeO5SnpI68gy2hvUFB02Q80t47pT51FRbRGUvP3ERHezCtiFRQZsHDNPsyYuxGHT12yfp+ZxzfZF5Q/2HypQShxljQLldy8Np65MRl9OzSGVuNV745ZAJ4lopK8C42Gz60ficgdBDIFqHAfQThjuJAbLZTWewAAIABJREFUt2fW0PNe2RhyEI8gIAmCR2B1X6dx3Sa+CMIoEGqW9CptEOyyQWjTsg5+mHqTh6zKGcJLYe/RcSF5pSD2Ys3onmjd/C1olGj3bfhKeirWq/hz00FM/Owf7D9xodS91VLf6sXm7wTBYjAX1ygG44Z2RK+Uht4kCiK/9PVElF3/ibnVq2siBbOtZ233ZILUFQ0CFatEQ3fPHFiaH8HjO0QO4AkEJEHwBKpu7jO2q64RaegHKq9NkHEQKo2DkJrYAN9MvB7VPBDIRsQ22Hd0Ik6d/9HNKx043dWvNQRxTSZZf3J6RHhhU7Bx1wn83/srTFcJlpj6ZbwSyn75BgpBsHytN60bjcnDOqFn24YI13pFo1CUefDC0MHTl80mBXUremq4SBCYPtj1xiCRaESWAEdAEoQAWsBW3XT3kkJvg6hGqTqw4nWDhTdUuLe3Pjlt5HO3fDmU0c9ah16zdc1RzuPC2pugoowmWW15GZRqR0yHkytuju3j6+OHaTcjzAOHrcjAmLl3GAqLK80oG0A7yhlRFbRsNBqN6tztTGOH2hw/m4dHZ/6JDdknyqi+y3ivBLAGobw6PyYqDB/8O93o9eBJonA+rxhXT/wD5/KKjTeXbiYI/+x6/dpuDi20rOy3CEiC4LdLY1uwZukjosJQ+y8Cupbxy7bSJoQyQUhuVRcLZtzqEXJwMW8TMvffB2bvuXP70/Yk0qBNizmoEd3Vo2IJO4Nxn6zGV39kl9oTWF0hBAJBEOQ0IlyDRrWicFW7xmjXsjYa14kyXiWcvViE3Udz8ffOE9i67yzyiwzGEM+WIuwl5gzviR5tGridKJzILcBVut9RUGxOX+ZGgqAAl4j0sdkzb7Ad3tGju0Z27gkEJEHwBKpe6LPVlZM6kor1AGnLf6mHKkHokGDSHHjC8GufyKVw5jMvrKz/DtEpcQXCtfU9KuDSTYdw77RfoVrel5YXWIAQhKtSGuGloR0hDBHtLSK64xd/7caErzebNGxW1yejb2uPh69pjQqaOXs7t6q3Zf9Z3PSa8HoUxaw3cCNBgMqDd785+BcnRJNN/BQBSRD8dGHsEcuY/KlQ+xWIb7HWJoQiQejathG+eflGt2sORFTELbsHo7AoVK8UAIUicUXSKmgUz8SQEHv9dG4B+o/4DifOF5jfXaVXZ9amNv5og5CW1BAv39sZLRvEuPTFL5JFLdt2DI+8v9qK8xMiwjTo064hXrn7CtSONiWDdaSozBjz9RbMXX0QhpLInu4lCCph7N7XB/s83oEjuMi6VSMgCULVGPl9jZZpuis0Gs0SgIwh20KNIAhy8PWkG4wHqTtLYfERbN9zG/QG4UYemiU8rAk6xP8EjeKZsMHCO2H0rL/x7bJdKBYhkUvsZPybIGiIMOqOVNzWsxXqxLg3vsbFAj0+WJyF9xdnwaJIERcCIjlU49rVcF+feNx7dZxdZOSjP3PwzpJdOH+pyBjhsTSFuhsJAuOb3bWi7oauj90JoULzaQq8WUuCEHhrZlPipJ7TYzq0b/jVhm2Hrg8lgtClbWP872X3k4PT5xdhz5FRUDl0E7pFR7VH25afekxz8NfmQ3j+nb9w7GxeieGqvxMEke555iNp6NuxKYRRoSfL4dN5GP3lJizPPF42owcRIrQKmtSJQmyD6kZbhYRGMagfE2HUwGw9cA4rdp5EzrELOJdvCjltMvv1BEGgDO35ovSsT2664EksZN++QUASBN/g7vZRmXkCgNHbdh4Nf3HqAmTvOVkx+mCQeTFc0aYh5k1xr7cCswH7j03B8bNfh2SiJcvGrB3TD62bvQEix1XaVW3uC3lFeP7tZVi8bj+E+ts66JW/EgTx9T7pnq64tUcsoiJMZj/eKutzTmHkZxux58RF05CluQSM/xQ2C5aIq5YAjUYcrcI9e4Yg8AUFatvsN2447C0s5DjeRUASBO/i7ZHRmPm/It665XYhv6AYn323Hq9+uAxCaVtarELMBbibY3JcPSx6YwiUMhllXINXbzhnjIqYe2mNax0FeGsR46BVY51HEi59/9cuTJ6zBifP5ZUY4/kzQdAqhPuvScKTN7RDXTdfJTiyTYr0Kr5bvR/TfsiAcFO0Prh9QRCYoJJC7XNmDs50ZB6ybmAhIAlCYK1XGWmZWXzeCavhvramkbPvFMa+9gv+2XrQ/OvgIAjCW+H7Gbe51SDxUsEO5BhDJu8P4B3huuiN6z6EFg2fd3sApPMXC/HS+8vx88o9JTENLNb6/koQurSuj0n3dkG7lnVcB9ZNPZy+UIh3fsnC58v2wGDMTOUbDQIr2p67Xx+4yk3Tkt34KQKSIPjpwlQlFjOLU0s8oEmXq2swqPjUqE1YiqJitTTgTIBqEFITG+K7abe4lRycyV2CPUfGwKCaVbhVgR+kv2/W4Fk0rfe422f3+7p9eO7tpThzodB4D275/PVXglArOgIv3N4R9/RLdDsW7uow+2gupn63Hcsyjnv/ioFoYM4bg39111xkP/6LgCQI/rs2lUrGzPEANohw+PaKf/rsJTwz8Ues2bzfnBLXKqqh6KREVV8u040fRVJMia+Hn1673a3k4PCpD3DoxFtAib24vYgGUz1CbKOxaFhnmFsnVaw3YNLsVfhs0XYTusa7c/8mCP1Sm2L6g2loUCvKrVh4ojOhP1i6/RimfZ+BrKMmG0FP2iAoClSVNQP3vDHod0/MR/bpfwhIguB/a3JZiZj5CgDrADjl0/f1T5swY9Yy5F40WedXTCftnwQhKbYevn/1VrclXlLVQuw+MhJCexDaRUFckymoX+sWt8KwffdJDBu/AGcvFJj2mTGmr/8ShFrR4Rhz1xW48+oEt+Lgjc7ETcOcZbvx/m+7cFLEkbCkR3ejkaLw2Pj0393QsUUtkYBpKBGZ3CNkCWoEJEEIoOVl5qsBLHNV5MIiPR56aR7Wbj4Ag2qmCH6sQWjZuCYWv3WH2xIvibgGGXvvQkHRPlehDOj2RFokNH0DdWpc47Z5iLgGXy/JwLgPlpfxovFngpDSsg4+e6FvQGgNqlqo137KxJd/78PZS6b3tyXugSteDC3rRWPuM+moV2qk+TeAgUSUV5U88veBjYAkCAGwfszGx/x6AD+5U9xf/tqJ0a8txnnxleenBKFJvepY9NYdqB0T6ZapF+mPY8uuASEd30AAKfIqtG35GWKqdXYLrqKTM+fz8eDEhdicfcL4YrJOFuaPBEFRCP++LgUvDu1Uuv3dhoZvO3ptwQ58sWIfzuaZ8oY4QxCEa2f/dg3x3oM298hOAGlEJFJsyhKkCEiCEAALy8z3APBIIgARB/7h0d9i+T97xQWj6Six3hU+tEGoUT0Cv713FxrWiXbDKjEu5m9Dxt6hbugr0LtQ0K7VPERHpbhlIkLFvWHHUQx98TuYFFKmgDz+TBAiIzRY8sp1iGtktxmPW7Dydic/rT+ESfO3GxNEifwW9kRSFN8KjWpG4f2HuqBDi8vicwhARyI64+15yfG8g4AkCN7B2elRmPlpAP9xugM7G27KPII7nvkSer0IXGPVyEcEQSEFf39yL5rUd0+IXxH4aN/RiXaiEbzVCBqkJi5za9KlSbOW45Mft5hAM2qi/JsgNK4TjXVv3xa8i2xjZnlFBqN75EdLd6PYYP4QMC+XOeiysVXbZjXwn3s7GSMz2llEHPJWUpNgJ1oBVk0SBD9eMGYeCWCqME72hpjCNmHcm7/h28XbSofzEUFY+uHdaNW0lhumzcg59DxO5/7shr4CuwuiMLSPX4io8JZumcjFvCLc+txcZB8QH5CW3An+TRAeGtgGE+7uCnG9EIpFRK4sLFYhAi/lF+lx+mIRGtSIRESYggitxvh/J4ogCSlEdNSJtrKJHyMQmk+JHy+IRTRmHgNAfPI65a3g7BSZGRm7juPOEV8jT8Rx9wFB+OXtu9C2lTHvlEtFVfORue8eXCrY7lI/wdBYhExOEdcKkZcNm2H3VJdv3I8nX/kFImyysVhsWPxUg6AN0+DjZ3ujX6dmds9RVnQIgeMAOhORDLvsEGz+XVkSBD9cH2YeC0DkVvBu0HcrLAQ5eGPO35j97XobrpDl4iYYXxAml8kKeestmaOsXiKma2qrrWf19+9fH4JOSY1cXpWi4mPI3H8fCkM8MqIAUqRrbhv7GapHdXAZV9HB5FnL8emCLWZVtblLPyYIjepUw1ejBqB10+C2N3DL4rrWiSAHwnBR2CbIEgQISILgZ4voD+TAGpKtWcfw4OjvcPpcXiUvdYtq2XWC8MWUm3FlanOXV+Ri3mZkHxqOYv1Jl/sK9A4UJQpJLT5GDTd4KwiX2LtHfYe1Ww+XBD4qwcdPCULXpAb48NneqF/T/wMfBfpeM8sv4rr3kCQhOFZTEgQ/WkfztYLOl5oDW3AUFevx1uer8cE3/0CEbjYWa7dIFzUIiqLgPy8MwA1Xux7a9nTuYuw9MjbkwyYbNQeCHDT/EDWiu7m8y3ftP417Rs/H8dOXymRf9GeCMPTqBEx+oDuiwn2miHMZ9wDtQJCEbkR0LEDll2JbFIMSCf9AwOyt8Lq3bQ4cmf2GjMMY/cZvyN53ym0EQWRjHPVgTzxymwgQ6Vo5dvozHDjxKphlkDdhc5DUYhZqRqe5BKpwYfzutwyMfP1X81WTKSJipddEfmKD8PztqXj65g4ha4zo0qK7p/EeAF2lC6R7wPRVL1KD4CvkrcZlZpGqebY/kwOLuHqDijc+XYnZ322E8HootV537orh0duuwOiHrnR5FQ4cn4mjpwWEZg2Hyz0GbgeCHLRu9iZqx9hM8mn3xIqKDZgxewVmf7/JrDUyq4r8mCBoFQWvPd4Tt/cS6Upk8TECIlSp8G6QERd9vBDODi8JgrPIuakdM4sIiQvc1J3XusnIOYEXZy5BRo75nt8JI8Vb+iThjRcGuigzI+fwCzh9fqGL/QRHc+HK2LrZ26gd09ulCZ05n4fhUxZh5eYDpYanFoNTPyUI1SK0mDOyH3okN3Zp7rKxWxHIAZAscze4FVOvdSYJgtegrjgQM/cEIOKaB2QRkRff/nINPpz7D/IL9Q55MfTp1gr/nXijS/NWudDkxpi/1aV+gqexgoRmM1G3xrUuTSlr7yncN/o7HD91yRh5r8QzxY8JQu2YCPz08nVo1aiGS3OXjT2CQCaAVEkSPIKtRzuVBMGj8FbeOTN3BLDZR8O7ddhDx3PxyPgfsGPvKbvcHDsmNcL814e6dD+sN5zD1t03SE+FkpUktG72H9SpMcCltf1j9W48pvvRnMTLFBHR3wlCw9rV8Nfrt6B6VJhLc5eNPYqASJt6gyQJHsXY7Z1LguB2SKvukJlFKLvdgWBzUPVsTDWEMdvH367H65+tRoHRNsFcysVBaN6oBn6fdS/Cw5yP/1RUfBybdw8Eq6bUtrIAcU2moX6tm52GQrgwfvD1Wrz237/LGKD6O0FoXr861rx9u9Pzlg29isAHAJ4iIoNXR5WDOY2AJAhOQ+dcQ2auDWAvgKCM2lJYZED/h+dAaBWMxYog1KgeiWWf3IfaNZz3SRcpmrfkDHIO/CBt1aLhi2hc9wGnZ6fXqxg+eQEWr8g2kQMrF1Z/JgiJTWti6cxbnJ63bOgTBJ4D8AYRmfPM+0QGOaidCEiCYCdQ7qjGzCLQuUiT2tod/flzHwuW7sSIGYthEKoFkPE64bdZ9yKumeBHzhVTNsYhzjUO0lZN6j6C5g3Fmet86Xffx9hzSITTt2TvsRwL/nvFkNq6Pn6eLOx7ZQlABO4kom8CUO6QE1kSBC8uOTOLjEGDvTikT4fKKyg2Rt7btOMYvp5xO9I6OB8H/+yFZdh16CkwW11f+HR2vh+8Xs2bEN90utOCnMvNR//7Z+PM+fyy4bT9XIPQ/4rmmP1CP2hCNOGS0wvuPw3FFcNAIvrDf0SSkthCQBIEL+0LZn4XwBNeGs5vhhHZ406dyUODutFOy3T8zNfYf3wymOXVpQXEWjF9kdRcbCnnHmGR3vvu575BfqGNhFx+TBBu7ZWA1/99JbQap7IOOr0HZUO3IyBiI6QTkXRBcju07uvQudPFfeOHRE/mtM3TnD7NQwIl25M8dPIdHDn5HlgGQCoBqEZ0Otq0nC0ubpzaGV/+uAm6t383eyqYrhVKLoT92AZhWP8kvPJQD6k5cGrV/bKRSO7UiYhk0hS/XB5nPz/8dDL+KBYz3wBgHoAIf5TPn2Xaf2wqjp35TPhI+LOYXpUtplpntG05ByIgkqNFxK2Y/O4fmDN/g4mrlpga+D9BuHdgG0y6P01qDhxddP+vvw7AldL90T8XSmoQPLguzJwAQDwAzlvmeVA+f+56z5GxOHnuW38W0euyVYtMRnLsZ9Ao1R0eW4TFfu6VhVi0bKfZSyFwCMKTN3XAyDuvkOTA4VUPmAb/I6K7AkbaEBJUEgQPLTYzC41BFgAR80AWBxDIOfR/OJ27yIEWwV81MjwWybFfIExbz+HJCmPEJ8d/jzWbD1glWQoMgvDkLR3w0l2dIZJ6yRLUCIwjoslBPcMAnJx86jy0aMy8QqjOPNR9kHarIuvAEzh3cVmQzs+5aYVrG6Jt7GeIDHecax45nouHXpqL7D0ny2Vh9H+C8NgN7TD2nq6SHDi3bQKtlUjBegsRCU8vWfwEAUkQPLAQzPwqgOc90HVQd3noxDs4fEpY5kubA8tCi+uEti0/RXRUyv+3dx5QV1TXF99HEAFFUexSFCv2HjX2FlvsvWBBjQXb317RGLtBRQ0asRsUe48ae4td7CgoCAiCCIIiReD+1368Tz/JV+bOm3lv7sw+a7FI5NbfnffennvPPcd77T//aiwOOXkAxo7/aXbd3yVZyrZA2GeLFXDFURvLIdF71YOuwGAczNkwPOhZ5GjwEggJL6ZzbisAzwAxXcwTHk9ozX33w0MYPuYyMNdC0Y1pm1fq3A/zz7u+N4q3PhiOI06/Fz/9PP23yIiBCITdN10W1/TcrKJcHd7AVCErBL5mIDk5LWZjOSQQElwH59xSAEYm2GQhm5rlpmPwiOMw8adX4VDU2AdzYfmOfbDQ/Ft7PwMvvD4YR531AGbMmvXrzkEoOwh/Wn9p9Dt1q/9N+uVNQRUCJvCUmVWWkjTgyWdp6BIICa2Gc44JBkYBaJ9Qk4Vv5ocfX8SXo87EjJnlMMAFIrL0Er2w2IL+jt33Pj4QZ132BNwc1xhDEAh/XH0pDOhVmECjBXqaY031IDO7K1ZNVUqMgARCAiidY0ob9AewbwLNqYnfEZiFwSNPxvhJzBZbfiPOOaHFFzoEXRY/w3uW19zyMvrc8kop11JoAmH15RbBE5fFz0bpDUsVQiDQ2cxGhDDQvI5RAiGBlXXO7QFAl/YTYNlYE1OmDsZHQ/eEc9NS7KX2Tbdru14p1oFvDLP/u+BhPPKfj0v1QhMI3ZbugGd68yMkE4H/ITCfmU0Wl9oQkECokLtzrhuAjwC0qLApVW+GgHO/YMTYqzD6+1tyyWrulotgreVfhJnfo9T9hLvw+rvDync/whIIKy/dAY9fsRvmVm6FXD7TCUzqZQCbKz10AiRjNCGBEANaXZWy3wHTN3euoBlV9SLgMHXaMHwybL9c3XRoMVc7rLPi614hlBk6efcjbsZHg0bXC50cjkBYoctCeOTSXTFva/+w0V6PjAqHTuAwM7s19EmEOH4JhApWzTnXF8BRFTShqjEJcDdhzIT++PpbpjsO2zeB4mDN5Z9ByxbRI3JPnz4Dex55Kz754tvyaURdXIMwBELnxdrh0ct3x0Lzt475BKhagQgwiNLaZsYzNFkVCUggxIRd9jtgEiYxjMkwiWpTpg3B4JH/hynTvkiiuaq3MddcbbDK0gPQtvUKkfv+afI07Hv0bfhs8JjZMQ5KT2A4AmHh9m3wyOW7odOi7SLPWQULT+BLAGvIH6G6z4F+3GLwds51BDAQQIcY1VUlYQLOzSrtJowY+3fMmjUl4dbTa86sJZZb6mqvWAffT5iM7sfdiUFfjp09sMAEwvxt58H9F+8MOibKRMCTQB8zO8GzjopXQEACIQY85xwjJW4To6qqpEhg6vRhGDr6r5g0+fUUe0mu6c6LnYolOvSI3ODoMRNx+Ml3Y9CQ8s5BYAKhZcsWuPuvO2GDVZaMPGcVFIE5COxoZsrkVqXHQgLBE7Rz7iQAvT2rqXgVCYydcG/ptkOWAywt0n5PdF0yevK6Ud9ORPeed2DYyPH1MjKGs4NgcxluPnsHbL2ef8KpKj466ir7BL4BsJaZfZf9oYY/QgkEjzV0znUtHy3o8NSDWy2K/jJjHIaO7oUJPz5Xi+6b7HP+eTdEty43R07XMXT49zjshLswYtQPJVeDUiqruvTHgRwxXHrs5tj/Tytnbi00oCAJ3GNm/mFGg5xqbQctgRCRfzla4tsA1olYRcUyQGD8j//B16P/hukzxmRgNEDrVktj1WXuQ4sW0TTm8JHjsd9Rt2LMdz/+6ogYmkDoudc6OO2gP2SCvwaRGwL7m9nduZlNRicigRBxYZxzZwG4KGJxFcsQATouDvnmNEz48dmappJu0WJ+rLrM/WjdKlrYjG9GT8SePW7Cd9+X0zWXbyqEJBB2+OOy6Hv6tkq+lKHPQ06GQi/dFcxsYk7mk8lpSCBEWBbn3EIAGBO8bYTiKpJRAj9P/QKDhh+KX2Z8X/UR8sZCty63oV3bdSP1/c3oH7DTAX3x4+T6oaVnX2UMRSB0W2ZhPHn13krbHGnFVSgGgSfNbMcY9VQlIgEJhAignHO8ZL98hKIqEgCBr0adi3E/PFjVVNLLLdUbHRaIlqlw3PjJ2Gq3qzF5yvTffA1KXMMRCAsv1Bbv3HFoAE+Dhhg4gR3M7N+BzyGzw5dAaGZpnHMHA7gtsyuogcUiMGPmJHwwZDvMmDk+Vn2fSksufBQ6LXpipCo/T5mO9be5DFOnzZgdAKnOGTEggTD/fK3x4T2HR5qvColAhQTGmtliFbah6o0QkEBoXiD8DKCNnqD8EXBuBr4dfyeGj7k8Nd+E+dqsiZWX/lekBEwUB3/Y5jJMoTgobxiEJhDatmmFV/p1R4f2+sjk7xOT2Rk9YmbKFZ7C8kggNAJVtxZSeNoy2uT0GWPxxYhjMXkKk3ImZ3PN1RZrr/AqWszVvOvKuPE/YfOdemPqdO4clD+Wge0gtJjLcN8Ve2LtlRZPDqJaEoHmCcwE0NXMhjdfVCV8CEggNC4QeJ3xHR+YKhsuAe4mjJ/0FL4cdRacm57IRNZa4SW0atn87ue473/C1rtehZ9+LvscBCoQLj1+S+z7p1USYadGRMCTwDdmxhD4sgQJSCA0ANM5x1c+RuxqnyBrNRUAAe4mDP/2Unw/KX40V8Nc6Lb03WjXdo1mZzxq9ETsflBfMMfCr7cTAhQIh+++Ns45fONm56sCIpAigZPM7OoU2y9c0xIIDQuEcwH8tXBPgyZcJjALE358EV+NOieWE2PnxU7HEh2a9+AfPmI89ulxE7iDQAtVIGy30bK4/qwdwCMGmQjUmMACZjapxmPITff6RM+xlM45RrH5OjcrrInEJjBz1mQMH/N3jJ3QP3Ib7efbAit27tts+VHf/oD9evQD4x1YeccgRIGwxgqL4e5Ld0fb1nM3O2cVEIEqEOCVx53MbFYV+sp9FxII9ZbYOTcXgMcBbJ/7ldcEIxP48ed3MXTUuZgy/asm67SepyvWWJaPDx+jxo3ioPtfbsGw4d+XHBJDFQiLLzwfHvj73lhq0WhhoyMDV0ERqIwAkzkNrKwJ1SYBCYTfC4QtAWQvu4+e1UwQGDG2N779/nbMcvWjG84eWssW7bFa10fRau5FmxwrjxMOPeY2fPbF6NnlAhUI87Rqifuu3BOrLd+8E2YmFk+DKBKBYQC6mdnUIk06jblKIJSpOudaA/iE12XSAK0280Fg2vQRpbwOP015/9cJmbXC8h37YMF2mzc5yUk/TsVBR96MTz4b9Zs0D1Qg3HjuTth2o2XzsaiaRR4J7GtmA/I4sWrOSQLhN4FwBIB/VhO++gqXwJjx/THyu2swY+ZELLVIT3RcpGeTk5k69Rfs3+MmfPgJL8fU27sLUCCceOAGOOHADcJdPI28CAS4zbeEmU0owmTTmqMEAr3HneN1RgbZ0GFqWk9aDtulE+O339+BpRY5usnZzZgxCwf0uAnvfkDf13pBkEpCISwfhD+u2Rl3XrK7sjPm8HnO4ZR6mZluo1WwsBIIswXCJQDOqICjqopAgwSccziwx014691hcKVPW7gCoX271nij/xGg/4FMBAIhwAiLQwMZa+aGWXiB4JxbAsCozK2MBpQLAoceeQtefXNwSRiELhA+eaSnrjPm4qks1CRuNjNlDou55BIIzt0OoHtMfqomAo0SOO3se/HwY+//KgxCFQgtWsyFF245FJ2XWECrLQKhEWB4kfXM7N3QBp6F8RZaIDjnugH4kLfUsrAYGkN+CLzx1pfofni/cnTE2UcLoQqES0/aFvtuv2p+FkczKRqBJ81sx6JNOon5Fl0gPAFghyRAqg0RmJPARx+PxCFH3YJJP04JViBsu/FyuLHXzlpcEQiZAHcRtjaz50OeRC3GXliB4JxbH8Br2j2oxWNXnD4nT56Gvv1exE23vYyZjt9T4TgpLt9lYTx540Fo2aLpyJDFWU3NNGACL5lZ04FKAp5cWkMvskB4EcBmaYFVuyJQn8BHn4zEmec/iEGDx8z+z3WfvIxec1xkwXnx+A0HYdGF5tVCikAeCFCdb29mT+dhMtWaQyEFgnNuLQBvA2hRLdDqRwR++WUmbv3Xa+hzw/OYOu2XslDIXhyEVq1a4ua/7YaN1+6iRROBPBF428y4cyyLSKCoAuG/ABQKLuJDomLJEhj69Tj0uuRRvP7ml5kMlHT64ZviqH31PZrsqqu1jBDYwcyY8VEWgUDhBIJzbiUAH2v3IMLToSKpEaBcTjIRAAAgAElEQVQ7wr0Pv4Mrr30GP0ykEyPKNx6sJBpKxr/q/nfdf7B65UplWL5cuPw3/5Pjf6x3jDG7uv3Wxxz/Xko1TY/dzVbE9efJKTG1hVfDtSbwjpmtV+tBhNJ/EQUC04CuEcoCaZz5JvDjT1Nx6rn347mXP6+5QOjaaSE8fkN3tGk9d76ha3ZFJkAt/Ecz4y6yrBkChRIIzjnmph2pmwv6XGSNwFvvDcNJZ92HMeN+rMkOQuvWc+Ph6w7ECsssnDU0Go8IJE3gfTNbO+lG89he0QTC6wA2zONCak75IHDyuQ/giWc/BhM8VeuIwcxwXa+dsf2mK+YDomYhAk0TmAVgeTP7SqCaJlAYgeCc477pz9o90Eci6wTGjvsRex56E0aNmVgVH4RD91wX5x6zZdaxaHwikCSBgWbG22yyJggUSSA8BGBXPQ0iEAqBW/v/FxddU//a9mzHw5JD4a+OjJU5KXZaYgE8f8cRYL4FmQgUiMAMAG3MjH/LGiFQCIHgnGO0l5/0FIhAaAQmTpqCHif9CwM/putM8gLhjfuOwaId5gsNi8YrAkkQeMrMtk+ioby2URSBcBaAi/K6iJpXvgnMnDkLL/13CI476z5Mmz4jsR2E+649AOusulS+4Wl2ItA4gWlm1lqAGieQe4HgnOPr0XgAurulT0LQBCZM/BlXXP8cBjz6XsVHDEcfsAFO6bEp6KAoE4ECE+hlZn8t8PybnHruvx2cczsBeEwPgAjkgYBzDm8PHI4TznsAY8f9FCtQUscl2uP5u45UEqY8PBCaQ6UEeKOhrZlNq7ShPNbPtUAo31zgVZaOeVw8zam4BKZOm4F/3vUarrn5Za9Iisyz8PbDx2G+tvMUF55mLgK/J7CNmT0rKP9LIO8CYU0A72vhRSCvBAYNGYMzLnkMHw369leh0Fio5RYtW6DfpXth0/WWySsOzUsE4hAYBaCLbjQUTyDcD2CPOE+M6ohASAT63f0GrrnlJfw8ZUbpBmRDuRj23mlNXHKqnLZDWleNtWoEGDhpSNV6C6Sj3O4gOOd4rDAikHXQMEWgYgJjvvsRp1/yOF575yvMcr9P1rT80gvjqduPqLgPNSACOSVwl5kdlNO5xZ5WngXCsQCui01GFUUgUAIPPPkhLr/hBYz7YXJpBvPNOw/+fdsRWHKx+QOdkYYtAlUhsJiZja1KT4F0kkuBUHZOHA5g8UDWQcMUgUQJ/DxlOk6+6DE8/9pgnHvCtjhwV+WmSRSwGssjgQPMrH8eJxZ3TnkVCFsBkFdq3KdC9XJDYPTYSVhiUe0c5GZBNZE0CdBZsbOZzUyzk5DazqtAoArcL6SF0FhFQAREQARqTmA9M3un5qPIyAByJxCcc0xo/11G+GoYIiACIiAC4RC4zsyOC2e46Y40jwLhaAD/SBebWhcBERABEcghAR4vLGhmP+Zwbt5TyqNAeAvAet4kVEEEREAEREAEgN3N7CGBKMdeywsI59wqAD6anRdXJgIiIAIiIALeBJ4wM+bwKbzl6ofUOXcpgNMLv6oCIAIiIAIiEJcAEzgx9PLIuA3kpV7eBMIXAJbPy+JoHiIgAiIgAjUhcJyZFT7QXm4EgnNuQwCv1+RRUqciIAIiIAJ5IvCamW2cpwnFmUueBMI/ASjYfJynQHVEQAREQATqE3DcjTazL4uMJU8CYRjPjYq8mJq7CIiACIhAYgTONrOLE2stwIZyIRCccxsA+G+A/DVkERABERCBbBJ408z421JYy4tAuA3AwYVdRU1cBERABEQgDQJLmtnoNBoOoc28CIQhAJYNAbjGKAIiIAIiEAyBQh8zBC8QnHNLAxgazOOmgYqACIiACIRC4BUz2zSUwSY9zjwIBOZdYP4FmQiIgAiIgAgkSeAXAPOZ2fQkGw2lrTwIhM8BrBAKcI1TBERABEQgKAJHmFm/oEac0GCDFgjOuVYAfgIwd0I81IwIiIAIiIAI1CfwHzPbtohIQhcIxwC4vogLpzmLgAiIgAhUhcAYM1u8Kj1lrJPQBcKHAFbLGFMNRwREQAREIF8E1jezt/M1peZnE7pAmACgffPTVAkREAEREAERiE3gdjM7JHbtQCsGKxCcc4x7MBhAsHMI9JnRsEVABESgaAS+MLMVizbpYH9cnXM3AjiyaAum+YqACIiACFSdwBQAC5gZrz0WxkIWCOMBLFiYldJERUAEREAEaklgTzN7oJYDqHbfIQuEqQDmqTYw9ScCIiACIlBIAs+b2VZFmnmQAsE5twaAgUVaKM1VBERABESgpgQKd90xVIEwAMDeNX1U1LkIiIAIiECRCND/oI2ZzSzKpIMTCM65FgBmFGWBNE8REAEREIHMENjLzO7PzGhSHkiIAmE+AD+mzEXNi4AIiIAIiMCcBF40sy2KgiVEgbAMgK+KskCapwiIgAiIQGYITDKzBTIzmpQHEqJAuBTA6SlzUfMiIAIiIAIiMCeB6WZWmNtzIQqE7wEspOdWBERABERABGpAYGUz+6wG/Va9y6AEgnNufgATq05JHYqACIiACIjAbAJ9zYyZhHNvoQmEzgC+zv2qaIIiIAIiIAJZJTCJSQLNzGV1gEmNKzSBsAuAh5OavNoRAREQAREQgRgEGA+B0XxzbaEJhDsBHJjrFdHkREAEREAEsk5gQTP7IeuDrHR8wQgE59xcAJigqTBXTCpdXNUXAREQARFIhcAWZvZiKi1nqNGQBMIiAMZmiJ2GIgIiIAIiUEwCN5nZkXmfekgCYRUAH+d9QTQ/ERABERCBzBOYAKBD3h0VQxII2wN4MvOPjQYoAiIgAiJQBALtzOynPE80JIFwFYATs7wYs2bNwvTp01MZ4jzzzAOzYJbLm8HUqek4BJMZ2SVhv/zyC2bO9E/k1qpVK8w1F11okrG0WFUyOnLmHPmnRQvmU5OJQO4JLGlmo/M8y2B+cZxzPF7gMUNm7ZFHHsGuu+6ayvgeeuih1NpOZcAejY4dOxaLLbaYR43oRRdeeGF899130Ss0UbJ79+64805epPGz+++/H3vssYdfpUZK//zzz5h33nkTaSutRigQVlllFWy44YbYfvvtS38okmQikDMCuY+oGIRAcM7xFXAKgEyPN02BQOFBkZBHO+6443DdddelMjUJhFSwejVat4vTpk0bHHrooTjzzDPBdZGJQOAEeprZ9YHPocnhZ/oHt27kzrmlAQzN+kKkKRC6dOmCYcOGZR2B9/h4JDPffPOB2/dpmARCGlQra5M7DEsuuSROP/10HHvssZU1ptoiUDsCj5nZzrXrPv2eQxEIGwF4LX0clfWQpkDgW9hnn32GFVdcsbJBZqz2N998g44dO6Y2KgmE1NAm0vDiiy+OXr164aijjkqkPTUiAlUkMNnM5qtif1XvKhSBsDeAAVWn49lhmgKBQzn66KPxj3/8w3NU2S5+4403pvrjIIGQ7fXn6Ch+N9hgA/z73//GAgsoDlr2V0wjrEeAORlym0AwFIFwKYDTs/5Ypi0QuHswaNCgrGOIPD7nHLp27Zrq0YkEQuTlqHlBigOKBDo3ykQgEALLmFn+zn7L8EMRCE8D2DbrD0zaAoHX9SZMmAA6e+XBRo4ciU6dOqU6FQmEVPGm0vjTTz+NbbfN/Mc9lbmr0eAIrG1m7wc36ogDDkUgjAGwaMQ51axY2gKBE7v22mvRs2fPms0xyY6ffPJJ7Ljjjkk2+T9tSSCkije1xl966SVsuummqbWvhkUgIQK7m1k+r5dl/dogF9A5Nz+AIM54qiEQunXrhk8//TShZ7u2zfB+/FNPPZXqICQQUsWbWuMMuMTjtOWXXz61PtSwCCRA4EIzOy+BdjLZROZ3EJxzdNsP4uC9GgKhXbt2mDRpUiYfJp9B/fDDD1hwwQV9qsQqK4EQC1smKvFq74cffoj55+c7gkwEMkngKTNjGoBcWggCYXMAL4RAvxoCgRzefPNNrL/++iEgaXSML774IrbYYovU5yCBkDriVDs45phjSkG08hxmPFWAajxtAqPNbMm0O6lV+yEIhH0A3FMrQD79VksgbLnllnjuued8hpa5sieccAL69OmT+rgkEFJHnHoHvNmw3Xbbpd6POhCBmATamhkj/ebOQhAIpwC4IgTycQQCry5+/vnnXtNj5MEff/zRq06WCjPhEY8XfObA3YYXXvDfSJJAmL3yvAGTdJIn5rgYP358KYDXyy+/jMcffxyjR4/G5MmT6TuU2CPHYErDhw/H3HPPnVibakgEEiSwlJmNSrC9zDQVgkDoCyCIMGtxBMJaa62FESNGYNy4cZEfCm63MkRxy5YtI9fJUsG33noLf/jDH7yGxN2G448/3qsOCycpEF555RV8+eWX3mOguOF5ehIWN1lTGgKhsflMnDgR++23XymmQVJ29dVXg7tOMhHIIIHVzIzJBHNnIQiEJwEE4QQSVyCcccYZ2GcfnqREt1NPPRWXX3559AoZKnnFFVfgtNNOizwivjl+++236NChQ+Q6dQWTFAjenadQIQSBUDdt7iQcfPDBeOCBByomseiii5Z2J5JMm13xoNSACMwmsImZvZpHGCEIhE8ArBwC/LgC4d133y1tAfskLOKP5pQpU8DEN6HZaqutho8/ji64ef583333gTc4fE0CYTaxau4gzLlG77zzDjbffPPS0UMl1q9fP/To0aOSJlRXBNIgsLOZPZZGw7VuMwSBQOeP1rUGFaX/uALhvffew0ILLVSKkuhj3MoN7QoYt+h5t93njJpe7HwTlUAAQtpBqP8sf/3119hoo40walT8o9rNNtsMvP0iE4GMETjOzNLJV1/jiWZaIIQUJInrWIlAOOecc3DRRRd5PQ58q95zzz296tS68A033FBKOuVj3FqmY6YEQrgCgev9xRdflK7nUtjGMfrcUGgwVbRMBDJE4Aozi35mmqGBNzeUrAuE5QAMbm4SWfn3SgQCPfrp2U8P/6i2wgoreN+AiNp2WuUYWpkhlqPaxhtvDDoH/vTTTxIICFsgcM3vueeekgNjXLvyyitx8sknx62ueiKQBoF7zczPiSyNUaTQZtYFwnoA3kph3qk0WYlA4ICWWGKJkjOej/GaWTUiEvqMqbGyjABJZ7Np06ZFbq7uB0ECYTayUI8Y6i/4zjvvjMcei3dkS3+UJG9HRH4QVVAEGifwhpnlMgVp1gUCo6Mkd1cq5Ue8UoGw7777YsCAAV6jfPvtt7Huuut61alV4Xvvvdf7tgadGVdZZRXtIJQXLQ8CYeDAgVhnnXUwa9Ys70exY8eOpWvBMhHIEIHhZpbMPeYMTYpDybpA2B/AvzLGrNHhVCoQ+GO4+uqreznw7b///vjXv8JAdNBBB+Guu+6KvJz1j1C0g5CfHQTO5E9/+hOeeeaZyM9C/YKMGRLnymuszlRJBJonMNPMwgxK08zcsi4QjgFwffPrk40SlQoEzsL3mIH3wum/0LZt22xAaGQUfFvk2x8dDqPa3/72N5x99tml4hII+RIId9xxR+lmShx79NFH8ec//zlOVdURgbQIzG9m4Ya3bYRK1gXCGQAuSWtFk243CYGwzTbb4Nlnn/UaGjPeMbZAlu3VV1/FJpts4jVERlxcbz26oUgg1IHLwxED5/LNN9+gU6dOXrtldQwuueQSMLiYTAQyRGBJM4v+9pOhgTc1lKwLhEsBnB4Iy4quOdbN8eGHH8Zuu+3mNeWLL74YZ555pledahfu2bMnrr8++mbQAgssgO+///7XQFDaQcjXDgJns+yyy+Krr77yfhQPP/xw3HTTTd71VEEEUiSwgpkFc+MuKoesC4QbAPwl6mRqXS6JHQTOgT+O9PiPaosttlhp6z7LKXHpW/HRRx9FnRLmDCUtgZA/gRDHKZcUdtllF1BIy0QgQwTWNrP3MzSeRIaSdYFAl/69E5lpFRpJSiBwK55b8j7GjJB06suiUbz4Brd57bXXSpH36kwCIX8C4bzzzsOFF17o/chKIHgjU4X0CWxsZq+l3011e8i6QOAVx2ASwSclEJi57qSTTvJ6EniTgTcasmh//etf0atXL6+hURDMO++8EghzUMuLDwKnxWOCI4880uu5YOHu3bvj9ttv966nCiKQIoEtzCx3ccCzLhB4D2qbFBc10aaTEgi8lcDcDDNmzIg8PqYUfv755yOXr2ZBpnamw2FUO/DAA3HnnXf+rrh2EPK3g3DLLbfESr50xBFH4J///GfUx0nlRKAaBHYws2Bi9kQFknWB8DaAMKIAVZiLYc4F8/1R5XVHRmFcZJFFoq59VcrxeiNzKPDNN6oxtDJDLNc3CQQJhLrn4ayzzvLOWxL12VM5EYhJYE8zqzyveczO06qWdYHwAYDV05p80u0mtYPAcfFLkNe5fCyL98O5E8AtYR9rKBCOBEL+BEKcozRSYMKvv/wlGN9ln0dfZcMlsLeZ3Rfu8BseedYFwhDehgoFepIC4bPPPsPKK6/sNfUsXv/i0YdPil46aL788sv/M28JhPwJhDgimBT+85//YOutt/b6bKhwNgjw2JQO1YMHD8bw4cPx3Xff4YcffvjdDmPr1q3Rvn37UmC1ZZZZBiuttBK6dOmS6VtaAA4xs9w5xkggJPi5SVIgcFj8YPDDFNWYtGnMmDGYe+65o1ZJvRyTM/FLIKo999xz2HLLLTMrEHj91CfjJteCqaqTsjw5Ke611164//77vdHwKI1Xe5M2JhHzOQpj/7ySzOO9ahlTZfvksJhnnnlqGmWVKb6feuop8FYSA7oNGTLEy7eqjisFw6qrrloKnLbtttuCLx6cW4ash5ndkqHxJDKUrAuEMQAWTWSmVWgkaYFwwgknoE+fPl4j59u3b8RCrw48CjMpz1prreVRAyUxsfDCC2dWIDBiJXNmRLVdd90VDz30UNTizZbLk0DgtVy+SfoYRTAzmKZhN998M7gL52P8AVx++eV9qlRU1je4FI9ieCRTTRs1ahT69+9fyrvywQc8JU7eKMyYNpzHlxtumIlEihIIyS9z0y065/hNsGC1+43bX9ICgW/Tvlup55xzTqy75XHn3FQ93zfEzp07Y9iwYQ1uJWbliEECIZknhX4mcRxq+QbpcyPGZ7QSCD60/rfsl19+iauuugp9+/b12uWorFeUXoiYt2XTTTettKlK6p9qZldW0kAW62Z9B6HQAoFb2dyi93lj4g8Yt/KyYL6Jp/jWwbeChkwCYTaVvOwgcFdl9913935Me/TogX79+nnXi1JBAiEKpf8tw89m7969wXgnPsdv8XprvBZfSBjOPY7wTGAsp5nZFQm0k6kmJBASXI6kdxA4tMMOOwy33nqr1yip5Lt27epVJ+nCkydPLp3P+nxh8Hx1/vnnl0BoYjHyIhCYyZEZHX3twQcf9M5VErUPCYSopH4rx+8apu7m31mwFi1alKLQ8pp4lUPPSyBU+wEo+hEDeT/wwAPYc889vdBzm+/EE0/0qpN0YUZO5BtFVKPDEX/8GnP40g7CbJJ5EAgMBMa3PDoF+hgja9LjvWXLlj7VIpeVQIiMqlSQjodbbbWV9zr69RKv9N1334199tmnmiJBAiHeUsWvJYEA8K2aURV9PJeZMvqZZxiEsnbGMU+YMCHyAC644AIwNn9jJoGQH4Fw9tlngxlIfY3JnfjFn5ZJIEQny6vL9I/y2SGM3noyJQcMGIC9965aKh8JhGSWLXorEgizWf35z3/G448/Hhlcq1atwB/UWl535Bh++eWXSGPmrkFzXzQSCPkQCBSN9E3x3T3g7BlKnNfb0jIJhGhkeUuBcQl8QsFHazn5UnMmfUu+h19blEBIEW6DTUsgzMbCREzMT+BjtUzexIiOzLgX1eh3wJ2SpkwCIR8CYfPNN8dLL70U9dH4tdwGG2yA119/PdUtYwmEaMvCzyuPiUIwXotlQKYkY5E0Mm8JhGo/EM65sQCylVygCQhpOCmyO179Y0QxH6NH77333utTJbGySy+9NL7++uvI7R166KFg4h4JhOaRheyDwBsIza1zYwTS3j1gvxIITT9/zrlSoKJ33323+Qe1kRLc1aR/FJ2vO3TogDZt2oC7jXQo5I4jd5bo4PzOO++AR1Gffvpp7L7qKh5//PG45pprKm6nmQYUByFtwnO275wrbKjl+iz4wVxzzTW9ri8yTOmIESOqvWSYMmWKV+Q2fjGMHj262ch42kEIeweBO2D0H/Dxpal7eA855JCSsEjbK10Coemvi08++aQUzTCOUQTwaiuPiCgKohojL/IFgjcT4hr7HjRokPdLlmd/EgiewCouLoHwG0Le7+3Zs6cXUwaUoeKvplHxr7LKKpG7pDf72LHcKGraJBDCFAgjR44Eo0nGfetcfPHFwR8mOr2mbRIIjROmvwGjOHK73teYmZXHjtzuj2N8Qfr73/+O0047DfzfcawKuwjKxRBnYSqp45wbCGCNStqoZt20jhg4B4b3ZRAkH6tFmFV6Dd93X/SkZjvssAOeeOKJZqclgRCWQGAI5QsvvLC0axDXmY1vftxq9n3um32YGikggdA4OcY5WG655bzRUhwwfXsSxuepqZtOTfVBx1g6V6ZoyuaYItwGm3bOvQ1g3Wr3G7e/NAUCz+f4kH///feRh8c3eZ+8AZEbbqQgjxfoDOSzjfzGG2+Ugpo0ZxII2RUIfKv75ptv8NFHH5XuxjPbYqXhkBnrgO3QqbFaJoHQOOk4ga3oY8Djw6RuU/E549VK+qPEMQoVCpaUbA8zezCltmvWbNYjKT4LYKua0fHsOE2BwKEwz8JFF10UeVT8YDK7Y9ytvcgdlQt+9dVXpW3IqMakTFEzPUogVCYQeH7v6+gaZR2nTp1aEq1xri021j4jcPJHYO21144yhMTKSCA0jJKOse3atfMS/myJyZoOOOCAxNaHDb399tulF4o4Rw1ML+7z/ek58B3M7N+edTJfPOsCgZf/d8w8xfIA0xYIzLGwxhp+Jy6XXXZZ6eyuGsYPH0VMVOPb4QsvvBCpuARCZQIhEuQMFNpoo43w2GOPVcXnYM7pSiA0/ADQwa9bt25eTwfTcTMtdxrGXQDuVPnajjvu6BVPxrP9Lc0s2peZZ8O1LJ51gcCwafvWEpBP32kLhDj5DXj74f333/eZRqyyDHTELwWfI5B77rmnFA41ikkg5FsgcDfpzDPPxP/93/9FeRxSKSOB0DBW37gmbGWzzTYDoy2mYXRYPOWUU7ybZur59957z7texAp/NLPXI5YNpljWBQITmf8lFJppCwRy2H///b3CzXK7ltkgG8txkBTboUOHeiWIihIcqf7YJBDyKRCYrZSOrVdffTWYaKeWJoHQMP0zzjgD3In0MToTMnx6Gvbyyy+XBIivMT4Lv6dSsjXN7IOU2q5Zs1kXCJcAOKNmdDw7roZAGDhwIKiEfeypp54qZVxL0+itTvES1Zi73SeingRCfgRC27ZtwS/rc889F8yvkBWTQGh4Jbbbbjs8/fTTXst02223gY6NaRjju3Tu3Nm7aV6ZpdNkSracmWUjpWWCE8y6QDgVwOUJzjfVpqohEJjNztfpMMmrRo0BpOOQj+d6nz59cNxxx0VeDwmEsAUCdwcYJOfUU0/FtttuG3ndq1lQAqFh2nQW9T2mZBRXRnNNw3yDsdWNIWWBsISZpeN0kQbEiG1mXSDweIHHDEFYNQQCQTCaGYPHRDWf2wJR26xfjqp8ySWXjFyVPxb8wW/dunXkOhIIYQsEXtG98sorSztZvP6WRZNASE4g8Fjikku4AZyOxYmqmbJAaGdmP6Uz29q1mnWBsB+A/rXD49dztQTCk08+CXrkRjV+mBitkEIhDeN9dZ+3wg033LCUeMfHJBDCFgj115rXbykOee2SPyT77cePee1NAiE5gbD66qvjgw/SO5JvLrlbQzOhHxava6ZhFkexpDGQhNvMukDYHsCTCc85teaqJRCYSY1Ofj52+OGH46abbvKpErls9+7dceedd0Yu36tXL5x//vmRy7OgBEJ+BMKcC0+xwDNlRsqjw2KtTAKhYfK8aeSb+I27hAzSttJKK9VqOavZ7wgz83eKqOYIY/aVdYHARAJvxZxb1atVSyAwUiEjFvIsLqrRb4G3GZI2joFt+wTKYdjWrl27eg1FAiG/AqH+g8CjqhNOOAEnn3xy1W81SCA0/JG8/PLLcfrpp3t9Xlm4S5cupUy0BbDXzCy1EI215Jd1gcAcx1/VEpBP39USCBxT7969S1+iUY2haxmuOWnjTQSfcLhxtx4lEIohEOqeT8b9/+c//1lybKyWSSA0TJrh0HksGMfovMz6Obf7zSwdj8wag8u6QOCB0aQaM4rcfTUFAn/smTaVAYqiWr9+/dCjR4+oxSOVY872iy++OFJZFmJUR9871awngVAsgcDZ8liXN12uuOIKMHFT2iaB0DBhXyfkOVtZd911SxFTueuZU7vMzIK5ju+zBpkWCJyIc46eofP6TKpWZaspEDjH9u3bw8dZh168zGiWlD8N46HT0ezrr7+OjPzNN9/E+uuvH7l8XUEJhMoEAh0D77jjDm/uc1bg8RZ9YLgevHLL54mJmoYMGQLm4ogTI7+5QfHmw4ABA8CgX2maBELDdLmmjMjKUO9xjQ7S9FNiTIUc2nFmdl0O54UQBMKnAPwCgddopaotEA477DDceuutXrPlF/u88yajt+ilzC+OqNapU6eSmIgjUCQQKhMI88wzD5hYKU1jUh8+E6+++mopzO5zzz3n5ZvS1NgYOY+frzRFggRC4yvge5TYWEuHHHJIKWGSz7XoNJ/ZhNreycyaz1mfUGfVbCYEgcAMWUHIzmoLBL650fvbJ73yO++8g3XWWSeRZ4z32hn4JqrR+YwhdeOYBEL2BcKc68pjMP7o8miLMfAr3V3g1V5+xtIKySyB0Pgnk+KSP+oTJkyI8/H9XR2KVYZhPuKII2qSlKviCfxvAxubmX/2qBQGknSTIQiEfzEe5eIAACAASURBVAA4OumJp9FetQUC57DIIotg3LhxkafD7VqGXk7CNtlkk9LbYlR75plnsM0220Qt/rtyEgjhCYT6C8gMjUzExKOISoze9JdeemklTTRaVwKhaayvvPIKGCI9KWNMAl5tPfDAAzMbPCviXFczs48jlg2qWAgC4SQ67YdAtRYCgV7evlnTkjhmoCihOIlqPNZgpke+PcQxCYSwBULdmjMeB+P0+zjX1n9eeBvn3XffBW/DJG0SCE0T5Q4Q03EnfSuBztaMjcLcDfSTCtCWMrNRAY672SGHIBB4feTeZmeSgQK1EAjPPvus91v54MGDwWtklRiDLh155JGRm6C/BL+A45oEQj4EAmfRt2/fUqyDuNdu00phLoEQ7dNJh0OftO7RWkUp4+wxxxyDs846CwzNHZC1MbN0HXxqBCMEgcC8nukkFk8Yei0EAqew0EILeZ0NJpGKdffdd8dDDz0UmSC3mHfaaafI5ecsKIGQH4HAmdx44404+uijY/slPPjgg9htt91iP08NVZRAiIaTfggdO3YEnVLTMu5U8PuFu5RxnJrTGlcD7X5jZh2r2F9VuwpBIKwA4POqUonZWa0EwnrrrQc6H0Y1bvPzw03FHtcY6pnX3aIar8RV4oEugZAvgcDZcBeBWT3jGEP4fvbZZ3GqNlpHAiE6Tl5p7datG6ZPnx69UoySSy21VMnPienBM2qPmdnOGR1bxcMKQSAEEyypVgKBb2NHHXWU18NAZ7Fll13Wq05d4SeeeMJrN2DnnXcueZ9XYhII+RMIFKn0jPeJ5VH3DPGtcvjw4aU32aRMAsGPJEUCfUEmT57sV9GzNNeaRw7cUYgTQ8WzO9/iF5iZX2IZ3x5qWD7zAoFsnHOjAWTee6VWAoEqnm/nPvfcGbSE3sNxzDc5E7lQJFRiEgj5EwicEY8K9thjj1iPBo8YWD8pk0DwJzlmzBj88Y9/BPOrpG3c8WQOF353bbDBBml3F7X9Xczs0aiFQysXikAIIhZCrQQCHzrfYwaWf+uteHmwuPPAt4eoNnLkSHCrsBKTQMinQKCoXWyxxTBpkn9Eddb79ttvK3msfldXAiEeSq4dQ2InEakzyggYB4MCgf35Jn2L0r5nmbXN7H3POsEUD0UgXAIg87GuaykQ6HjIO8U+xjC5vt7Cn3zyCVZbbbXIzmUMyvT2229X7GgkgZBPgcBZMXjWSSfxNrOf8cojjykYRjoJk0CIT5FXIB9++GEwUmIcsRenZ6YJ5y4oj1gr8aeK03e9OkubWfRY8xV2Vu3qoQiEPQHcV204vv3VUiCMGDGi5MjjE1WRvgQ77LCD1zT5Re4TDbF///7Yb7/9vPpoqLAEQn4FAq/drrACfZH9Lanniz1LIPjzn7PG2LFjce6555YycVbL6IfC/rbffvtqdVm/nwXMzH/7qxYjjdFnKAKBuUZfjzG/qlappUDgRFdddVXwDT+qHXTQQd7bgmuttRYGDhwYtQsMHTo0EQ9kCYT8CgQeMzCq3owZMyI/V3UFGX758ccf967XUAUJhEQwlhp57bXXwKiX/Lsaxh2EY489Fr179wZ3lqpkjDvdwcxclfqrejehCIQuAIZVnY5nh7UWCPyA/OMfjEwdzRjBjBER27ZtG6kCrzXyXvK0adMilecZMY8xktj+k0DIr0DgzBgCnKG4fY0xQJIK2iOB4Eu/6fLczWQWzvPPPx9ffPFFso030tqGG25YEox8LqpgD5tZssE4qjBony5CEQitAfAuTfyL+z5UYpattUCgWt944429Rs8sbVHjq/ueFbM877onYRII+RYIV111VSlXg69x5yGpM28JBF/60cvzCODvf/97VYTCoosuitdffz32Ne7os8IxZtbXo3xwRYMQCKTqnKOnaPTcwjVYiloLBE6ZtwX41h7VfKIqrrvuuqU4+FGNfhFJ3VOXQMi3QKAja5w77twFSyqinwRC1E92/HIM0c4Xh08//TR+IxFqUjgyg2ilIeWb6WoVM0t3IhHmmmaRkATCFQBOSRNGpW1nQSDQi/j222+PPBVeWaSTWHPhTOmlzG07RkSMYq1atSpFWuTfSZgEQr4FAn1V4lxZ4w2GpKL5SSAk8UmN1sajjz5ayrnAaJg+jtXRWp9disehH3/8MbijkJItYWbJ3bNNaZCVNBuSQPgTgGTyFFdCrIm6WRAIcQLP0LFx5ZVXbpKKb1IobhdzSzEpk0DIt0DgblPnzp29HxfeiY/j3NhQRxII3vgrrsCdIyZyGzRoUGLrWH9QPHJ9/vnnE7sKO8eE5zOzdMNIVky4sgZCEgjdAGR6OycLAoFvU8yTENWRkI/PNddcg+OPP77JJ2nzzTcH/RWiGq87+aSDbq5dCYR8CwQGPPKNyUEidICNmzp6zmdOAqG5T2F6/86w2byRwh2FpNazbrQXXHABeJSasI03sw4Jt5m55kISCFyMcZkjWG9AWRAIHM5ee+2F+++/PzKqLbfcEs8991yT5fljzxsPUY0CJanjBfYpgSCB0NCzJ4HQ9CfyL3/5C2644YaoH9ual+PnnPkdeOSUpCV13bremG40M78EOElOqEpthSQQONaJAJi8KZOWFYFAHwT6IkQ1fskyhSt3HhoyCgOe49EPIYox+BKDMCVpEggSCBIIKHnm+4Q5D00gcI35PcMdpbXXXjuxUNp8abr33nuT/ErawsxeTLLBLLYVjEAoPzh3AoiXYagK9LMiEHiLwTf3AeOaM3BSQ3bEEUegX79+kQkOGzYMXbowdEVyJoGQb4EQ1wdBOwhNf8ZCFAh1M6Lz4gsvvIBddtml4oyRDJ5EYdWpU6ekvpQWNLNoHttJ9ViDdkITCIyl+WQNOEXqMisCgYNlhjXeBY5qDIfMsLUNGW8vcIchijHoUhrpXyUQ8i0Q6CjLSKC+xi/+X375xbdag+Xlg5AIxsQbYSCsww8/vJTroRJL2HG6jZlNrWQ8IdQNTSBQ/g3PKtgsCQRGVGRkxajGIwSmbm3IeJUsqqc4YyXQMzlpk0DIt0Do06dPrKBa9HPxccht6rmUQEj6U5tcezx2oC8Fv9OiHnXO2fuaa66J999PJPEicy+0z3OI5Tp2oQkE+h9kNjFGlgQC7/8y66KPcTuPtxXqGzOlHXVUdF8cXofcaqutfLqNVFYCId8CwTcIV91Do0BJTX98Qj5iaGhmDz30EPbee+/ILyz12+CLzsSJE8FnpkK72sz8049W2GktqocmEDhehglcvBawmuszSwKB53fM7siz3ah29NFH/y6XA5U6dxai3l6Yb775SsGR0jAJhPwKhPHjx6NDh3g3xuhYyy/9JCyEHYRlllkG9PGJankTCJw3ozEeeeSRURH8rhxva/HWVoW2gpkNrrCNIKoHJRBI1Dl3MYAzs0g3SwKBfC688EKv+78MllQ/GyR9CfijH9W4Y/Hhhx9GLe5VTgIhvwLBNwhX/QenaMma2rdv7yWI8igQuP577rknHnjgAa/vEBZOID/MdDObx7vjQCuEKBCWB1Cd1GCei5o1geAb354e4QxYUncDgk6OdHaMan379vU6jojaLstJIORTIHCnixn43nrrLZ/H4deyzAL51FPJBFjN+g4Cg6DNM4/fb1MlAoFZGO+55x7vdeGVQr6cpGlMOc/U87526qmn4vLLL/etVr/8RDNrX0kDIdUNUSDwlTadfewKVy5rAmHKlCmlrVv+HdX4pdCrV69ScZ/oia1bty5l1eM5XxomgZBPgUBh8Ic//CH2I3Pdddd5OeM21VEcgfDRRx/Fun0RZ8IMR9ytGwPKRrdKBEKPHj1wyy23RO+sXPLggw/Gbbfd5l3PtwKPUL/++muvaryyzcySFdizZrZNBfWDqhqiQGgBgNdLWmaNdNYEAvn4xjDgl/Ubb7zh/cbOK2r8skzLJBDyJxB4PXGTTTbBm2++GeuxYYIxXoFbcMEFY9Wfs1IcgcBdNu6AVMMYHZVv5z5WiUDg2/aVV17p012p7M477wx+F6Zt3bt3x513MjROdKuER7mXXc0s/clFn1KqJYMTCKThnPsXgP1TJROj8SwKBN83NPocMObBl19+iZVWWikyhbPPPht/+9vfIpf3LSiBkD+BwLdTvqXGNZ7HR43PEaWPOAKBn3n+IFbDTj75ZPTu3durq0p+EM8880xceumlXv2xMG8x0a8kbWP+mGuvvdarmwq/p34xs2TS03qNunaFQxUImUzclEWBwC9QHjP43B2+++67S0GWon74+CbHNNCNhWpO4vGWQMiXQOBuE2PuV2IrrrhiKQtgUhZHIPAH+6STqnPjbb311sM777zjNd1KBAKTuJ144ole/bEwfQPee+8973q+FfbZZx/v8MlREtM1MY7RZrak7zhDLh+kQCBw5xyPGfw8dlJeqSwKBE55iy22wIsvRg8bvtFGG3lFYVxllVVKedfTNAmE/AgEZvpcbrnlKr4Sy2BgvJqblMURCNXaTufVRl5x9LVKBMJ9991Xijnga4sttlhiORSa6pu5GnwDHzGOwq677uo7pbryz5tZ8kFe4o6mCvVCFgjjASRz+JgQ6KwKBIoDioSoxh0Bnx2HY445Btdff33U5mOVk0DIh0AYPXp0KYAXfQcqsXnnnbfkFMubN0kZfzx23313r+bolMvrwGk559YNhkIoTlbGSgTCK6+8gk033dSLR11hxl/p2LFjrLpRKnHtecTk8z3FdocMGVJKeBXTCuV/QEYhCwT+Ih0Tc6FTqZZVgfDdd9+VAh6lZYydwBgKaZoEQvgCgT/AdCzjWlZqdAz0yTUSpb9///vfYCZSX0vbD4G3kPhWHicIWSUCIe6uBfmdcMIJpZgDadl//vMfbLvttl7N8wiUR6F8AYphvArWzsxmxqgbbJVYpLIwW+dc5vIyZFUgUGVTzTPLY9JGNU5VnrZJIIQrEH7++eeS9/0zzzwTK0RuQ88Wz+LXWWedRB87BvlaY401vNvccccd8fjjj3vXi1rhgAMOaDSRWnNtVCIQGKOCLxZxdns6d+7sfQWxubnU//c99tgDDz74oE8VVJgnZpCZ+d0x9RpdNgsHKxCI0zmXqWOGrAoEsqrUY7yxx/fQQw+NdVfa9+MggRCeQKCvATPoMQtfkhk+K/yib/TR840cWtcQ30hfeuml0pXNpI27Gkx3HDdjZSUCgXOJGwuBTJgi/rDDDksaSYk1j0x9jxfmDCXvObCbzexwzzrBFw9dIDA115pZWYUsCwRurSV1X7w+b271bb311qkvgQRC9gUCsyoyeiffphnz3tfjPspDRJ+D1157DRtssEGU4t5lOnXqhJEjR3rXo+c+4zkk6YvALX464lVylbNSgcAoldtvv703D1bglj53LekvkpQxLwxjtXz11VfeTVJYxPWpALC2mSWSCtJ74DWsELpAYMaOG2vI73ddZ1kgzJw5E4x2GDVtcxSmiyyySMlbOUlHscb6lUCoTCC0aNHCO8hOlGeAxwf8Afvmm29KicHivulG6Ytl9t13X/AablrG44Inn3wyVvN82+ZbcxLGkOf8IeTnqxLj8cRdd90VuwkeL9D/gd8fcYxXUT/99NNEviMoDribEsf3hEehgwcPjut/ULjrjXVrHbpAYFxfhl3OxHXHLAsELjjvayfpOFTpl4/PF44EQmUCwYd1Vsvy7f6DDz5IZSesbs4XX3wxGEwnrjF4Dz9jMR3hSt1yB4bXC31CpDc2XrYzYMCAuNMp1evZs2dFt5QYEvnpp5/GCiusEHscvInF40yfTJb1O2NuiHPOOSdu/0+b2XZxK4dcL2iBQPDOuc8ARA/5l+JqZV0gMC0us9/R+SgJ4xdPnHvScfqWQCi2QGCSIr7ZJ5Cqt8nHjzdyeA3T93y7fqNMcMZ4/743e/jjR4HCdMZJGW9lPPHEExU1N3ToUHTt2rWiNliZP9D8kY/aFteAuwV9+vQBw0zH/d7i0SqPJHgtMqYdYma3x6wbdLU8CIRrAByfhVXIukAgo3bt2iVyzYzHFdx+bNu2bVXQSyAUVyDwCOvGG2/E4YdXx0eMVyiZj6QS45HOQQcdVMqFwjwljUUZpWhnVMlbb721WWdfHq+8/PLLXreR6Mz3/PPPVzKVUt1DDjkEt9+ezG8kI0LyVgv9NvijXZdSnsdTvMrJWBkM1cwXkEr8L+omXWGKZ15vXNjMfq4YYoAN5EEgMOoF0z8nFzEl5kKGIBC222670nZfpcZoZLzXXi2TQCimQKA4YMbGJCMmNvfM9u/fHzw+S9KYhZHXMplKneKBPgYMR8zz+Si28MIL44svvihd1fNx0GOfSTiL8od6ySWXxNSpDGAbjq255pql+ZN5THvJzDaPWTf4asELBK6Ac24wgOVqvRohCASe4fJDU6kxnSvTulbLJBCKJxBatWpV2qqv5nNGytzK5g86f5CzYPxxo6hnEiQ62/kIBG7nM/FaEsZbGmndHklifHO2wd1NxraoIHIimzzTzPwzVqUxoRq0mReBcCt3wWrA73ddhiAQOGCeyfHaY1yjAxavgvGNolomgVAsgcCrcfxBYp6PWtirr76KzTbbLPa5d5Jj5g7KscceW2rSVyDwsz5+PMPFJGO9evUCHf4q8dFIZiRNt9KyZUswVHSFgsYBWNTMxlVjzFnsIy8CgWnhPqg14FAEAp2wKkmuxIAwPAutpkkgFEcg8Nycb8xJxhSI86xeeeWVOPXUU+NUTawOU6jXv1XhKxB4RBP3imJjk6CjIXcQs2wUl+uvv36lQ/yvmW1UaSMh18+FQOACZOGYIRSBUOkZK7d96XxVTZNAyL9A4H17ZudbfPHFK7ommNRzyaOGo446KtFbBT5ju+KKK0qRKOvHGfEVCOyP/gMVePA3OOSrrroKJ598ciZ3EnjrglcrE7CzzOySBNoJtok8CYQbAPyllisRikDgGwW/MOImzRk0aBAYAKWaJoGQX4HAgEB8I+U9+WoE3fJ5bhlYjLsIScYPidI/I1FyJ2XOeApxBAJ9FuKkim5unDzfp18EAxhlwZi8iSmqG7sxEmOMHc3smxj1clMlTwKB+0lv1nJlQhEIZMSkNPyA+xqFwWeffVb1NzwJhHwJBDoBnnLKKaUw3Uzsk2XjTgJjCey8886pD5Ni6YEHHijddmjI4giEd999txSyOQ3jNc1rr70W559/fuJHGVHHy+eHwiCBI4X6Xb5iZvFyXUcdeADlciMQyLrWQZNCEgg82zz33HO9H1FuLZ544one9SqtIIEQrkBgkCM6i/Ftk0GEuFPA7KKhGZNPXXDBBaWYDEmf65NJ3759mw0EFUcgMJ/Cn/70p1RxM9T2v/71L1x66aWJxC6IMlgGzWLwJfpE0SkxYTvazLgrXWjLm0D4G4D4cVIrfBR4p9k3mAhvAjB3erWNns2XXXaZd7f0pq7FGx8TAZ133nne4+VVJ3peJ2W9e/fGmDFjIjdHL/zu3btHLt9cQQaTqSBkbHPNx/53BuBi8KwOHTqUgnFxm5e5OpZYYolSLP9KQg/HHlRKFRnDgJH96Ivz+eefx+6Fz+Y+++xTej54YyIKI35mfW8lMKbD6qvTjzt9Y3hoJtN67LHHSnFSmJ8jKaPTKsUAo7dSbC63XGo32xlqlscLo5Mae6jt5E0gMOQyQy/LREAERCB1AkOGDCldxxw4cCAYppnhkpnBkFvv9W2BBRYo7ZrwiI7b/dwO32ijjRLNdJj6ZD074FVI+j/wKJPHkowrwf9PgU2/BTpPznldkrEvKDLpqMrcG9wx4XEUw1Yz8mKVIrc+ama7eE43l8VzJRC4Qs651wFsmMvV0qREQASCIcBdL2a7TCPNejAQmhkoBQJjsvCIgDtPGbFdzeyRjIylpsPIo0DgTYbCnx3V9KlS5yIgAiIQJgHmXFjCzCaFOfxkR51HgbAwAF5NaZUsKrUmAiIgAiKQcwK9zezknM8x8vRyJxDKxwxMO5acZ1hknCooAiIgAiIQMIG1zGxgwONPdOh5FQjMvvVCoqTUmAiIgAiIQJ4J8MpFFzNjDgYZgLwKBM7rWyba0CqLgAiIgAiIQAQC+5jZvRHKFaZILgVC+ZiByQL+WZiV1ERFQAREQAQqIbBIkTM3NgQuzwKBsUpHVvK0qK4IiIAIiEAhCNxuZocUYqYek8ytQCjvItwJ4EAPHioqAiIgAiJQPAJdzWxo8abd9IzzLhDWACCPVD31IiACIiACjREYBaCTmTHEsqwegbwLBGbwGELPVK26CIiACIiACDRAYFMze0Vk/pdArgVC+ZhhWwBPa/FFQAREQAREoAEC85jZdJEppkCYF8APABLPB6oHSgREQAREIGgCZ5iZf1rboKccffC530Eo7yIwdOaV0bGopAiIgAiIQM4JTDWzNjmfY0XTK4pA4C7CTxWRUmUREAEREIE8EXjIzHbP04SSnkshBEJ5F4ERsvZKGqDaEwEREAERCI7ANAALmRmzN8oaIVAkgdACwBQAc+tpEAEREAERKDSB/5rZRoUmEGHyhREI5V2E1wFsGIGLioiACIiACOSTwEwAy5rZ1/mcXnKzKppAmB/A97rRkNwDpJZEQAREIDAC75jZeoGNuSbDLZRAKO8ifAJg5ZrQVqciIAIiIAK1JrCWmSnCboRVKKJA6AiAW0tzReCjIiIgAiIgAvkh8IaZ6Zg54noWTiCUdxHeBLB+REYqJgIiIAIikA8C25jZs/mYSvqzKKpAWAkAjxq0i5D+M6YeREAERCALBLR74LkKhRQI5V2EFwBs7slLxUVABERABMIksLmZvRTm0Gsz6iILhNUBvKsbDbV58NSrCIiACFSRwPNmtlUV+8tFV4UVCOVdhEcB/DkXK6lJiIAIiIAINEZgYzN7TXj8CBRdIKwI4CNFV/R7aFRaBERABAIi8LCZ7RbQeDMz1EILhPIuws0ADsvMimggIiACIiACSRGYBWAdxT2Ih1MCwblOAAYBaBsPoWqJgAiIgAhklMBNZnZkRseW+WEVXiCUdxEuBHBO5ldLAxQBERABEYhKYDqAlcxsaNQKKvd7AhIIAJxzzNEwHMACekBEQAREQARyQeA8M+PLnywmAQmEMjjn3MEAbovJUdVEQAREQASyQ4C7B4ua2cTsDCm8kUgg/CYQGFWRORqYq0EmAiIgAiIQLoFdzIzX2GUVEJBAqAfPObcJgJcr4KmqIiACIiACtSUwGkBnM5tR22GE37sEwu8FAncRHgSwS/hLqxmIgAiIQCEJrGxmnxVy5glPWgJhDqDOuc7lo4aEUas5ERABERCBlAk8DGAPM2P8A1mFBCQQGgDonDsZwJUVslV1ERABERCB6hJoL8fE5IBLIDQsENoAGAWgfXKo1ZIIiIAIiECKBA43M0bGlSVEQAKhEZDOuXUBvJ0QZzUjAiIgAiKQHoGvzWzp9JovZssSCI0LBLL5DwClCC3mZ0OzFgERCIMAYx6samaDwxhuOKOUQGhirZxzvNXwo/I0hPNAa6QiIAKFI3CnmXUv3KyrMGEJhGYgO+cOBdAPAMWCTAREQAREIDsERpnZUtkZTr5GIoEQYT2dc+8BWCtCURURAREQARGoDoGZAHY1s8er013xepFAiLDmzrl5AYzVUUMEWCoiAiIgAtUh8IiZ7VqdrorZiwRCxHV3zp0F4KKIxVVMBERABEQgPQLjACxpZr+k14ValkDweAacc28BWM+jioqKgAiIgAgkT2AfM7s3+WbVYn0CEggez4NzblEAQ3XU4AFNRUVABEQgWQL9zeyAZJtUaw0RkEDwfC6cc8cB6ONZTcVFQAREQAQqJ0BfsGXN7KfKm1ILzRGQQGiO0Bz/Xo6NwDzjO3pWVXEREAEREIHKCGxrZgxgJ6sCAQmEGJCdc4sD+BhAhxjVVUUEREAERMCfwJVmdqp/NdWIS0ACISY55xyv1zwUs7qqiYAIiIAIRCfAF7INdbQQHVgSJSUQKqDonLsWQM8KmlBVERABERCBpgnMArCamX0qUNUlIIFQAW/n3HwA3gSwcgXNqKoIiIAIiEDjBA4zs1sFqPoEJBAqZO6c6wZgIIBWFTal6iIgAiIgAr8n8AiAPcyMYZVlVSYggZAAcOfcvgDuTqApNSECIiACIjCbwPcAljEzZtSV1YCABEIC0J1z5DgAwF4JNKcmREAERKDoBByALmY2ouggajl/CYSE6Dvn2gAYBoDRFmUiIAIiIALxCFAc9JDfQTx4SdaSQEiQpnOuHYAJAFok2KyaEgEREIEiEXjBzLYs0oSzOlcJhIRXxjm3BoD3AYhtwmzVnAiIQO4JjDazJXM/y0AmqB+xFBbKOXcZgNNSaFpNioAIiEBeCUwCsJSCIWVneSUQUliLstPifwH8IYXm1aQIiIAI5I0ArzFuYWav5G1iIc9HAiGl1Ss7LX5GT9yUulCzIiACIpAXAmeYGXdeZRkiIIGQ4mI45ygO6I+wYIrdqGkREAERCJlAfwAHmhlvL8gyREACIeXFcM5tDeAJRVpMGbSaFwERCJHAqwC2MbOpIQ4+72OWQKjCCjvnjgPQpwpdqQsREAERCIXAlwA2MbPRoQy4aOOUQKjSijvnrgZwQpW6UzciIAIikGUCEwFsZmYfZHmQRR+bBEKVnoDyzYaHAOxSpS7VjQiIgAhkkcAMANuZ2XNZHJzG9BsBCYQqPg3lmw28xrNOFbtVVyIgAiKQJQIHmBkdE2UZJyCBUOUFcs4tAuA9AB2r3LW6EwEREIFaEzjLzC6p9SDUfzQCEgjROCVaqnz98SMAzN0gEwEREIEiELgDwCG6zhjOUksg1GitnHPLAfgUwNw1GoK6FQEREIFqEXi9fGNhVrU6VD+VE5BAqJxh7BaccysBYLRFmQiIgAjklcC3PFI1M4ZTlgVEQAKhxovlnFsPwFs1Hoa6FwEREIE0CDDGQSeJgzTQpt+mBEL6jJvtoRxt8WkAczVbWAVEQAREIAwCFAddLUiL/gAACxtJREFUFSUxjMVqaJQSCBlZO+dcdwC3AdCaZGRNNAwREIHYBEYAWN3MfojdgirWnIB+jGq+BL8NwDl3BIAbtJOQoUXRUERABHwJfA1gIzMb5VtR5bNFQAIhW+sB59wZAC7WTkLGFkbDEQERiELgKwCbmxl3EGSBE5BAyOACOufOBnChREIGF0dDEgERaIzAkHJmxmFClA8CEggZXUfn3DkA/iqRkNEF0rBEQATqE5A4yOHzIIGQ4UV1zjH7Y2/5JGR4kTQ0ERABHitsZWbaOcjZsyCBkPEFdc71BMBU0S0yPlQNTwREoHgEPgewtZmNLN7U8z9jCYQA1tg5tz+A2wG0DGC4GqIIiEAxCPBYYUMzG1eM6RZvlhIIgay5c24HAA8rd0MgC6ZhikC+CVAcrGVmP+V7msWenQRCQOvvnFsbwBsSCQEtmoYqAvkjwPwxa5jZL/mbmmZUn4AEQmDPg3OuIwDdMQ5s3TRcEcgJgVcBbGZmysqYkwVtahoSCAEusnNuYQDfBTh0DVkERCBcAv0AHGlmLtwpaOQ+BCQQfGhlqKxzrh0AngMumqFhaSgiIAL5I0BBcKKZ9cnf1DQj7SDk9BlwzrUG8Dw9iXM6RU1LBESgtgSmA9jHzOggLSsYAe0gBL7gzjnGR2CCp8MDn4qGLwIikC0CEwDsaGb/zdawNJpqEZBAqBbplPtxzv0fgMsVUCll0GpeBIpB4AsAfzYz/i0rKAEJhBwtvHNuNwC3AZg/R9PSVERABKpL4BkABygAUnWhZ7E3CYQsrkoFY3LOrQXgfgBdK2hGVUVABIpJoG/ZIZG+B7KCE5BAyOED4JxbpCwSNs3h9DQlERCB5Akw6NEJZkaBIBOBEgEJhJw+CM455m3gh13OizldY01LBBIiMBbATmb2dkLtqZmcEJBAyMlCNjaNcqInBjhpk/OpanoiIAL+BD4BsJGZTfKvqhp5JyCBkPcVBuCc6wzgXQCMwCgTAREQAQY/egjAXgqbrIehMQISCAV5NspHDu8DWLUgU9Y0RUAEGiYwDcDuZvakAIlAUwQkEAr2fDjnjgdwtfxPCrbwmq4IzCZAf4NlzOxnARGB5ghIIDRHKIf/7pzrAmAggPY5nJ6mJAIi0DCBuwD0MDNdYdQTEomABEIkTPkrVE721J/ey/mbnWYkAiJQj8BUAHsA+LcyMeq58CEggeBDK2dlnXNzMRFLOfpiq5xNT9MRAREAXi8nWxopGCLgS0ACwZdYDss755YDwO3HP+RwepqSCBSVwCkArjMzOiXKRMCbgASCN7J8ViinjmbCpwsBcGdBJgIiECaBQQAONDNebZaJQGwCEgix0eWzonNuPQA3A1gtnzPUrEQg1wSuBNBLtxRyvcZVm5wEQtVQh9NReTfhrwBODWfUGqkIFJrAlwC6mxl9DmQikAgBCYREMOazEefcGmXfBAVXyucSa1bhE2CSpX5mdkz4U9EMskZAAiFrK5LB8TjnrgDQE0DrDA5PQxKBohL4CMDBZsYIqTIRSJyABELiSPPZoHNuCQCPAFhXURjzucaaVTAEfmI0VDM7N5gRa6BBEpBACHLZajdo59xhAHoDWKB2o1DPIlBIArMAvAFgFzMbV0gCmnRVCUggVBV3PjorB1i6l19UAFrmY1aahQhkmgDTMTPz4jOZHqUGlysCEgi5Ws7qTqac0+G/AHj8IBMBEUiHwOVmdno6TatVEWicgASCno6KCJTTSG8H4GEALSpqTJVFQATqE+Bxws5m9p2wiEAtCEgg1IJ6Dvt0zs0H4GQA5+dwepqSCFSTAI8TNgLwmZnR70AmAjUhIIFQE+z57dQ51xkAr0Xund9ZamYikAqBnxkiGcBjZjYjlR7UqAh4EJBA8IClotEJOOfWAnAtgD9Gr6WSIlBIAlMAnAfgJjObWEgCmnQmCUggZHJZ8jMo59xWAP4OgFEZZSIgAr8RmA7gmnJMg1ECIwJZIyCBkLUVyeF4nHN8zvZkEhkAq+RwipqSCPgQmMnwyDyKMzPmUJCJQCYJSCBkclnyOahy/IT9APDKlrJF5nOZNavGCVAY9GdKdTMbLFAikHUCEghZX6Ecjq8sFPYHcJqEQg4XWFOakwCPEngN+HQzGyY8IhAKAQmEUFYqh+MsHz3sWnbQWjOHU9SUik2AtxIeA3C0mU0oNgrNPkQCEgghrloOx+yc2wTAVWVnRoVvzuEaF2hKzJNwP4ATzIy7BzIRCJKABEKQy5bfQTvnliyf064PoE1+Z6qZ5YyAA/AtRa6ZMQ6ITASCJyCBEPwS5nMCzjmGbeYVsEMAzJvPWWpWOSBAx8PhfE7N7OUczEdTEIFfCUgg6GHIPAHn3PYA7laK6cwvVdEG+DiAg8zsh6JNXPMtBgEJhGKsc/CzLO8o8PihDwA6NspEoBYEuGNwKIAHzIxOiDIRyC0BCYTcLm1+J+acWwjA5gBuBTB/fmeqmWWEAP0LHgJwCoCRZvZLRsalYYhAqgQkEFLFq8bTJFCOp7AigKPKf1ql2Z/aLhwBBjM6C8DLZja2cLPXhAtPQAKh8I9APgA457iTsAGAYwDsDEDPdj6WttqzoBC4GsCjAD41M+4eyESgkAT0JVrIZc/3pJ1ziwPYBsDBAJgsSiYCTRFgECMeVz0I4C0dIehhEYHZBCQQ9CTkmoBzrhOAnQDsIbGQ66X2ndz35Xgbj5SPEORX4EtQ5XNPQAIh90usCdYRcM51ALB7WTBwZ0HxFYrzePCo4HMAT9Ph0MxeKs7UNVMRiEdAAiEeN9UKnIBzjuGcdyynod4QQFftqAW+qP87/MkA3gfwHONomBkFgkwERCAiAQmEiKBULN8EnHPLAjiw7LvQDQCvUsrCIjALwJcAPgQwgImSzGxqWFPQaEUgOwQkELKzFhpJRgiUs0yuB+BwABsB6KgojhlZnN8Pg0GLmP+AKZTvAXCHmU3K5Eg1KBEIkIAEQoCLpiFXn4Bzbo2yYNgOAH0ZFgAwV/VHUugeuRvAGwfcJbiTf8xsSqGJaPIikCIBCYQU4arp/BJwztHBce/yVUqKh9YA5pEfQ2JrPgPANAATAfCmwc1m9m5irashERCBZglIIDSLSAVEIBoB5xxFAq9T0peBOw0yPwLjANxV/vOeghT5wVNpEUiagARC0kTVnggAKIeBZuhn7iosBWDbsmjYFECbgkMaWr5u+BSAVwBM526BAhQV/KnQ9DNHQAIhc0uiAeWZQNkBsm05BgP/pnhYB8C65T8r5eCYgn4CvEnwDoA3AXwE4EcAzH442cwoCGQiIAIZJyCBkPEF0vCKRaC88zAfAP6hn0Pd/+5Svk3RGcAyABhOuu5P2pD4487bAt8AGMWMhgBGAxgCgLkLGG+AP/4sRwEgx8G0V0Tti0AVCEggVAGyuhCBNAk453hkMTcAHmnQD4K3K+qOMfjf+acp4w86Iw3SMZBv9ww7zD/871PNjPEFZCIgAgUjIIFQsAXXdEVABERABEQgCgEJhCiUVEYEREAEREAECkZAAqFgC67pioAIiIAIiEAUAhIIUSipjAiIgAiIgAgUjIAEQsEWXNMVAREQAREQgSgEJBCiUFIZERABERABESgYAQmEgi24pisCIiACIiACUQhIIEShpDIiIAIiIAIiUDACEggFW3BNVwREQAREQASiEJBAiEJJZURABERABESgYAQkEAq24JquCIiACIiACEQhIIEQhZLKiIAIiIAIiEDBCEggFGzBNV0REAEREAERiEJAAiEKJZURAREQAREQgYIRkEAo2IJruiIgAiIgAiIQhcD/A6aMqudlmPo0AAAAAElFTkSuQmCC;" vertex="1" parent="1">
          <mxGeometry x="170" y="223" width="100" height="100" as="geometry" />
        </mxCell>
        <mxCell id="i7WmX-7RhP07Q_WVPCmK-1003" value="" style="shape=image;verticalLabelPosition=bottom;labelBackgroundColor=#ffffff;verticalAlign=top;aspect=fixed;imageAspect=0;image=data:image/png,iVBORw0KGgoAAAANSUhEUgAABkEAAADrCAYAAADexTGOAAAAAXNSR0IArs4c6QAAAARnQU1BAACxjwv8YQUAAAAJcEhZcwAADsMAAA7DAcdvqGQAAP+lSURBVHhe7J0HmNzWdbZlO3ESOY4T27HjxO13bMu2bDXb6p0SSVHsFKtIUaLYuyh2sffee++99957L7vkLpdt2bnsvUk5/3x3gSUGcwBcTNvZ3fM+z/dY5s69wGAwGOB895zzBAmCIAiCIAiCIAiCIAiCIAiCIORCxAQRBEEQBEEQBEEQBEEQBEEQBCFXIiaIIAiCIAiCIAiCIAiCIAiCIAi5EjFBBEEQBEEQBEEQBEEQBEEQBEHIlYgJIgiCIAiCIAiCIAiCIAiCIAhCrkRMEEEQBEEQBEEQBEEQBEEQBEEQciViggiCIAiCIAiCIAiCIAiCIAiCkCsRE0QQBEEQBEEQBEEQBEEQBEEQhFyJmCCCIAiCIAiCIAiCIAiCIAiCIORKxAQRBEEQBEEQBEEQBEEQBEEQBCFXIiaIIAiCIAiCIAiCIAiCIAiCIAi5EjFBBEEQBEEQBEEQBEEQBEEQBEHIlYgJIgiCIAiCIAiCIAiCIAiCIAhCrkRMEEEQBEEQBEEQBEEQBEEQBEEQciViggiCIAiCIAiCIAiCIAiCIAiCkCsRE0QQBEEQBEEQBEEQBEEQBEEQhFyJmCCCIAiCIAiCIAiCIAiCIAiCIORKxAQRBEEQBEEQBEEQBEEQBEEQBCFXIiaIIAiCIAiCIAiCIAiCIAiCIAi5EjFBBEEQBEEQBEEQBEEQBEEQBEHIlYgJIgiCIAiCIAiCIAiCIAiCIAhCrkRMEEEQBEEQBEEQBEEQBEEQBEEQciVigggh/N///V+QvvnmG0d9/fXX7L+bss8lCIIgCIIgCIIgCIIgCIIgCPFCTJA8imlKmGYFzIx4ijNKBEEQBEEQBEEQBEEQBEEQBCGaiAmSB8huw8OPxBgRBEEQBEEQBEEQBEEQBEEQooWYILkU0/TgjAYdPXz4MEj3798PS/Z5uG15yTRFBEEQBEEQBEEQBEEQBEEQBMEPYoLkEszMCT/Gh2lMWE2Le/fuZenu3Tshun3rtpa4sda5OZOE20e7rJkigiAIgiAIgiAIgiAIgiAIguCGmCA5GNP00DU+rIaH3eiwGhg3b94M0o3r1yOSfT7OKOHMEe49WGWaIWKICIIgCIIgCIIgCIIgCIIgCBxiguQwzKA/ZwrYZTc97IaHaUqYZsW1a9eydOXq1RBdvnzJl+zjrfNzJondHPFjioghIgiCIAiCIAiCIAiCIAiCINgREySHgOC+V8YHjALT+LCbHk6Gh2lQWM2LjIyMLF28eDFEF86fdxU3xjqndVt2g4QzRuymiPk+uWMAmYaIIAiCIAiCIAiCIAiCIAiCkLcREyTB8TI/OOPDzKgwTQ8nw8NudFiNjHNnz2bpzJkzEck6l3UbdoOEM0aspoj5vuyGCHdcIDFDBEEQBEEQBEEQBEEQBEEQ8jZigiQgulkfduPDzJ4wjQ+r6WE1POxGh9WwOH36dJZOpacH6cSJE75kH2+d28kg4YwRuylivk8/hoiYIYIgCIIgCIIgCIIgCIIgCHkPMUESCJ2sDx3jw8yocDM97EaH1bw4fvx4lk4eP8bqGCPudaasc3ImidUcsZoipjFiGiKmKWI1RPxkiIgZIgiCIAiCIAiCIAiCIAiCkHcQEyRBQHCeC9pDTuaH3fgwsydM48PJ9LCbHaZRYTU00lLTgpVyODzZ5uEME84ccTJFuCwRuyEiZoggCIIgCIIgCIIgCIIgCIIAxATJZnTNDyfjwzQ/rMaHm+lhNzyyDArDtEg9fChLh5OTQ5V0UE+2cdZ5OZPEbo5wpgjel2mK2DNExAwRBEEQBEEQBEEQBEEQBEEQ7IgJkk0g+O5U+so0P7yyPryMD7vp4WR4ZJkVFhPjUED427G0NDX+zOlTaluXYDpcMoyHy5fp6pXL6n+VIRP490sZ2KdzdObUKTqhtplCKYF5MB9k3YbdILEaI1ZTxJopwmWJ6BgibmaINFAXBEEQBEEQBEEQBEEQBEHInYgJEmdiZX7YjQ/TRLCbHnbDAwZFemAc5rt+/RrduX2bHjx4oPYxmmC+B4H3djsw/7XAezl/7hwdP3aUUg4lB5sjFmPEboqYho7dEBEzRBAEQRAEQRAEQRAEQRAEQeAQEySOIMBuD7xDpvnhVPYqXOPDbnrAcDgZeC0MiOuBuWFKZDc4JvcD7xvGCN7bsaNpgf1NemyM2E0Rn4ZIOGaIGCGCIAiCIAiCIAiCIAiCIAi5AzFB4oBT9kc0zY8Q48MwEY6mHQmMP6cyPHJKcB/7eevWLfWe8X50DBGd7BC7GWLtGWL/bCQrRBAEQRAEQRAEQRAEQRAEIecjJkiMQSDdHmCHYIAgAI9AvK75oWt8nDh2TPXuQHA/N3D37l26GDgWR48c0TZEdDNDYD6ZZohkhQiCIAiCIAiCIAiCIAiCIOQuxASJEQieu2V/WPt+mOYHAvR280M36wNNyK9euUKPAvPnZtCv5HJGBh09khpkiLhlh3iZIWaJLHwmXIksyQoRBEEQBEEQBEEQBEEQBEHImYgJEgOcsj+40lem+YHsD93Mj6ysj+QkOnvmNN27e9fYcvzAe7xz9x5dunqdLgd0V5kHj+jRo6+NV8QelPg6dfIkJR3Yn2mI+DRDcMxNM8ReIkuyQgRBEARBEARBEARBEARBEHI+YoJEGZ3sD7P0lWl+IDPBy/ywZn2kpabSpUsZau5ocvfefUo6cowWrd1My9ZvpQ3b9wS28Y3x11AeBN7XV72H0cgpc+mV0tWoVJ0W9MeC5WnW4tW0euMOmjR3KW3euY92HzhM+w4doSXrttCug4fp/oMHxgzRAccX5bLQ+N2aHaJTJgvH3t4vxC0rRIwQQRAEQRAEQRAEQRAEQRCEnIOYIFECwXEnA8Qp+8MsfWWaHwjQu5kf6SdOBOa4EZVA/L3792n7/kPKmFi5cTt1GDCKStdtSSVqNaMCnzagX79Tkn749wJ05Hi6MYLn1u071LbfCPrv14pQyx5DaMTkOfR5885KbfuOoB7DJlCngaOpWssu9L/5PqInfv8q/eOf3qDni1Wmal91o+mLV1HaydP06NEjY8bwwXG5fu0aHTua5mqGwGQyzRCuRJZXVoiUxxIEQRAEQRAEQRAEQRAEQcgZiAkSBRAQtwbJTbllf1hLX5l9P6zmh7Xs1YljR+n27dvG1sIDpaqWb9xGddr3oueKVqZ/+OMb9LNXC9NT+cvSP//5bfW/r5apTm+Uq6lMjY8btaVStZvTe5Xr0arNO41ZeM5cyKCP6rag18vVoDpte9LbH9emioHxlZu0V+ZKhS/aUL5KdZUJ8tNXPqTv/PF1ZYZY9U9Pv0Uvlvqcvuw6gDbs3KuMhki4eeNG4DimOJohZoksHHunrBCzVwiMEHyW9s9XjBBBEARBEARBEARBEARBEITERkyQCOEMEDP7AwaIV/aHtfSVaX6o7I+kg6r5N8aGy41bt2naopVUrmFr+rfn3wsyHV4sWYWadh1ILXsOUVkbDTr0oacKlKNfvV2CfvDC+1mve/KZd+knLxeiHfsPGbPyXLl6jVZv3EYtegxW4/J9Uo9Wrd9KwybNpsqN29OgcdNpxsIVtHXnPtq4dTfV+Kpr1jY4/edLheiz5p1o/qoNdO9+eOWz8NmgWXzKoUNZZoi1ZwhXIsstK0TKYwmCIAiCIAiCIAiCIAiCIOQsxASJADcDxCx/hYwCBNPtvT9Csj9M8yM5mVID/33l8uWwAuzXb96iYVPnUoEqDem7T7/JGgzNuw+ijdv2KM1fvo5a9RpGA8ZMo5Xrt9KnTTpS+34jA68ZTFPmLaM/F/qYBo+fQf/9ehFK9SiN1axnpgECdRw4Whke6zbvpNL1WtLiVRtp2879QZq/bC0NmziL6rbtSd966rWgfbTqyWfeoeK1m9GsZWvoUeAY+wVZJRmBYw8jRJkhOMaGGWIvkeWWFeJUHkuMEEEQBEEQBEEQBEEQBEEQhMRETJAw4fp/IFPANEC48lf27A976auU5CS6eOECfROYyy8HU49RzTY96HvPvssaCaaKVm+SZYB0Gzpe9e1YsW4LLVi+jjZv36u0ZUemVm3YSktWb1T/3XHAKPrNux/RhUtXjC2GgmNSrGZTtZ1vP/UavVa2Bi1fs1mZHdPmL39sgOw6EKIBY6fTVz2H0Bvla6qSWfb9NvXfrxWl2cvW0LUbN42t6oO+I+cCn0HSgf0hJbLsWSFmrxB8dvgMvcpjiREiCIIgCIIgCIIgCIIgCIKQeIgJEgZOBoi1/4e1/JVn9kcS+n4cU3P4AUF9ZEe8XbEOaxhw+viLtlSsRhNllsCo+HvJKvTJl+2pXrte1Kz7QOo6eCxt3LZbZXHYNWraPBo0caZ6v048ePCQ3q1UL2t7//KXd+jXb5ek/J82UIZLl8HjqFbr7lS5SQdViuuN8rWo86CxNGfpmixDZMuOfdRv9FQqWOWLoH23CvteIzBP2olTvg2IO3fukLVfiFtWCFceC5+xWR7Leg5E2sdEEARBEARBEARBEARBEARBiC5igvjEboCgNJJpgFj7f1jLXyGzAEF1e+8PM/vjUuC1fgL5KHnVachY+vkbxViDwKpfvFlcNT3n/gZ9//n3qHGX/ln9OuxCOSuUz9qwZZfq5YHeHh0GjTH2hOfKtRtUtn4rNf+HVb+kH734gfrvKs06BebcT236jKDninyi/t0sg/W9Z/PR2OkLaM3GHbRj90GlNZt2UNEaTekJvMaUsd/QL98qQZPmLKWJc5bQkePpvkwIvPZ84LPRzQqxlsey9wmxng9ihAiCIAiCIAiCIAiCIAiCICQOYoL4wMsAsfb/QAaBaYAElb+yZH8cP3pUlVbSBVkWfcdOox+9WDDIDLDqf14vqoyHOm170sBxM2jTtj2q3FXJ2s2p6+Bx1HXIOGrUqR+9VaEW/fKt4vTjFz+gZwpXpNfL1qCp85fR2BkLqG3f4So7ZM3G7VklrJav3UJNug6kF4p/Sv/6XD6VgeLGhYzL1D+wrzv2HFTbgYHRrv9I9f+hxl0H0BN/eJ2+h4btgf994o9v0J+LVKIfvfIhVW7akbbu2q9et2L9Vnq+RBX1dyW81qJvBVSmfiv67p/fotZ9hlPGpau+DKU7t2/TkcBnEtQrJDVNfVb4zPDZ2ctj4TO29gnBOWDtEyJGiCAIgiAIgiAIgiAIgiAIQmIgJogmnAECA8NqgNj7f3DlrxBoP5ycRBkXL2gH6/G69NPnVBNzNCnvPHCMys7oNmQc9Rs9hb7o1Jc69B9Fcxavpqnzl9PMRauU+WH2+LD3+oCs2R5T5i6l//hbfvrffB/Rm+Vr0d9KfKaaqjfrNiiob4epleu30eqN2wPv3d3AOXbyNO3cm0Sjps+n8l+0peXrtqj/D63dvJOK1m5OT/zpzSz9tkB5+tGrhem7z75L5b9sl/VamCFjZiygpj0GU5Fazegfn3n38TjTHAno31/8gKYvXEn7k1Pp2vUbxl54g8/W2iuEK48FI8Qsj4XP2NonRIwQQRAEQRAEQRAEQRAEQRCExERMEA2cDBD0hrAaICiZZDVArOWvVPYHSi6lptC9u3eNmb25eu0G7d6XTOs371RCWSqrUKJKyWh2DvPDboA4mR9QVrNyU4bRgT4dGwLz4r/N8lRKRiYHdODQkcDxcA72fx04bgeSj9CuvclKm7fvo02B/cGcDTr1o1+/X5aeePoteuLPb4fo314qRNt2H8gyQqCFKzeoDJGVG7bRsMlzqHjdlpnjn35T6duB/+43ZlrWvianHKNbt+8Ye+PNrcBnCYPKzAqxlsey9wnhjBCcE2KECIIgCIIgCIIgCIIgCIIgJA5ignjgxwCxNkDPKn9lGiBJB+lk4N/QzFyHe/cfKAPBND/sBojd/DANkLDMD8P4sIozPUxZjYmjJ04Ze8xz+ep1qt66B7XtP4o+btyBflOwPP32gwr0nWfz0RN/eSdTyOxgNHzqvCwDBeo7djr9/L0y1HbAaGWQNOwywJjj7Uz9+W36h8C83YdPfLy/gfdwLLCPusf9wYMHlJZiNE23lMey9gkxjRCzYboYIYIgCIIgCIIgCIIgCIIgCImJmCAuuBkgaI5tN0CsDdDt/T/OnjmtXf7q/IVLytTQNUDcSl+FZX5YDA/IanpAVmMCQv8PN46nn6ElqzfRE8++S2W/bKf2Y9iUufSfb5UM/Fs++s5zj/X9lwvRS+VrUYHqjWnkNJggwdubu2wdlazfin7zwcf08sd11HjMq2SYJ//6UiEaNHFW0HvYc+CwyqrR4ZvAZ51+4kSmERKQaYSYfUJMI8RsmC5GiCAIgiAIiUbG8b10PnVblLSdLhzZQReP7qKMY3vo0smDdDMjnR7eu21sTRAEQRAEQRAEIXERE8QBvxkgXAN01f8j6SBduexuEpjcf/BAlZjyY344ZX/4MT+4rA8v48Oq3YG/37rlXHbqRuCY/eL9MvSd5/NRtTY91P5876VCVOWrblSlZVf67vPvZSl/1Ua0ffcBmrFoJX3+VVfqMWJSYB/3B7aDfUiizYH3tiPwdzRM/w0ySgJjMG+WnoMpkqnyTTrQ3OXrVNaI+b7Qp+ThQ++sEBhWyPbg+oSYRojZMJ0zQuw9Qvw0a88JZFy5Sss3bqP+46ZT12HjqW3/kUqdBo9VBtfitZvpQMpRuhn47AV9cG4eSjtBs5etVed++4GjqU2/EdR5yDgaNHEmrd22W2VXCdHhwYOHtDc5lcbOWqSOd8dBY9Tx7jBoNPUaNZmmL15FW/YcoNPnL+a677AgxArz96HfuGnUZejj3wf897jZi2nN1l10NP20LBCIA4t7lKYFnYvSgi7FoqTiwQrMPbfDBzS3fUFa1L0UrRhYhTaMa0LJq8dRxvF99PWjB8aeCIIgCIIgCIIgZC9igjAg2BUNAwSB89u3bhmzuoNsChgafgwQzvywGyCe5kdYxkemIWHV/qQUdaycWLB2M333hfeV3qxYl558IT/9+NUi9PsPKtCTf80fpFc/rk2/fK8MPfm3Akq/KVCOWvQaqrYzfeEKKlXvKypRtyW9X+UL+v7fCqq5zLlNM8VqjnQZNiHofe09eJj2HU4z9syda1evUvLBA8oIMfuE+DFCrOdRTg6iwsiC4VG4WmP6n9eL0BO/e0VL3wrouaKfUP2OfWjO8nV09959Y8bwOH7qLG3fl5ytQtA8msE7BAwHjJ9BL330Of3DH15nj6Nd+AwqNW5PGwPf8WicVxcuXaEd+/n3G44wF45TctpxOnLiFF27cdPYUvaCY7V++x6q2rILPV+0Mv3jH/WON/SfL35Apeq0UN+DtJOnjRnDA9+D3YFrJnfswtXOA4ci/n7ZQRlBfI7c9qzCtnGNSATOXbzE7mN2CQaaydkLGVH9noUjnHdYcBFN0HsLJm2xmk3pF28UY78/nH74t/xUsk5zNfa8R0apCa4lON+49xaOMNcVJksUxyia31F87tmxKADGxJy278df7Qoo02Rex0K0Y2YXun31nLFHgiAIgiAIgiAI2YOYIDbsBgiEYDaC2m4GCHpGWA2QtCOp9CAwzouHjx5R0uE0WmcxP8I1QKJhfuiaHlkKPNybSj/t/pBbsXlnZWp8/++Zeq1CrcD/FszS25/Uox8E/vfX+UpTx0FjqXHXgfRc8c/Uv/30taL0QfXGVKFxe2rUdYDq+4FMkR++Uoh+8nrRLMMky0yxGCP/9VYJ6j9+RmB/k7PeJxqs9xwzTfVe8eLunTt0+FByUMP0vGKEwHRo2KkvfR8ZNkwQy6/+I/DZNOjYV2U7+OVg6lF2zuwQVjNHyrH0Myqo/p2nXmO3oaunP6hAI6fPD9uYQbDvX1FOjpk7moKJ8FrZ6lQlcB1AlgXOgXh9H5DxMWHuEmV8cPsWjt6tVFdlimBuv5Rr2JqdM1I9lb+ssYXo0KLXEHY7nN4oX9MYlX3gfPrB8++x+5dd+rfAtRP7heD9P/3pTfY18VbrviOMIxYZZ85nULMeg+nfA7+z3Hb8CIZk+S/aqMwrN54tUokdH4meKVzRmP0xtdr0YF8biX4UuO8J53oRCdlmgljVrgDN6/ghHVg6jP7vG+fFMoIgCIIgCIIgCLFETBAL0TJAjh5JVdkjXty5e0+VfnIyQMIxP4IMkIjMD5vZYcpiepjave9QltzKYmVcuUa/yvcR/eDFD7L0w5ce60cvF6IfBvR0kUq0Z/+hLE2et5RK1/8q6LWQOcfP3iyujBLosalimCKmMfJCfvqwVjMaMmlO4H1kmiEolfVKxTp0TmMFKjKB8pIRgrJMX3TuR9/+/atsMCcaQiA4/ex5Y4veoLwKN092CEH8cIHpgHJL//z0W+zc4er9yvVVUNIvlwLfS26+eOh375VWJXOivTLdCrJlfv56UXb70dCv3y6hzBA/3+s3K9Ri54pU3/3TG8YWIgemmp+sLyic8y+a4PrK7Vd2C/uF8k/c37JDCPBHAt5Py95DtTPX/KpE7WaO59KPXyzIjolEP3mpkDH7Y96K0XcUmX/xJCFMEEPzOxWmNcPr0IO7iZEZKAiCIAiCIAhC3kJMEAv2PiA6Boi9BJauAXLl6nVlbFgNkKhlf2iaH6HGB2QzPSAX08NqVkBrAu/DLaA5dfEq+vHLHxoqHKSfvJKpX7/7EQ2dOJv2HjicJcw9buZCeq7YZ1mvR3aIORfMEyWrQRJkjDw2RZr1HBJ4X5nvt17HvvSL/GVpZ1KKsYfOwAg5lJTkaIS4NUu3GiGJXgcdZUmwqpsL4ERbKIeC8jU65AYTBOVwopmNYBcybRau2WhsTY/sNEFMwQxZvWWnsUfRAaYEyozFKlBrV7fhE4wte5MTTBCU8OG24aYhk2cbo7MHXF+5/cpuYb9yiwmC0lH5P23AzhtNvVCsMvtbKSaIPxLJBIHQO2TVkBr06ME9Yw8FQRAEQRAEQRDig5ggBn4NEAS9wzVA9ialKPMj1gZIROaHg/FhNz0gq1mBhuWdh4833ilPmYZt6CevFqGf2vVa0Sy9UqYG7TuQEjQ3tH33QWrabRD9v3dLqzGYB/qyc396vVzNLIPEboyYpoiZKVL2izbKANkQOM7PFPuU/u2VD2nq0tXGHjqjMkI8jBA0VM/IyKArV6/SjevXVS8ZjLM2Sk9UI2Tr3oP0s1cLs8GbWAlNv3XI6SbIyTPn6FdvlWDni6YQ9J+/aoOxVW8SwQSBsN+zlq0x9ioy7gWu3x83astuJ1ZCqRtdcoIJgjJH3DbchOB4doJrK7df2S3sV24wQfYdOkL/752S7JyxEGeQiwnij0QzQSCUxto4romxh4IgCIIgCIIgCPFBTJAA9jJY1kboCGIjmI2gNoLbCHKHa4Cg/8c+HwZItLI/nM0Pm/EBaRgfdmMCgmFhqvuwiZTs0vMBjWJ/8+5H9D+vF3usN4JVqGoj2rknKWheqzZu201fdOpH/5uvDP3staK0asN2ZWjACMkyR17JzCwJMkVsmSK/K1iBarXtRT8KvB4ls1oPGu1Z1iZaRkiilcVCjwbUr+cCN7GUbn36nGyCoLTLb94txc4VC6H3AFby65AoJgiE/igoLRUJ+F7FqueGm773zDvGHniT6CYIjiGyc7htuAlGVnY2wcd1lduv7Bb2K6ebIOhhBKOPmy9W4kpiiQnij8U9StP8zkVVk3K7kJXBmRSmUL4qZFxnU0VpXsfC7Dgdze9UhI5tX2DspSAIgiAIgiAIQuzJ8yZIvAwQ9P+AsWA3QMbNWECrN2yjNRu205AJM2lt4N+ilf1hmh+hBkjkxgdnTFi1ZtMu12yHLsMm0M/fLJ6lX75ZIkSlardQRsj+g6nsNqA9gX1dunpz1n7hWBWr0VQZI1mZJRZTxJ4pAjPkR4H//rfA/5ols8o36RD4PB8Ze8oTiRFiPd8SxQhB4PJ/3/2IDdrEWrndBMFnjH4d3Dyx1H+98iFdvHzF2AtnEskEgdCHRtfA4eg0eCw7b6yVCCYIzK9okHTkGDu/jqYsWG7MEn9wTeX2KbuF/crJJsit23foTwXLs3PFUvEyQX4auBewEysTBNfbeHIhbSedPbQxRKkbp9GCLsVZg8LUkl7l2LFnktbT6YNr6fiuxXR4/WTas6AfbZ70VeD1ZVWWx9z2H7Dz2QUj5P7t+B4PQRAEQRAEQRDyLnneBLEGpCFrGSwdA+RIaoqnAYLSLLv3Bxsgc5esplfLVKdOA0fTzIUrM4Okv3+VnnzmXXq9XA1q1KkfTZm3zN0AsZgfTgZIsPkB6ZsfuqYHTApOGZecA7DXb92mv3xYkX71dkn69dulHFW8ZrPA+8o0Quzi9gXC+6jTtufjzJLXiz02RUIMkccZItaSWR81aqsyd9yAoaFMkIBSDx+itNS0LCNEt1F6IpTFimTl/L+/8D69W6muCqqhkXrN1t3p7Y9r+8oo0TVBjp86q1bscnPEW35MkDnL17FzuAkr+pENVb9jH6odOJdRH597nZfwmXjxKHCe/7FgOXZ8dumdinXCMgg3794fVjN/jHn6gwpU8ct21KBjX3XcS9f7ypcx6McEadFrCDtHpMJxiwZo3M/Nr6My9b8yZok/uKZy+5Tdwn5hIUQ8s8Hc5NcE+axZJ3aeWIszQYrXasa+NhKhEbudWHxHcY3BuZAIXDl1yNMEWTGwivFqfW5fOUebJrRQWSTcnFbN61CIDq4YaYwUBEEQBEEQBEGILXnaBPHbBwSN0E/CAElNU0HvlOSkwOvvGrPxoEm43QAZPG4G/ejFglSrdXf6rGlH+u7TbykDhNNPX/mQug0dp4wPlIBasmqjVvaHH/PDr/HBGRJBSsrUgeQjrk3S0UQXZbEQaLTrgypf0O/ylVb/3bjLgMw5uW1ZZN/P7kMnqIwSlW3yRnFtQ8Q0Q8pqGCE3b9ygpAP7g4wQnCM4V3KKEYL+EVzAxk0vffQ5LVi90XHf8e9YTd6q73B2vFW6JghAwB6Nea2q9lVXdl5OWEUMI8VL//hH92bauibI3Xv3ffcBqdOuF12/ecuY4TFpJ08rg5Qb4yRkBnCBRDv4vC5fva5KtZhCU3FuTrv+OXD96jFiUpbQILz9wNHUtPsg1SPi+2GWWFu2Yauxd3rg3PBbwukHz7+nzj+3EjXIkkKJrqfyl2XnMOXHBAFYXW8/l2EgcnPbhZXr9rFQtK4lbs378T65fzf1r8++63rdjyW4nnL7ZApmF0p22cW91knceC/jDfsF8PlcvR78mXUZOp4dw+k//pqfvV7Zhe8kN96UHxNk4ZqN7Bxu+pc/v6WMhfFzlihjcv/hNPV7gAyvxWs3U5t+I5QhwI21yunaheuj9Rj6yRLsOXJS0Fh8Hk7fG/t3dNqileycnEbPXBA0FjLPg0QgViaISeqm6TS/44fsvFbN71yEHj1wv48WBEEQBEEQBEGIBnnWBHErg6VjgCDojRJHbtwIzDVy2rwgA6Rhhz70nT+8Tt/54+v0ny8VYo0PToPHz6BStZvTHwqU82mAWMwPKEzzgzMdlAzDwy4YINDJU2eNoxEKAmVvVahNv3uvTIieyl+Ofv9eWfXfaITObUOJ26eAzP3+a/HPVLYJAtH6hsjj7JByGkbIpYwMLSMkEfuDYLt/L1mFDeI4qXG3gdrBVpRj4uawyo8JwlGvQ292Xk6cucBR4LOG7HhTuiZI2/4j2fFOgjHoBgL9lZt2YMc6KZz6/2Dc7MXsfHYhG8gNnN8IgvoxqyAYPn5AGSZuHifBMDly4pQx2huvRut+TRAO3bJpP3u1sDEi+iDjitumqfJftGH/3aol67YYs8UXnGvc/piaMHeJ8cpgkJXJvd4unDMcE+ctZV9vCvvlRP9x09kxnHYnpRij3IGRyo03pXtNwO/D30p8xs7hpIad+irzwAsYptx4q3QMXLAtcG/DjefkdY11AwYONyenGUtWG6MSk1ibIGDvooGqPBY3tyn0Fzl7eLMxQhAEQRAEQRAEIXbkWRPEDD5DXn1AOAPk4oULxkw8N2/foVfLVqcug8fSoHEzaO3G7fR58870radeo+8+/SZrdLipWI0mNGDsNHqu6Cc0Z8maTAMkjOwPmB9WA8TN/ODMBSWbEWEaHpwOBoQyIE5cunyVFq/aSP1GT6VqLbvSHwuUpz/kLxekEVPmsnPb94Pb1y079lOzboMC85ZT5bU8DRHGDKndvpenSXE6PT3ICNHpD2LNBoGyg1Wbd7ABHCc16T7QGKlHXjZBsMLYa0W2VRW+aGOMdAfZJX/58GN2Dk5YqY7Atl+iZYJYGRb4LnNzcEI2DkoJ6oDv5zOFK7LzcPrv14po9UuxkldMkN6jp7DbNDV72Vr2362q3qqbMVt8wXWU2x9TYoJkStcEWbFpOzveSUOnzDFGeiMmSPYSDxPk64f3aVH3UuzcVu1Z0NcY4Q9c929cPEEndi2h7TM60bK+FWlRt5JG0/YPjcbuxWnFgM9o69R2lLJ+sjJcHt67bcwg+OX/vvmGrl84Tsd3LqJt0zvQ0j4f00LbMV/YNXDMA+cO/p6yYSqdS9lCj+5Ltk8ig+8E+gclrxpLa0fUpcU9SqvPEZ/n/I6B71Hg88W/rRvVgPYuHqj6AV07l2aMFgRBEARByDnkSRMEq9itwWe/fUBOn0o3ZuLBg9n9+w/o9p27dBPGSkC3Av996ep1FRg9n3GZzl7IoNPnL1LKsZO0efcBVZJozKxF1GPkJGraYzBVadGZitZsSq+Vq0FPFShHv3u/NDXo0Ic+rPol9Rw+UT/7wzA/7Nkfvs0Pi9nAGRIwO0wlHUoL0ol05wAsjlXq0ZOUdPio0pjpC+jpghWCNHfpWjWPdRvcPlj30b7/G7bspgbt+9Dv3y9Lv3kns9+I3RCxZ4eYZkj7QWONvXUG7+NYWppno/REK4uV75N6bACHE8qXPHjg3v/GTl42QSbNX8aO5YQSQrg26LJjfzI7j5NQcscvsTBBAEqpcfNwQikdHRat2cSOdxJe75e8YoK4lVz79dsl1O8W9zerUK4rO65nuI5y+2NKTJBM6ZoguuXZoLINWqnfQV3EBMle4mGCAPT8mNOuADu/KQTS/YBgLYKxKujeuYhW/xGlwH4s6FJM9SLZMLYxnUvZqoL64XLv5hVlCISrRw+cFwgBlAm7dGI/pW6aoRrPrxpcnVYMqEKrhtSgTROa07EdC+jONfcFWdHifOo2WjuynnHMi6rAOHuMbZrbvmDWMd84vhldOLLD13XCzjePHrLHUlcP77tnqcGsybAe8yHGMR9cTR3zo9vn063LZ4xX++frRw/ocnqSmh+9c7LmD3ymG8c1pbQts+nGxZPGq2PLg7s36cCyYbSkd/nA5/SB+py8vqum8PnP71REGSNJq8bQ3RuXjFkFQRAEQRASmzxnguDm2ww6Q8gCcesDYjdAjh9Ny5bgDoChcurcBWWcHDmeTsdOnqZDqceUkeGV/RGW+WExFeyGg9WQyDI8DCODk1t5jGvXb1JyytEsVW/Zjf5SqGKWVq7fFjyfuT2LMWLfP+u+W9/T0Imz6ffvlVG9RtCPxGqIBGWHWDJDZq9YZ+ypO48C51JK4ByxGiFu/UGyuyzW3uRUNnjjJASA/JKXTZCP6rZkx3Kq276XMUqfN8rXZOfihGCmX2JlgvQZM5WdhxOyEnTwE6x9r3I9Y5Q/8oIJcuHSFfoWsz1TH1b7Ul2j/k2jz8uWPQeMWeMHrqHcvpgSEyRTOibI1r0H2bGc0BPFb7aZmCDZS7xMEASUVXCVmd8UAuT3b7uXlwXXzh6htSPq6ZseHkIwf+XAz1VwPBz2LR6o9h3vz69gDsDg4Mg4vo+2TmmbNffcDh+w+z8vcBxgSsBEgqETC66cPkRrhtVSAW9uH/wKphUC/jcz3BeTOXHz0mmaa5hZfoVA//nU7cZMwWQc20ObJ7YMHPNMM8DxmBvZLsguun7+mDHaG3zftkxprebF/NiO8/xFaFG3UnRi99KYPBN8/fABHV4/WW1nXsdC7H74Ec5TmCKH1oynb752Lx8sCIIgCIKQ3eQpE4QzQOxlsNz6gEAPs6nhqxfoFQCj4fKVq3T67AVKPXqC9hzgS1+Fa37omB5WM8MqGDZO4HM5evxU1mu37NxHb1eoRc8VrkR/LVaZdgf23fwbt003Q8T6Xhav2kTTF6ygNRvRm6Uv/TZfaSVliLiYIbsO6gWewL27dyn54AHH/iBeZbHiabB1GDSaDd5wQsZMOPuWV00QlHFCdgc3ltPhwPfVL7OWrWHn4oTSUjp1+q3EygSBkcvNw+nTZh2NUc6gcblXY2qrZi4NLziZF0yQ4VPdy5W16jtcve7lj6qyf7cKjfHjDa6h3L6YEhMkUzomCHo/cWM5lan/lTFKHzFBspd4mSBYue8UUDaFviA3XIyIuzcu05bJrbWzD/wKgWeUAfLL3kUD2Pl0hGNvNUFwH4yg95KeZVXpIW6MmxCY3zm7uzre0eDOtYsq8yFahpNdOOYIxPsFJkg4xwfCMbeaIFnHvFc5ZYhxY9yE94AsCDdOHVijDJNwTCSMWT+mEd2/o58l7EX63hWqfFksPlfMuazfJ4HPSL/XmiAIgiAIQrzJUyYIgrhmsBnyKoNl7wNy44b3SrVEAjf4d+/eo0tXrlH66XN0OPV42OaHk/FhmhNWHUo5xurGTec6zDcDf7O+tvOgsfRC0cr0aZOOWf/Gbcu+P1ZDxPoeoKz3Z7zf8vVbq+brQWZIQHYzJCNw/PxwKXAe6fQHQTYIVxYLn1s8eLNCLTZ4wwmGSTjomCBt+iWeCVK63lfseFMjps0zXsnjJ1iG8y4cYGqg3wc3J6cFqzcaI/WIlQmC81vXtECJHS/mrljHjuX0ny9+4Lukm4mXCQLTK1Ky2wTxMv9wrEHVll3Yv1sFwyBe1zITXD+5fTGVV0yQFr2GsONNNesx2HilM88WqcSO5QQTwi9igmQv8TJBwMKuJdj5TWE/kHHAAQMExoBumZ5whQBu0kp/9znRMkGQLbO8/6dhBcqtQlAexkWkoMTWou4fBY55fnY70RKOOfq0+CFaJsj180dVebFIj7l6DxumqjmtINNlzfDaEc+PjCHsZzQyLLCfsTA/7EJfnjvXLxpbFQRBEARBSCzyjAmCYIwZZIbMLBCuDBbXB+TMaedMhpwE3jvKal24eJmOnzhDB5PTHI2PLPPDZjTYjQireeGmoydOuwbFjp88Q4dSj2e9ftTUebR2886gOayy74d9P00zxG6I4L0uWrWRStdpqRqvP/V+WWWG/O69MiFmyDNFPjH2Th+8x+MO/UESpSwWAujIDuCCN5xOnD5njPTHw4ePVNkm9Ajg9Ms3i4dVZstKLEyQjCtXVVPgZRu2hmjd9j3qfbmBxtDc9jlV+6qrMco/fkpi+S25FSsTBOhmyRSv1cwY4YzXqnercK6Ey6gZC+jnrxdlz+P/euVDVf4sUrLTBEFGjZephiwe0HfsNPbvdh1K85/hFAm4dnL7YSqvmCD4jV+1eQd7/cK/o1+ZGyiLxm2fE87/cH6vvDLZfvxiQbpz171ngomYIP6JpwmCvgHc/KawHzAC7Ny7dZWW9q6gyh9x46ItZJqcS91mbN2bSE2QM0nrVV+IaAamEXQ/snmmsYf+QW+HxT3LxNwAMYVjnnF8r7F1byI1Qc4kb6Q9C/pFNatofscPVQkzgFJTB5ePVIbUnLbROYaYa/e88O9dAM6JeBggSoHvK3qoRNJvRxAEQRAEIVbkGROEywKxlsHCynyuDBaC2EdSDrsGMXIyCF4gIH7uQoZqUJ5lfNjMD6vZwBkSWYKJ4SL0/3Di+o1b7Jggcds0ZN1H676b78c0Q5at3UJ//uBj6jRwDJWq3Zz+WKB8phkSkN0MKd+wjbF3oaDkkRMPAn9LPnBAGSE6ZbHi3SR9ybotbOCG03+/VsQYlZjEwgSJlOeKfsJun9PkBcuNUf5p238kOyenF4pVNkbpEUsT5Lt/eoOdyy6dTJCn8pdlx3KatmilMSoxyU4TxKuRP7JozGD3yk072NfYFU5D/kjAdZPbD1NO37VITRDMy73elNv1PBYmSKRM8Xg/ViFrLlxgcuCazAklPnURE8Q/cc0E6VaSnd8U9uPyqWTj1ZmgR8iyvhVpbvv4GCCmYLr83zd69/uRmiBY5Q9xf49ECHaH07wbjd5RGirWWTd2Le9fWdtIjdQEwdhMg4J/TbhCD48bF0+oczYW88Pcupx+0DgK/ji6fV7MSsk5Cfubvi+x77cEQRAEQcib5AkTBDfXZnAZsjdDt5fBwop9axksvM4JBDe270umNdt209RFK2nwpNnUa/QU1dAXq2X7j59BAyfOVP8+dMocGj5tnlpRPGbWIho3ZzHNWbGONuzcS4eOnlCrz7F/2QlKxVy5ep1OnjpHyTZjgTMeWKMioMNHTrBKO37K8WHnm2/+j44cS2fHQdx2uH2y7vPOwGczfPJcqt26B3UbMp76jJxMFRq0pmcLV6LWfYZTpUbtlSHydMEKrBnSYZBzvd/W/UYa/8Vz5dIlz7JYZjaIWRYrXtkgfuq9l6jtvRo/O0lEE+QHz7/Hbp9TJIHN6YtXsXNywspqP8TKBEEWDTcPJ6+eICiXw41zUrgZTfEiO02QknWas9syVbBKQ+OVmVkj3GvserFUdIKofkC/ngpftKHyNiE763zGZeNVwURqgqDkJOa3bxPqPGSc8SqeRDRBqjTvzG6f08AJ4a86jxZigvgnbj1Bvn7kmcmBRtHXzqUZIwL37IH76pWDqmobBAhs47XovYDm1lumtFFlodCfAM2wMT83jhOCtyf36C1MiMQEiaVwLA4sG2bspR7fBO45YUbomk7o46KOeeAcwTHfOrVt5jFXxlXgmPswKtAs/XTSemNP3InEBMk0d2KT4YLzxqv3TaTaPt27R5odZDbpZoCoBueB1+L7sn70F6oPz5bJrWjdqAbq/UF+Gqkv7lFGskEEQRAEQUg48oQJYs8CsTZDt5bBwgp9v2WwWvYeRk/8/lX6l7+8rf43Un0roB/+vQD9Pn9ZerVsdSpasyl91ryTakg7Ye5S2rYvia5ci16TPDdw3JAlcv7CJTpyNP2x0WAzIjjDglNq2kklmCxOXLp8lR3Lyb4f5v4dSDpCg8fNVKZHk64DqHiNZtSu7wh6vUwN+muxT1WvkeeLfEJNuvSnPqOm0NvlaysjJMQMeb+sYyAD5xFKZk2Yt9T4F57jR4+GlMUys0HMsljWJuk4N83z1G31cKQUqd6YDdxw6jZ8gjEqMUk0E+Tq9Rvstp2E14fLjv3J7JxO0i0vA2JlgmzcuY+dh1NHFxMSrNm6ix3H6ScvhVe2J55klwmC8+JJ/IYx2zL1VZ/goNqfCpZnX2eXbl+H7CRSEyQSEtEE+XvJKuz2Oe08wPdyiCdigvgnXibIjYx0z6bTCKY/evC4RNux7Qu0ArcIyi7rW4nOHd4SGM//tj28d5vOpWyhlQM/V6/n5rFr7cj6xmh34mWC4PjBdECQmvs7p2V9Khp7qUfqpulaxwevQf8S9NZA6ScOHPOzhzYpU0U3AL9xXFNjtDswQXTnDFfzDCMA3w+vczccZc5fXG3Dz/x4rZ97GHw+XqXolNoVUNkrexf2p1tXzhqjg8F28V0+uHxEZlaJRrk0mFX2DC9BEARBEITsJtebILhxM4PKkFMzdLYMVmqKGuMEDInvoIa6zciImZ56jZ7A9v74Bv3olcJUrN5XtHHHPjp3PoOuXruhAlmxCpzjOKKO+NnAtlLSeFPClGl2cFqxbhs1aN/HmDWUh48eseMgblumTCNkU+B4fNGhLy1fuyXLFJm9eDUVqNyAvujYl14pVY3+XuwzZYZU/rI97d53iCbPXUoDx02nqs27hJghB1KOGnsWzJGTp+lXb5Wg3xcoR+lnM+vkczx48MCxLFZ2Nkn30/QWpbMSmUQzQfYkp7Db5oSMkUi4fPU6O6+TUo+nGyO9iZUJ0rT7IHYeTjBM3NDdRwgGQ6KTXSaITnN5+3WgZuvu7OvsiiToHC/EBAkGfT647XO6ePmKMSr7EBPEP/EyQY5unaOCvtz8ppb3e9x77cGdG4TMAO51ViEQe3j9ZO2V5njdobUTtALoMBt0SmKlBd4bMlY4eTWDdxP2cV6HD2jVkBp0cPlwOrV/FZ1J3kApG6bR4p5ltd5DprGkt+gBvVd0SjjhmB/ZMlv7vhTH8OCKUVr7i9fogIbbq4fWZI85SlJxc+sI5g7Ou82TvqLjOxfR5fQkunL6cODYr1Zz67wHN2FufN+QMZM5/0G6eiaVTh9cqwwgvWNUhG5fPW8cCW9wvuM84OYyhcwflIC7fUU/Sxal1jDGywjBtlM2TDFGCYIgCIIgJAa53gSxZoGYzdCx4t7aDN1aBgsr9c0yWLdcymDdu/+AitVsxpsVsZDFAHniT2/SE39+m574yzv0xLPv0kvla9Hi1Zto34EUpdQjJ+j02Qsq4wL7Ge1AOo7pjZu36NSZC8qAsJsVdiGLZMO2PVS/XW96s2xNeqtcTUpOO27MFgpMHYzh5rLKboRA0xasoPVbd2eZIrv2HaIO/UfRK6Wq0stQyc/pxRJV6O/Fq9DY6QuzeoagX8jU+cvp3Yp16JlCFZUR8pfA/969x/f9WLhmk2qcDiPko3pfuR7jK5cvZ5XFsjZJxzlnbZIez2yQH/4tPxu44bQ3OdUYlZgkmgkye9ladtucYEZFAs677z+Xj52bE3o56BILEwSZZWguzs1j1z8//Rbdf8CvNDVBpgg3ltMnTdoboxKX7DJBKjVuz27HFHq42JtpI8jLvdau/J82MEYkLmKCPAa9rrhtc0Ij/VhmLOoiJoh/4mWCoCQVN7dVe+Y/Xhjz4O5NOrF7KW2Z0lplPyDwaw/QI2CcunG6McIfaFrtlfGQGWyOrHQi3hM3t5uw3SU9y1La1tn08P4dY6ZgYCxsm97B07RA1oBuXxD0Xzm+a7EyADAOsmedYHvoLREOexcNVJ+ZdT67MD/MmEg4sHw4O7ebcMyX9i6vjAmnzBawO/B56hhFdmF+lGk7dWCNq7EGs9DrvMT39dLJA8YIb2DkwIRCFhRKdXFl4dADBr1g/AIzSsfo2zatnTFCEARBEAQhMcjVJggChGYwGTKzQFyboRtlsNJPnjBm4WnUdQBvVsRKDgbId57LR995/j2q1qp7lgmy/2DqYyWlqiD/8ZNn6MLFy3Tz1m11LKLFo0dfqywU9BCBMQHzgtPK9dupbd+R1LbPCFq6djNt2+Pc4A8ZLdwckN0IMcUZIqYRsmbTTvqodgt6rXR1ZYag/BXMkBotu9HAcTNoxOS5NGbafNqwdTctWbOZStdpoXqGFK/p3Auj16gpqnH6b94pRb96uySNnrHQ+EsoOA+PpKQ8Lovl0iQ9HtkgCGZyQRsnnbt4yRiZmPgxQXqOnESDJs70LfTe0A32oScBt21OxWtF3m/FT1bP6JkLjFHeRNsEwfFDjw9uDk7vVqprjHQGfRi4sZyadB9ojEpcssMEQY8WfIbcdky9/XFt49WPQQ8r7rV2IVCOHiKJTE4xQZBFxV2fvDR+zhJlbuiQdvI0u21Ov3ijmDEqe/FjgnQaPJZOnbsQlvxknokJQnR02zzP4DcC7qcPrDFGhHLjwnE6snkWrR/dSAWhoa1T2hh/9Q8C0V7vG8FiZAFEgh8TBO8JWQzoi6Fzv/f1w/uEvhvcXKbwHjNO7DdG6IPtXz9/lI5smqF6QcAMQR+IHbO6Gq/wz9ePHnieByidhM86EvyYIHhfOEZo3q1zzFHiy085MvMzPXtYP5MaGS7cXKaQTYLMlHAwy8LtWdBPZXFkfq4fRnTMj22f7/m54hwSBEEQBEFIJHK1CYKgmxlI1skCsTZDv3c3eNWrFZRo+TYyMzizIhbCtkwD5Om3QgyQJ1/IT0VqNQ82QJIydSD5iBIyHWCGqMyHgI4eT6cLFy+pgHi0guxYtZ1x6Wpg7lOUdizdU48ePTJGhjJ32Vqas2SN2nfz9bqmCGeG9Bk5hUoFjtHrpasrM6RM3a/o9TLVlRnyUonM7JA6rXtSuXqtaPGqjfRC0U+pi0tD26otu9Jv85XOMkJ+n78cHTvF19IFN2/ccG2SbmaD4NyMdTbI4aMn2KANp28F5PY5JQJ+TJBIpLsKu277Xux4TrXa9DBGhU+hqo3YuTm1HzjaGOVNtEwQXF+Q+ZXvk3rseCcNnTLHmMGZDz7/gh3LCeZUopMdJsiKTdvZbViFwDHHM4Ursq+3a8oCvUbD2UVOMUEikW5Q3k+fnexofM/hxwSJl/K6CXIuZasKsnLzWoUgKgK0OqB5N1a33799zfiX8Ng2rT27L6ZggqDnRSTomiA4RvsWDwrqiaLDqsHV2flMwVRwM5d0QWP7SycPqgydSNg0vhm7n6ZwzDOOu5e/9ELXBMExx+eje96ZoDwZN59dWfM7ZPM4kbxmfGC8S4mpdgUoZcNU49WRgewPlOSKBGRLzff4jq8Y8KnxakEQBEEQhMQg15ogCLyZQWTIKwskuBn6KWOWUJCl8L/5SvNmRSwUYoC8HWKAPPm3AvSXYp9qGyDJKZkye2akHDmuymddu34zKgFvBO2vXbtBJ9LPZBkYMEbsOpHubBosWr2JClZuQB/Vak5bdu7LmscqL0PEaoTgfXcfOkH1/fjg04bUZdBYKlatCb36UbXMUlklP6dX0S+keBV67aPqqmfI8o38QzDe31+Lf6Yap//uvTLKDEGT9BK1W7gaFsfS0oKapGdXNsiqzTvYoA2n/3zxA2NU4hIvE2TDjr3GFt3xk+3QoGNfY1T4IJuEm5tTy95DjVHe6Jog/xq4Hm3de1Bp8+79tHbbblq6fqtagV6m/lf0X698yI5z01P5y6oMBS/+8uHH7HhOE+ctNUYlLtlhgsCI47ZhFYLMHA079WVfbxfOg0QmL5gg+D7r4Cfb4Z2KdYxR2YuYIP6JlQkCk2Lr1HaZzZOZOa1C34t9SwYbI+PHse3zCNkN3D5BKEuUvneF8erw8DJBUJ5ocY8yqi9EOBxYNsy1JwNW+iMTJ1FI2TjNtT8FSp+dSVpvvDo8vEyQzGNeOuxm3TqN8GHmXDi6yxjhD5TMgnnFzWsKjckTCa9MkEXdPzJeKQiCIAiCkBjkWhPETxaI2QxdZYEkJ9FDlzr0bQeM4s2KWIgzQJ55bIB894X3lQHy/b8XpN+8XzYsA0TJKBtlGgbH08+qjA70w4gk+I6x6AEAg4UzQVZv3KHKaXGgdAcal1dp2okGjZuRNYYzQyAnMwTvefOO/dS61zBV6mrU1Pk0dOJsatihD7XsMYTeKFNDZYdYzRBkhsAMuXzturE3wRw6eoL+VLA8/SF/uRAjBGWTnLhz5w4d3LcvKxsE51x2ZIMsXLORDdpw+n/vlDRGJS6JZoJ83KgtO55T426Rl2gqXe8rdm5OfkpC+QmGRlPfDlz7Nu3SK+OBoDQ3Byc0/0504m2C4LriZVKheT+uQRwLVutdS2CUefV3yU7EBHkMzEtuPCecr4mAmCD+0TJBBnymShlZ9ej+XdW8HCvJb105S+cOb6FDayfSpgnNaVGP0spAcF3NbhFei34U8ebk3uXGfvL7Na9jYdUjIxK8TBBVriqCzAf0sMB+cnNDCPinbQm//020Qekkt8ygzFJPzvfPOniZIDjm51O3Ga/2j+cxb1+QUjeF16sGIHuK69th1f4lQ4xXJwaLupVk99PUwq7FjVcKgiAIgiAkBrnSBIkkC+TCeedmiOczLtO/ogmx3ayIhWCAoA+IMkACMgyQJ561GCB/za8MkB+8+AG9Vr4mb4BomB9WAwSymgjHjp+mjMtXA8cwsgDWvXv36fzFy3T0xOkswZRYt2238YpQ0DcExseRoyfVPq7bsotmLFpFk+YsUf9fxwxZvCozo6Re2960fU+Sen9bdx2k4jWa0tvlaqkm7TBCIJTJghmCBupl6rY09iKUCXOXqsbpnBHySpnqrrXX0wPnm59sEBh45nkcrWyQOcvXsUEbTjpBvxu3btOA8TOoy9DxURXKIelkJiWaCYJV79x4Ts17Rv5AW+GLNuzcnL7o3M8Y5U12mSB+ylb9+u0S7BycYP55sWzDVuo2fAJ7Poar7iMmUtKRY8YW3Im3CYLMHW5+q0rUdu5bc/3mLWVacePsWrJOvzZ6vBET5DF9x05jx3Mq8FlDY1T2IiaIf3RMEJVp0K5AluZC7QuqLAOUwUHgWgVt8XduvIuwgjySgHEknD64znXFPYL1x3Y493nTQccEuRRGzw4TLyMHn9ORzTONV2c/J/csU585t69QNLJv9EyQ8MucYf+8jnkk5/SFIzs8v5NoMp9IoLE6t5+mcH0QBEEQBEFIJHKlCWLNAoF0s0AgvN6Jmm168IZFLGQ2QocBgkboWQZIPosBUkAZID98uRB92qxTkAHiN/vDbn5ApplgGgzpp8+pJuhO2Rs6PHz0iC5fua6yTZav30ZNuzrf0KOJu2mYNO0ykL7qOZTmLF2jyneZmSFOGSLL122lzxp3pI8btKFqzbvQnv2H1ftFRsgHn35B+T6uS+9WqKOapFvNELNnSLehE4y9COWLTv3omUIVlRHydMEK9McC5emp/OXo9++VVUaIWy+DB/fvU9L+x71BnLJBYNjZs0GiZYIgOMMFbTihLJEXw6bMZcdGQ1v2HDC24kyimSAl6zRnx3Nq3Tfy0gaVm3Zg5+bkp/xWvE2QJ//ytmsmFcfPXy/KzsVp8drNxihnsA/c2EiFbB0d4m2CIBOJm9+qIZPdVxOjLwQ3zi40sU9UxAR5TM+Rk9jxnN6rXM8Ylb2ICeIfLRMkRoLJgJJZkXDj4klV7mnX3J6qoTSaPS/pVZaW9a1I60Y1pL2LB9KJ3Uvo7vUMY8Rjzh7aqMovcfsGZZogC4xXh0esTRBkTcCE4uaGIg3Ic1w/H3he2jqHds7uTquGVA865utHf0H7lwxWZse9m5eNEY/x2l+YCzB2IiHWJgiaks93Mc8iPeYXj+3RMEEGGK+ODmiyj+9D8qoxtGl8c1rW7xNlbCzpVV6Vw0P/nJT1kykjsG/oyWNnaZ+P2f00BbNREARBEAQhkciVJogZNIawkh4r6rGy3isL5FLgb06kHk+nf4ApwRkW0Za1DBYMENUI3TBA0AfEZoD8+OXC1HnwuLDLX9kNEGs2hd1cME2Hs+czlEkRbpkmfDYXLl6mcnVb0bkLl4x/DQZBfzQ0/7xpZxo/azEdO3kmKJNEyWKEQNjHvQcOU7n6rahwlUZU6LMvlPDftVv1oAKVG1D+SvXp/Ur16L2K9ULMkDfLZpohKzftMPYiGOzT2xVq03OFKzkaIc8VrUxXrzs3kTwbOPdUk3SXbBAYdlw2SDSYuVTfBEHjdy/6jJnKjo2G1m3fY2zFmUQzQfyUp2rVd7gxKnz8mCBfdtV/gI6nCYKya/sPpxlb1ucXbxRj5+M0f9UGY5Qz3LhoqFjNpsYW3ImnCYJr2W/eLcXOb9WRE849skCLXkPYcXb9NPBbFc2yftFETJDH9Bihb4JITxBniQnCC4Hi1UNrqdJafkHANnXTDFrWt5LqOeLW1wNC5gGyVpb3/5RSN07LalStTBCXskPKBNk+X702XOJjgsQuIG+Chu0pG6aoYLd5PLntmYKZgdcggI5MFLPhu9f+KhNkzzL12nDJ6SYIjIZ4mSBXz6bS1mnt1Lnu1YcEmV54DT5/mJfWnipiggiCIAiCkNPIdSYIAjtmwBgys0Cwst6eBYIV+GYWSMqhZHaVi0nJOi14wyLacmmErgyQFwwD5O8FswyQn7xahOYuW+dtgIRpftiNBiXDhIAxcfFS+OWy0DPkQsYV4/+Fsjc5cKO++wCdPHWOjge2BWGbIYaIZd+mL1hJxao1pqJVG1ORz7+kwpBhiKApOspjWc0QGCHQOxVqKzMk38d16PadzAc3O0dPnqa/FfuMXihamZ4v8gk9W7gSa4R0GjzWGBHKgwcPHHuDwKDDOQrDzswGiXaDdPRG4II2nH75pnc937xiguzYr9dMs7yP8lTNekTeFNZPOSw/24uHCfKdwPWuassudOXaDWOr/oB5ws3LadayNcYoZ7hx0VAimiAwnbi5rcL33+uaA8OYG8tJJ7MrO8gLJsi0RSuNLbrjpxzW30v6b5wdC8QE8U92mCAIoq4ZVlv1FPHL6aT1qskygrbc3F7COATa0Vj6xO6lYoJokB7YxsJuJcM+5vi8kf2BLANk1ogJ4k48TJD7t67S9hmdlInIza8jfK4wMi8e3S0miCAIgiAIOY5cZ4JYS2FZs0Cwsh4r7LHS3swCUaWwjCwQBJ+d2Lz7AG9YRFsOfUDMRugwQNAIXRkgL32QZYD8rkA52n8wJSoGiNX8CDFALKaDaUSYxgR07nyGMg+iEag3wVz4TL8J/C8ME5Tksm7TaoikBN7H7CVrqG2fEVS+XisqXr0JFasGWQwRS3YIZ4YgK6Rpt0HG1kOZMn+5appuN0L+YmSFmEYITJFT5y4ao0I5eTzweTC9QWDQ2bNBYOSZ2SDRWEntpzE6miZ7kZNMkPyfNqAPq33pW7Xb9tQ+9pUat2e3zclPZoYTsco8ibUJ8qu3StDR9NPG1sIDQWlubk5TFniX2uDGRUOJaIK07T+Snduqz1t0Nl7tzJ279+i7f3qDHW9X0+7O19bsJKeYIK+Xq8Fen7yEaxIyN3Xw0xgdmUSJgJgg/omnCaJ6iHTK7AHyfz7vYZD9sXVKGxUk5+b2K+wLept4lsPKwyYIsjc2TWgRvWMOEyVwzD3LYYkJElMTJLPcVrHAfn7Azu1X+E7PaZs/5N+tEhNEEARBEIREI1eZIPYsEHtDdKywh9lhzwLBiny81ok3ytfiTYtoy8wCCekDYjRC/1sB1Qg90wD5kH7ySmH66WtFqVyD1lE3QPyYHyfSz2bqVKbOnLuommVHu/SJaYicPZehtmfdh5Ubt9PoafOpVc+h9FGt5lSqZnMqWbMZlagRUPWmhiESaoZkZYZ8Ul+ZISiRtXCVcwPlmq2600slPtcyQhq79Du5dfNmZkksIxsEZdlwTsKgs2eD4ByOZjbImq272KANpx/+Lb8xypmcZIKgkXOs8bM/9Tv2MUaFT/Fazdi5OaGBvS7xyARBY+5IeK7oJ+y8nHTKAXHjoqFENEH+8uHH7NxWTV2o16j2rQqB30hmvF0wEaJpkkeLnGKC7E5KMUbFjhHT5rHb5vRvz+UzRmUvfkwQmDxqYUUY8rOAQEyQ/CpgvKRnWTq8dqJage6XB3dv0qohNcLORAhXedkEuX/7uipl5VX2KtoSEyS2Jkj6vpWB8zr87I9wJSaIIAiCIAiJRq4yQfCQagaKsXLe3hAdK+yx0t6eBZJ+8oQxQyg7DxziDYtoK6QMFvqAvGvrA1Iwqw+IMkBeLUL/83oxatt3pLYB4sv8sBggXsbHydPnQpR+5nzEjdQ5vg58zqfOXsjctrEfo6ctoCpNO9GnjdtTmTotqXSdFlS6dossQ0THDEFWCMwQp9I8127cpNfL1KBXSlWll0t+Ti+WcDdC/lSwAl245FzqK/Xw4cfZIKlp6pw0G6TjXMU5i3M32g3SUeOfC9pw+ufAuei1vX7j9Mun+JVOH45EM0G6DB3PbptTta+6GqPC54PPv2Dn5qRTEspE1wT5lz+/RWNnLQrSm5pBcZgYOKfDpXDgu8zNy2nwpFnGKGe+jWsxMzZSlajdzNiCO/EyQdJOnmbnteviZefrl5X2A0ez4zkdSnP+vc0uxAR5zKI1m9htO+nhw0fGyOzDjwni1ejfjcVrN7NzcsoNJgjMAAR9rUJQU6lLMTUe/4t/x2uRYbGoWylaN7I+HVwxii6nJxlb8w8yRtYG5onWqnU/yqsmCEoCo8k8xnJzxlJigsTOBMk4vjei8leRSEwQQRAEQRASjVxlgphBYsitITpW3GPlvZkFcvOGc33iyk078qZFtGUvg+XRBwQGyM9eK0o/f6M4DRw3I/oGiEPmh9X8cDI+OF26co0eBD6TaICgPD7fI8fT1Tb3JqVS+34jqUL91lQ+oHL1WimVrdsyyxAJyg6xmSHWniENO/Q1thLKotWbVNP010pXDzJC/s4YIWaPkP4uK+8vX7qUlQ0CQw7npL1BOs5de4N0mH2RgPI1XNDGSWfOZxgjeQ4fPUEFPmtIzxapxOqfcF4z81r1ZOCct49D012dIGyimSB+MigKVmlojAqfPxfyXtFvyk9PBt338e8vvG+MeAx6+XCv5YSV2eFSs3V3dk5Ojbr0N0Y507L3UHo+8F22n4vQz18vys5rFwLl1nGYb9SMBcYW3ImXCaLb/Pr7gd8gHcEs5cZzgkmYaIgJ8pikI8fYbTvp3MVLxsjsQ0wQ/+iYIMjiQLA9U6vp1IE1dBo6uI7OHtqkgrZosHzr8hmV6fHNo+jc44GDK0Ya5Xb4fbPLaspAKL/EvU5HedUEQYB9nvYxz591rKNxzMUEiY0JcvfGZc85rcK5//h7VNzXd5CTmCCCIAiCICQaucYEQWDcaoKgfJBTQ3SVBZKaZqzAT3Vc6Y7A/T8huMOZFtGUNQvEoQyWvQ8IDJD/eaMY/fLNEtR39NSYGSBB5odD1gdnepg6deZCkC5fuU4PH0W+chRGwLY9B9X2uw4eR5UatlWq2LANfdygTZAh4maGmD1DzKyQWUudV8o37z6Y3ixbU8sIMZulv162Bj1wWCmL8zT5wAGVDRLvBukoc8UFbjit3rLTGBUeOkH618pWN17tn0QzQVZs2s5um9NT+csao8ID5wEMJG5uTifPnDNGehOJCQLKNmjFvt6uHwSuc7oZB3Y6DR7LzskJvREiYfTMBey8duk20OeIlwnySulq7Lzx0IulEqOZthUxQR6Dvl7ctp20dttuY2T2ISaIf3RMEJRFyg5uXjqtgrHcPlmFwDm0c3Y3Op+6ja6cPhTQYfXfh9ZOpI1jmwTmyexHwo13Ul40Qa6dS9PKFkBfDwS2d83tReePbFfHGzqXsoWS14yn9WMaZfaA8Zl5ICZIbEwQ9NPxNqfyq3N+5aCqdHTrXLp08gBdPZMa+N+DdGL3Eto9rzct6V1effZz2rn3ALFLTBBBEARBEBKNXGOCcKWwnBqiY8W9WQrr0iXnVe5dho3nTYtoyq0MFgwQSxksax8QlMH6+ZvFVXPhKs06hW2AeJkfVgNEx/ywmx7Q6bMXQ4QyWfiswgXBX2QgLF27hboNGU+VG7VX+qRRO6r0RUCGIWLPDrGbISiTZTZQL169KV29ftPYQjB3792nAp80oLfL16a3yvFGiLU01jNGWSwYIQtXbzJmCeXsmTOZ2SAODdJjVRLrmcIV2cANp0iCRiCvmSAHU4+y2+aEhtKRZPag3Bo3r5PuP3hgjPQmUhMk9Xg6fQfXN2aMXZ8FrmHh4CfrJtIAdm4xQc5eyGDnjKe8ssvijZggwfzkpULs9jlh/7MbMUH8k8gmyI5ZXVVpLW6fTCFom7J+Cn3ztfuimgd3bylDY0mvctpmSF40QbaoYLl7gBvH5cjmmapslhsP7tygtK2zaXGPMtrHXEyQ6Jsgt6+eV58ZN48pGFbL+39KNzPSjVHO4JqxY2ZnzzmtEhNEEARBEIREI1eaIPaG6I6lsJKTHAPx+PdfvFmcNy6iKZTBMpuhY0X3M85lsKx9QFAGCwbIr98uRf/77kfUf8y0qBsguuaHjumBZumcnI6/Djdu3qLPm3aiKk060meNO2Tp0y8zDRGrGYLskJDMEKNniJkV0mXIOGPmUNZt2035Pq5L71ao42iEWJulP1e4UpYRUq5ha2OWUGBsHNy3z7FBeqxKYmFVPBe44dSwk3OJMB3ymgmCnjLctp0USUAY5a24OTn954sfGKP0iNQEAVVbdmHHcPJTqssEWUrcXJxgyETSvyC3mCDojcLNGU9FaqxGGzFBgnnpo8/Z7XP6vEVnY1T2ISaIfxLVBHl477ZnU24EYc8kbTBG6AGzBAFqBNsRrObmNZXXTBCUMtM55n4NBJRHO7x+sjJCvEwtMUGib4LsXzrU9VzHZ7J6WC169OCuMUKPGxdP0NoR9bQMLjFBBEEQBEFINHKFCYJV8QgMm9ItheXWEH3OinW8aRFNsVkgKINlZIH8rYDKAnEqgwUD5DfvfkS/zVeafv9eWfqsaSdav3WPowFimh/hGiBu5oeT6XH2fIarIjFBbt66Q4069qWqzTorM8SUaYqYZoiZHcKZIWYDdWSF7Dxw2Jg5lFa9htH7leppGyHPFwk2Qg6mHjNmCuWIS4N0nLs4h7mSWJHwZdcBbOCGExpvR0JeM0FwPUKQmts+p4079xkj/TNp/jJ2Tk5+P8domCCnzl1Q2S7cOLvCaZIOA4mby0kpx04aI/2TW0yQ9yrXY+eMp/J/2sDYm8RATJBgYNxz2+f01+KfGqOyDzFB/JOoJsjFo7sD+1WM3Z9M5actk50Xlnhx7+YVWjuirmvQP6+ZIOcOb3E/5u0K0I6ZXYxX++fu9QxaNaQGze3g3OReTJDomyAob8XNYQrn+c1Lp4xX++fknqWBOdzNMzFBBEEQBEFINHKdCaJdCivpIF25fNmYIZR8CBRxxkU0Zc8CsTZDV2WwCoSWwXrDKIP1dkn6zTullAHyu/fK0FP5y6lG3G37jgwxQbwyQKJlfuiYHtC5C5eydO++fnkejuOBfW3Yvg9Vb95FqVrzzlmmiDVDJMsMYcpkISukRouu9LVDdgV6w3z42RdUoHIDTyPkpRKZRshfi32aZYSgUfpXvYcZs4Vy/uzZuJfEWrRmExu44YTSKJFknuREEwTvd/Pu/aq/h13IPrh3/77xSp6P6rZkt89pgEvzfC8adxvIzsmps0umE0c0TBCATCJuHKdwmqT//v0y7FycJs5baozyT24wQZClpFuiLJb6h8Bv37UbfOnB7CA3miC7Dh5mr1+rNu/wPPZoXs9tn9O3A/cy4fb0Wbhmo7o+NOgYqi8696M1W3cZr3RHTBD/JKoJcnjdJNfV61h9fvVMZGbg2UMbXYP+ec0EQRN6mEvcPBCOx42L4S8gAF77KyZIdE0QlCyb297ZdILQvyVSlvb5mJ3blJgggiAIgiAkGrnCBLGWwoIJgrJBMEFcS2ElHVSvdeLnbxTjjYtoyZoFgmboWVkgmWWwspqhv1xIZYE4lcFSBsj7ZZUBgv4TTbsNipkBwpkfbhkfVrPDSegNEmlpJwT2eg2fpIwMSNcMMRuowwiZtnCFMVsoUwN/K/TZF/TBpw1ZI8TaLP1l0wgp9plhhGQ2Sse/OzWEv3P7dtxLYt24ddtXMDScUkUmOdEEmYtMMGa8qZqtuxuv5Ok3bho7jlOxmk2NUf5B9gQ3J6cNO/Yao/SIlgmCAOn3nglc35ixdmGujCtXjZF64LPg5uJUut5Xxij/5AYTZPycJex82aEpC5Ybe5X95DYTZP/hNHa8KZxnbhxI0e9rBA2fOtcY6Y9ni1Ri5zOlmzEkJoh/EtUE2T6jM7svpmBeRIqYIMFsntSKncPU4h6RX/fEBPEmmibInesXXctVzetYmI7vXGS8OnzEBBEEQRAEIaeRK0wQ0wCBdEthnTh21BjN8zlq2XPmRbSELBBVBsuSBYIyWFlZIJZm6B5lsP6Qv5wyQFB26e2Pa9OqDdtjZoB4ZX3YTY7zGorUBAHffPN/qkl6nVbdqWbLbkGGiN0MsfYMMUtkXbzMB16RbVG1eWcq/PmXzkZIuVpZRsirH1VThgcapcMIsTZK37ybNxKwjUNJSaokFkwQnKMwQXDOwgTBOQwTBOc0TJBolcR6+aOqbPCGU7Meg41R/smJJohXsLjAZw2NV/JgFTY3jtO/PZePHjkYZG7AXODm44SSVF7ZK3aiZYKAVn2Hs2M5VQl83/yAYCM3D6d/DVxn/TSHt5IbTBAYbtx8dqFR/Z2793xr2Yat7HycytQP35CKNrnNBEGJPW68qd/m+8h4JQ9+k7DYghvLyctUceLpDyqw85l6t1Jd45XuiAnin0Q1QVSDbmZfTC3uUcZ4ZfiICRLMxnFN2DlMLetb0Xhl+IgJ4k00TZBbl88E9rUIOweE94H3EyliggiCIAiCkNPI8SaItRQWhHJBMEFQPggmCMoJwQRBeSFlghilsDIyLhoz8MxatoY3L6IhjywQx2boKIP1VomQMlh/KlheGSAItKP80mtlqtO85evDNkC8zA/OAPFjfFy4eDlIV65eV59jNMD7aNt7BNVu1Z1qeZghZlbIwLHODy1YUVu8ehMqWrVxsBHySf0sI+SdCrWVEQIT5PXS1TONkJKfKyPE2ii982DnckRnTp3SLollNUEiOW4tew9lgzecfhk498JtKp0XTRCYGrrZDxDKwvhl4ISZ7Fycwjm+0TRBUH7nP/6anx3PyU/mETJHuDmcNG3RSmOkP3K6CXL7zl36Z/SeYuazK9xjBIPpSZj6zJx2RWJIRRsxQUKp274XO5YTsgqPpp82RuojJkj2kbiZIJ3YfTEVjaCqmCDBbJ7Ykp3D1KJupYxXho+YIN5ENRPkmlcmSOAc37HAeHX4iAkiCIIgCEJOI8ebIPZSWGY/EK9SWPcDr3MDAaMnEcTkTIxIxfUCsWWBZDZDf5wFgjJYZhYIymDBBLGWwULfCQTa0YcCgXdkI0yas1TLAIkk+8PL+LAbHk66dv2mCuhHwwxBn5EJc5ZQ3dY9QswQlMmCEQKZWSEnAu/bib6jplKJGs1CjJCClRuEGCFe/UEQ4HR6fzdv3MgqiQUTBOcqTBCcuzBBcC7DBMG5jXPcLIkVyfHavi+ZDd44aeT08IICedEEASi9xI3lhGbVfsB1D4FMbi5O4fQdiaYJAroNn8CO5/R80crq/NZFN4gN4XwMJ/Mmp5sgythn5uKEPkjhUrBKQ3ZOTkvWbTFGZS9igoSC/iHcWCdV+KKNMVIfMUGyj0Q1QQ6tmaAacXP7AyFYfjn9oPFq/zy4e4vWDKvt2qQ7r5kgB5bBPHDuCYJg+rVzacar/XP/zg1aNbia2idufkhMkGj3BHnkeryhtSP83XfaOXVgjfqucHObEhNEEARBEIREI1eZIFghj3JBKBsEEwRlhGCCoKwQTBCUGYIJcvRIqjHanXINW/MmRiTymwWCMlhmFgiaodvKYJlZIOg7gbJLCLijDBMC8AjEj5wyN2IDxK/5YTc4LmZc0dLlK9fpwYOHroH9O3fuaZfP2n3gMDXpMoDqtMo0Q8wyWdaskN4jJhuvDuXq9RtUvn4rKlWzuTJCilXjjZD3KmYaIfZG6db+IGZZrKQjx4zZg8F7Tj5wwLEkViz6goA3ytdkAzic/vPFD+j0efcMKo68aoKs376HHeukrXv1Azvop8DNwQkr7tEDxi/RNkFgLP/XKx+yc3AaPGmWMdKbOcvde7jYBUPGLzndBEGQmpvLLhhQkdBr1GR2Xk7VW3UzRmUvYoKEgt/iHwTuS7jxTpq9bK0xWg8xQbKPRDVBzh/ZHtgv5ywNaOvUdsar/QHzZHHPMq4GCJTXTJAzyRvcj3m7/LRzdnjX6ozje2lR9488A/JigkTXBAEr+n/KzmEK5/nNS/4z+L5+eD9wfvel+R4GCCQmiCAIgiAIiUaON0FMA8Q0QVz7gaAUVnIynT931hjtzvxVG3gjIxKZJog1C+Q5LgukcFAWiFMzdGsZLATakQWCMkwIwKMsEwLywyfPUQYIZDVA3EpgOWV/OJkffkyPS5evsjL/jvJYThw5nk6Dxs+ky9ecX2PlyvUbyuio26anMkOQFWKaIcgKOXz0hPHKUCbPW0Zl6rSk0rVbZBoh1Zs+NkKqNMoyQvJXyjRCrI3SubJYyAYZNHGmMXso6SdOKBNElcRKTVPnLM5dnMM4l3FOR7svCMowcQEcJyF4dvZChjFaj7xqgsDY+suH3u/d1G/eLaVlViBzCcYDNwcnHJ9wiLYJAnD+c3Nwwry6TdJhBv7+/TLsPE4aNsVfM+ecbIIgoI3eM9xcdjXpPtAYFR77Dh1h5+X005cLRWzkRgMxQXg6DR7LjnfStwP3OH4yBsUEyT4S1QRB1sC8DoXY/TGF4C1MAF0e3b9L+5cMpvkdncsDWYX5j26bp1bTc9IhJ5kgd29c8lzRj7+fSdYv2/nw3m3aswCBcr1jDhPkxO4l7PGGdBATJJg9C/u5ZlXNbV9Afccf3r9jjPAGRuKSXuU9zxdTMEG4zxP6v28ie34RBEEQBEEIhxxtgiDIaDVBuH4gKCeEskIoL6RMkKSDdP26XqkPBI7+HXXs7UZGuLJmgaA2uy0L5Mm/+csCMZuhZ2aBVM7MAileRQXekQWCQDwC8u+Ur017k1KzskCiaYB4mR+c2aGjr7/mA2PnLl6iFt0HU9u+I2j3wcPGv7qD0jeT5iyhem16ZZXIghHS1aVHx+27d1XvkHL1WrFGSJHPv1RGiL1Rur0/iL0s1kd1WhhbCCXj4sWw+oJEAgKQXoEou/7n9SI0ZtZCrW0j8+W/XyvCzmNVvEyQuSvW0cpNOzyFQDA33pSOCQKGT53LjndSvk/quZYiSjt5WstUsir1eLox2h+xMEFwTf312/oNl/00SUfwlZvDTWgAfurcBWMGZ27dvqPdIyERTZCl6/UblqMMUiTgmvKTlwqxc3Py0/8lVuQUEwQBfO56ZVefMVPZ8aZ0TRA0u8f1npvDTa+Xq6GutV6/EWKCxJ6vHz1QK7ftyjix39sEGfAZOxZCEDNWbJnSmt0fqxCETV49ju7fdv69vHPtAu1bPEiVc9IN2iqpwDHKQ3F6n+5cz8yIvXo2ldL3rWS1YWxj9Von4dgnrxrDjoUePXAv2atjgmyf2ZmdG4JJYcWrOTqEY3h4/WRlVDlx68pZ2rOgn8oS8HPMMzNFuOMNvZ+1TQThufcDbZ70lXqtk3DMDywbxo6F7t28rLbhhI4J4nbM795wn1/HBNk4rik7N3T9fHCm+c1Lpzw/AxiOy/t9oq4HTln43wSu4zDAVg2urr5L3Dzu4j7T8LOLBEEQBEEQIiHXmCDWfiAIFLv1A3ngoxlrlRadeUMjHFmzQFAK6xmnLJDgXiAhWSD5ywVlgaDMErJAzDJYyAJBOSYE4lGeCYH5XiMmZxkgG3fspVUbt/s2QKzmh9UA8WN8XL4MgypYFwNznA1sD43cTwX2A6+7f5//jL4JfOYd+4+iVj2HUqseQ2nqghV07/5946/urN68k+q37ZWVFbIv+Yjxl1Dmr9xAFRu2oQr1WwcZISVrNjOMkMbKCOEapXNlsZANYpbFynAIct+6dSurLwjOVa++IOa57/TgoguaIHNBHC/hfEQ5m7GzFqnSTwhmrt22WwWjq33V1VcWhK4JgsBS37HTgoSAGzdnLKVrgqAElI4JZNXPXy9KQ6fMofMZjx+YYX50HTaevq+5mt9U2QatjBncwefWb1zwcS2vWT4Jzbat4yA0bT9y4pQxezBeWTZ2tR84OmRuriwbmmz/v3dKsnO46Z/+9CYVqd6YOg8ZR8s2bKXNu/erlfTzVq6n1n1HUP5PG6iSYtxYTjomyPFTZ9X7sL4vSDebBeeBfSyC6QdSjqr5kS2E/2/+DcFkbh5OOA7muBHT5mldX3HMzDHQHwuWY+fm9GG1L7PG4RzEsY8FKcdOBh0Tq3SNuR+/WJAdj8/yWPoZY0vOLN+4LWRsidrN2G3FUromCIDhzc2hI1wb/lbiM2Vmwlhu0WsINerSX/3/V0pXo39AfzRmnCnOBEGmkf1zbNipLzueU6k6LYLGYq5DaaEZoTBH7d9R/K5xc3Kq3LRD0FhsB3244s2SnmVpbrsCKkBrl1fGBcwAbhz+HcHeWHH1TKpWsHVex8LqPawf00gZCikbpipjZNPEFqqZ97yOhQL76176yq+wX6YJglX58zp8QPM7FwmVx/5jFT47LiAc47vX3TNuvUwQiJsbwj7fuHjSmCkTZKUgG4ObxyplKAWO+YaxTYxjPiVwzMfSpgnNaWHXkirors4RZmy4wvZME2Tr1Lbq/3Pvy3P/A+ctOy4gnCsX0naqbTjhZYJA3NwQjgtKvbmhY4LgPXLzo8TboTXjjZkeg+8Gyplxc1mFjA18Z2BgHV43SZldexf2p5WDqqq58XduXCTaPiN21xBBEARBEAQncrQJghWnVhMEZYLMpuhO/UAgP6zcvIM3NMIRHviDskCMhugvvB+aBfJqEc8sEDRDN7NAsspglfw8qwwWskAQkEdgHuWaZi5apTJAvuzUX/W1WLByg6cB4pb9oWN+WM2OCxcuq/9FuSsIf1+6Zgu16T2C2vbJVM9hE2njtr1qm06Mm7lYjWnTazi17jWMeg6fqAwdHc6cv0gpR0/SpavOqwcfBM4lGCWVvminjJDyhhFSuk4L+qhWc2WEoFE6jBAcR92yWGY2yLrte4wtBYPzGCaIvS8ITJBY9gUBCEpxgZx4SccE8VNmJ9bSNUGA3wbDpr4V0H/8Nb/vuvymYKZcuea8YtMEQe4nUZqPmSMSOQVacc76CZJzatCxrzFbMLsOHqbv/ukNdky8pGOC+Gma70cI0gPVz4r5ezjSWdEeTraAk1AWLha8V7keu71o6eWPqhpb4sF30SvoHy/5MUHwffVjaEdTnAmCPmjcayMRl+HjxzjU1Xeeek1l18STRd1LsQHISLVtWntjC7Fh97zeKnDMbdtRGsFeU54GkIPsJgj3mkiFbUTDBHESAtp2EwTsmNk5IY+51QTZMqUN+5pIBfMhGiaIkzB/NEwQN3EmyO0r57zNoUjl4xywSkwQQRAEQRCyg1xjgnBN0YP6gaSmqTJD+G8/YO6fopkvZ2r4kb0hupEFEtQQ/cXQLJBfvumdBWJvhm5mgaAsEwLyMEEQoP/w80a0butuWrNll+prUb5eK9qXnBqxAeJmfMBgmb5wJXUaMFoZFkMnzKIDh9Jo6+4DNHfZOpo2fwW17zuS2vcbRR36Pxb6mDixdO0WNaZdQDBOlIkS0KpNO+jrKBgCa7bspM8ad6DKjdorI+TjBplGSNm6LZUREtIo3egPYi+L5dQkfajLe0s9dIjtCwITBOc0zm2zL0g0TZC79+7Tc0U/YQM38ZCOCYJV1NzY7JAfEwQgaM/NEyvBQFmzdZexdXdQfoubI1KhJJITaKDMjdFVjdbOZRT8liCLtnRMkDcr1GLHRioYQKB4rehlF0yYu0TN6caPAr9f3NhwhMypWPBM4Yrs9qKlPxQoZ2yJ52j6aXZcdsiPCQKQ6ZMd5iJngsDo414bibhr1Vsx+o7q9jmKFjnVBEEZL5TjQsYEt/1IpLIZ/Ab7DeVmEwRlzpb1ragyJrhxkSiSYy4miJ44EwScPrhOHX9uTKTCvMg04/7mJTFBBEEQBEHIDnK0CWIaIKYJYm2KjvJBMEFQTkiZIEZTdPy7X+p37MMbG37ENUQ3s0BsDdFDskDeKeU7CwQBeDMLBIF5lGtC2aby9Vup/iDNuw9WgfzGnfrTiVPntA0QXfMD/3/Zuq3UtndmtgayNmBYwLjo0G8UdRwwRpkdHQeMVuoU+P+dB47NEvp1OAX3EWTEGIyHeWIaIjBDRkyeS1ev3zRe6R/0ImnWbZDqB5JlhDRsq4wQZIMoI4TpD2Iti4VsELMsFrJB8HlYs0Hqd+hjbC2UUydPhvQF4ZqjR7MviAmCdH4abkdT71SsY+yFMznZBIHJ5Lf3SiRC2RldssMEQQm3vxb/lB2nIzcTBHOjFA03Lh5CxpIXYoI4S0yQ2MuvCQImzV/GzhVLiQkSOTnVBAH3bl5R/QpQvonbh3CEXhVooL1vyWD2717KzSYIwHaX9q4Q1TJiMD9QpmzX3F7s370kJoienEwQkLZlduBziJ4Rgs90aZ+P6crpw2KCCIIgCIKQo8ixJoi1Hwik2xQdAWQOtxIFyWnHeWPDj0JKYdmyQOwN0d8oFpoF8n5Z114gZjN0axYIAvLIAkG5JgTqC3/+pSr1tOdgClVv0VUF9EdOmReRAWI1P1DmCq9Hxofd/IBZYRofWabHoLHUxVDXQeOy1G3weEczA7XXMQ7jMU+WIWKYIRiLsl/hgHNp8PiZ9HnTTllGyCeN2ikjxNofxKsslpkNYjZJt2aDvB/4uxOXMjIyTZDAuYpz1uwLEsvm6FYOph7V7ksQTaEJtxc52QQB6PHx95JV2PmiqXYDRvnqE5MdJgiI5PN0M0HAw4ePfPUJiJaeD1yPdTKzxARxlpggsVc4JghAzxZuvlhJTJDIyckmCEAD7w1jv6RIS/ogaLukVzm6ciqzJO7+JUPY13kpt5sg4MHdm7R2ZP2oHHMEyq+dzVwYsHuemCBuxNIEAWhujs800p4t8zsWDpz7A1W21tcPH4gJIgiCIAhCjiJXmSDWpuimCWJvio4SQhxoxrp170Hj/4WSD/XEOXNDRw6lsHQaotuzQFAPGyaIVxYIAvBZWSCmAVKlkSrfhGwGNObdvGO/CugjsL9h254gE8SvAWL2+bh46QoNmTBTmR/IzLCbH1bjwzQ7ug+ZkKmhj9Vj2ES1jxzXrt9U4zAe82A+uxmC/z1wOLNJsF/uBM6l6i06KyMEJsinX2aWxbL3B+HKYnFN0rlsEGvTayu3b9/Wao4OEySazdGt3AjMXbJOczaAE2398G/5Vfkinf3P6SYIgNmKxrzcnJEKDb6nLFhubEmf7DJB8JmHG2j0MkFMpi9eRd975h12jmgL35lzF517GVkRE8RZYoLEXuGaIAAZIbhuc/NGW817hma0iQnij5xugpik71tFC7sWVwYBtz9OQtAXQf+klaPo0YPHi53CNkE65n4TBOD3+cTupbSgSzFlZnDzOEkd8y7F6dCacSpIbiImSPaaIODujcu0ZXIr43vko5dHuwLqPFg7oh5dOvn4WVlMEEEQBEEQchq5wgSBsWGaIOiZgEAxeiiYJojZFP1IymFjdCh9xkylql91Nf5fKPNWrucNDh25lcLSbIhuzQJBKaznClfynQWCsk3IWhg4dnpWH5AW3QerwH6tr7rTkWPp2gaI3fwwtXrTjqzsD5gRKFdlNz+yjA/D7EAzdKjX8ElKvUdMVtqTlGIc/WCw0rrXiEmZhklgHs4MwXZ3HzwcVr8MlC7qPXIyVWv+2Aix9gexlsVCNkhmWSw+G0Q1Sbdlg8C0Wr2Zf9jC/lqbo8MEsTdHhwmCcx3nvNkXJJomCMB8A8bPUAFJLpATqf7rlQ+pbf+RdDlwzuiyavMOdq7sUKGqjYy98g8+4y5Dx0e19NgrpavRtr1Jxhb8cfX6DXbOSPWzVwsbW3AGvQa4sV6q1aaHMYM3yOTL/2kDdp5I9e3A9b1Yzaa0bvseY2t6oPwbN1+k+pc/v6XmL1E7eibIxHlL1ZxuRDMwjSbrsSDWPY9Q7s6NE6fPseOyQ0/lL2vsVXggkB/LknPffy4fdRw0hu4/eBxANYFhwY2JRNy1KlYmCK638SS3mCAAWSFHt81TvUIQkEWA3r6qHQFz899XDKiiAvlYsW4nec14Faz3K8yNQDKIlQkyt8MHWiYI3is33ksY52WCmDy4e4vSts7OLEtmHHN7zxDrZ7FyUFU6uXcFffModMHZgWXD2WPqJcyN7BQQKxME70HHBAn7mAfm1zFB8DpuvI50TBATlLHaMaurMvVwfHGc7fPBLEP5OBg/O2d3C5wzJ4zRj8F3C8aN/TPTEb4/giAIgiAI8SbHmiAIJFpNEDSKNk0Q9E5AwBi9FEwTBD0WThx3bopeoVFb+pe/vE1XrvEPqNjer98pyZscXvIqhWVpiO5YCovJAlEN0Yt79AKxZYGgfFPtVj1o/bY9ygRZvWmnKvOEck9dB48PMkF8GSCB4wbtOnA4M/vDaHSuyl7ZzA/T+DANjz4jTU1R6jtqqtLaLc6NncdMX6DGYx7TDMH8VjNEd1W2HXzWm3buoxotulLVZp09y2IhGwTH1SsbBCaVmQ0yaMJMY2uhHE5KyjJBcO7iHDabo8MEwTmOc93aHD3aJojJgwcPVXbByx9VZQM6fvTPgfP//cr1adqilWpevyB7BsH+371XOlv1x4LlaMjk2cZehQ8ybnqMmEQ/fTn8oB7MmA079kb0+eP8KVqjiQqMohRaNIRj9GVXvQfcRl36+9o2roOzlq0xRusDMwTmyZMwoplj6UfYX/RdOXnmnDG7PwYGvv94H9z7C1fYpybdB6r5h02Zqz4D7nV+hPJeOG5eVPuqa1TOH8xRt30vY9bogjJx0TgmnDBvm34jjC3xIKAPMw6v564r8RIyVlr2HmrsVWSgP1e9Dr2VqW3/joSjN8rXpFEzFqhroxPYHt6D/TMIV5irQce+xuyPGTpljjK2uDHhqkrz+K98Tlo1Rq3Aj7bS9/rPOowmyMY4n7qNUjZMVaV59szvSweWDlW9Dy6nJ6km37HmTNJ69thErPl9lPngxtUzqYHX9g4dq6PA/Oi34pc71y7QuZQtlLJ+sgpgm8f86La5dOX0oaCsj1hxcs8y/j1FrD50MyPd2ApPRMc8ML+X8XTz0mn1On68t86nupssHPjMrp5JUccVJhU+U3yfkleNVec3PnNBEARBEITcRK4wQdAbAQFh9PswTRD0UEDgWDVFN0yQU+nON6Avl66mDIseIycZ/xIK/hZicHhJuxRWYc9SWGZDdGsWiCqFVaqqyjLwzgJporIWUMbp0yYdKCnlmCp/9VXPISrAj7JPs5esyTJArCaIjgGCHh6nz10Myv6AKYFMDbv5YZoeMDv6Geo/eprSgDHTleavWG8c+VDmLV+vxsNEsZsh2B6MkGs3wm+QjiwSmCDVm3fJ6g9iL4sV2iTduTcIzClrNkgLpsyHydHUVGWCqObogXPXbI4OEwTnNs5xnOtWEwTfh1iDhs8oXVW7bU96tUx1+tdn32UDWdB/vviBanyNsjwdBo1WgXpuVa9AdC9w/Vq0ZpMK0hYOnENOpgjKXaGnCAL5CBSmHNNbySkEg5XYc5avU0FrZHH8+u0S7PGGYNwheJnvk3qqBBcMwbMX3FfoCkJeA79ByIZq1Xc4lW3Qil4oVlllc3DfKQgl6lCSCxlRTbsPUt/HcBctCIIgCIIgCIIgCIIOucYEQY8EBIbRONo0QdBLQZkgaIqenEznzzo3y/7lWyWUaYFsD6eAMgL9yBYJMTrcpFMKyzBBdEphmQ3RrVkgZiksZBvYs0CQlWDNAkH5JgTukcXQvPtgZVrsTUrNynZA0B9N0/0YIDA/TOH/Ww0Qlf0xdAJrfpiGB8pzQYPGzsjUuExNnO1cix6ZLMMnzVHzZGaQZJohMFqwPWz31u07xqv9s3HHXqrVspsyQkLKYvnIBoEZZc8GweeFpvROnDx+PLM5us0EwTltN0HM5ujxMEHsYJvoJ3HmfIZqVo9yL6fPX1TlxITwQVYHAvUItuO4njp3QZWfQbNvITbgWoFMI2R2oHdD+tnzqlRbrDKsBCG3g+8OvkPm7wN6fOF7ddMly0MQBEEQBEEQBEEQYkWONUFMA4QzQdBAOsQESTpIlzL4Fbx4WP/HP72RZVyg/4cT6BsSZHJ4yU8/EB+lsLIaoluyQKwN0bleIGYWCJp6I4CPbIZ5WIF54RItXbtZGSEo/4Q+IegZYjVATBPEzQC5duMWXQ+oz6gpQdkfMCcyy16Fmh8wOwaPn6k0ZPwsGjphdpaGTZzjGNw/cDiNJs1ZqubBfKYZgu2YWSF4TbjmAN5Ls66DqGbLbsoYMstiIRsEWTM62SAwobhsEJTEKlmrmbGlUM6cOvXYBAmcuziHcS6bJgjOcZzrOOez0wQRBEEQBEEQBEEQBEEQBEFIdHKVCYKG0aYJgkbSCByjsbRpgly7etUYHQxWWVuNi3yV6xl/CSXpyDH6luW1nvLRD8RvKSy3hujIQrBngSBbAVkLyF6ACYIm3wjyp6SdDOgE1WvbSwX8kf2ALAt7FoiOAQJhrNUAQZaG1fwwsz2CjI+JMD1mq7FW3bjJ10U+dfaCGo95YKZgXpTUyjRDMrNCpsxfTg8fhb96/sKlK9Syx2Bf2SAoOQbTCSaINRvE3iD9zXI1ja2EcjFw/ioTJHDO2k0QnNucCQIJgiAIgiAIgiAIgiAIgiAIweQKE+TevXtZJggaR9tNEDSYRkD51i0+oL7v8JEQ8+LQ0RPGX0Mp27B1yOtZ+egHEm4pLM+G6EwWCLIXkMWAbAZkNTTq2Jf2Jx+hI8fSqXGn/qoMVN3WPWjNpp1ZBkiQCeJggNy4eVtpwqwlygAxsz/Mfh/WzA+78TFi8lwaOSWgqfOCBCOC4/rNW2o85rGaIY+zQiarf4/UHLhy7Tq16jk0qEm6U28QlBrLKollyQbhGqTDvHJq/nr18mU6uG9flgmCc9huguBcFxNEEARBEARBEARBEARBEATBnVxtghw/fjzIBLkfeB3HknVbQgyM2u16Gn8N5fDRk/RtGBy2MSFKmFJYoVkgyGJANgOyGpDdgCyHTgPGUIN2val2q+5Ut01P+rJzfzpyNN2XAXLz1h2asWhVkAFiZn9kZX4wxseoqfNp9LQFNGb6Y63etINu37lrHPVg0GQb42GiYD7MCyME2zGzQo6nnzFeHRmoa960y0DXbBCYS49LYj3OBnFqkA7zCnXSOW7euJFlguDcNU0QnNN2EwTnvpgggiAIgiAIgiAIgiAIgiAIPDnSBEEPD7sJcvPmzSwT5NzZsyEmyKGkg46B4lEzFoQYGE8+8w5dvMyXzwIVG7cPGROiKJkg1lJYTiaIVykssyG6NQsE2QzIajB7gSDbwcwCqdemlzJEegydQBmXrmQZIFYThDNAoGXrtrIGSGafj9lZ5odpfMA0ST2WTqs27aBxMxYpjZ+5iOYsWUPJqceMIx4MzoFjJ8/Qyo3blaGizBAzKySwvY3b9xqv1MOrAfKZCxnUsH2fkGwQlBSzlsQKygaxNUi3l8Tavi/ZmD2Yu3fvupogOMfFBBEEQRAEQRAEQRAEQRAEQfAmx5sgDx8+dDVB0lLTMjNBkpOM0aF0GDSGNTEadR1gvCKUtJOn6R9gcDDjshSnfiAosaRbCsspCwRZDjBBzCyQ+u160xft+9KXHfvRzEWrQrJAnAyQW7fvqIbkVgPEmv1hZn7A/Bg7fSEtXLmBrgfmu3v3nurzMXH2kiDtTUo1jngo1wLjsA+H0k4oI8U0QmYvXePaKNw8fx4Ezh0oOfU4rdu6mx55GAnI3KjTuntWNoifBulcSaxFazYZMwfz6NEjZYLAuDNNEJzLdhME57yYIIIgCIIgCIIgCIIgCIIgCM7kKhPkytWrjiZIyiF+1T1o2mMwa2L8y1/epnMXLxmvCqVKi87suCw5mSAx6AfipxQWshesWSAI6qMhOpqk12n1OAukUYe+qkdI084Daef+Q0EmCMwH0wQxDRDTBLl05aqjAYLsD5S6GjtjIU1fsFIZIPfu3Vc6ceosTZm7TGnq3OVKu/YfNo52KItXb6K046fUfpy7eJk279pPk+YsdSyhBXDOjJm2QDVOHzB2GnXoN4ra9B6h+n5gn2CKuHEw5ag6VtEoiTVr6Rpj1mCwj04mCM5tJxPEK5tFEARBEARBEARBEARBEAQhr5FrTZBT6elBJgjkBDI+WBMjoLrtexuvCuXE6XP0j39yyAaJRlN0zX4g4ZTCQhaDPQvELIVVv20vVfoJWSBNOg+gZl0HUYf+o+jUuYueWSAQTIjZS9ZklsByMEAmzFpMZ89n0P37D7KUcvQkTZu/QgkGCbR9j3MGz/zl65VhgiyO1Zt3qoyVsxcyjL/yrNq0k7oNHk9dBo1VPVDa9xtF7fqOpDa9hlOrHkNpWGBfHz58ZLyaZ9veJNeSWDCddEyQ6YtWGjMGgywWqwmCc1hMEEEQBEEQBEEQBEEQBEEQBP/kCRPkcHIypaY4ZxTU69CHNzIC+qen36JT5y4YrwylRuvu7DhHEyQGTdFhgsSmFFZmFkjzroOoZY8hNHLKPJUNwmWBWA0QCGYESlNZDRCUv0K/DxggSSlHgwwQaOO2vTRj4SqauWh1ljbv3G8c6VCWrd2iSmahfwiMlUNpx42/8Bw9eVplgHQfOoG6DhpHnQeOpY4DRlN7mCBGNkiL7oPVXF+7lNMC6F/iVBJLty/I5PnLjdmCwfntxwTBd0BMEEEQBEEQBEEQBEEQBEEQhFByhQly9+4dTxPkiIsJUqttT97IMASjw4nzGZfp355/L3RcBE3R490PxLUUVpdB1LzbYJUlgWyJFRu2exogd+7eUz0+Vm3coQwPmBkoXbVm8y7al5yqDBKzHwd0/8EDSj2eTrMXrw5ojWqIbmrDtj3GkQ5l/6EjtOdgCs0KjNt9wPnzBQ8fPaJl67ZQ7xGTqcewidR9yISgbJC2fUZQ617DlNmD9zt1wUpPU2Hu8nUeJbHc+4JMmLPEmCkYbPfA3r1iggiCIAiCIAiCIAiCIAiCIESImCABardzN0FQ8gqlr5zoNXpK6DgvEyTCpujR6gdStZl3KSxkRyBLAtkS6KEB48HJBIEBApl9PqyZHlbjA0LZKQj/vXNfMs1dupbmLltH85Y/1tqtu4yjHMrW3Qdo664DtDewP24GABqeT52/XDVr7zNyCs1YuJKGT56blQ2CUl/Wklh4v3jf81esN2ZwZsLsxS4lsdxNkElzlxqzBCMmiCAIgiAIgiAIgiAIgiAIQnTIMyaIW0+QBp36hpoYNqEJuhMI5D9VoFzwmCATxNIU/QX0A/E2QaLRFN1PPxCvUljIkkC2BLImkD2B8lYHDqU5ZoFYDRDO+LDq/v2HtGj1JtXjY8GKDbRw5WOt2bTDOMqhoFk7sku8Slet3rRTNWlHs/a+o6ZmZYOgN0jnQXxJLJggMIFWbdxuzMKD/h1dh4wPqy/ItIXOPUHEBBEEQRAEQRAEQRAEQRAEQYicPNMYPcXFBPnSpTG6qe/84XU6kHLUGBHKsg3bgscEXq/6gTz9lqcJwjZF1zRBIm2K7qcUFrIlkDWB7AlkUaC3Bhqdb9yxl44cT6drN26yWSB2A+TRo6+DdP7iZWV+LFq5kRat2qRKZ0GLVqylJbPG0rZp7WlBl+K0sGsJWta3Iq0f/QWd2r+aUo4cU/O5cTDwmaE5O5q0Dxw73cgGmUw9vUpidR2kTCCYQZt3OfclATCBkD3j1BfEyQSZuWS1MUMwOK+lJ4ggCIIgCIIgCIIgCIIgCELk5B0T5FCyMTqUZj0HBxsYDnq7Yh1jBE/p+l89fr2HCfLDl2CCFKafapsgzk3RnUyQaPcD4UwQNBpHian+o6epbIvJc5bRyg3bMnt/nM+gu/fuOxogyHiA0GPk4OGjKrNjx95k1d9jw7qVNLdzSZrT4UOa0/b9EM3vXISW9CpPl04eNI5+KChhhqbswybOpiHjZ6n9w35if+0N0u0lsfC+8f5xHL4MHI+9gffjxskz5+iTL9v7ao4+Z9laY3QwdhPk2PFjriaI+V0QE0QQBEEQBEEQBEEQBEEQBCGYXGuCIGBsNUEQUHYKEncfMTHI7HDTDIfV+wANv7OapDMmyHdhgvwVJkhBbxMkfzn6U8FME+TZwpU8TZBwmqL77QeCklEoHYUSUiglhZJSKC2FElMoNTVo3AwaOmE2DZ80h0ZOnaeyRCbMXKxKXW3fk0RpJ07TlWs31OdmGiBWmebIqeRNNL9TYdb8sAuvu3YuzfgEHnPx8lUaP2uR2g/sD/YL++e3JBZMEJhCUMrRk8bsPJt27lfH2WyO7mWCrHIo9YVz2skEuXD+vKMJIgiCIAiCIAiCIAiCIAiCIASTq0wQBIbdTJBHj/jSSRPnLQ0xO5z0izeLq5JPTgyYMCPztaYJ8ue36Yln3qXvPOdtgvz67VL0v+9+RL97r4ynCfJ66eqquTaabKPEko4JEk5TdK4fCEpIoZQUSkqhtBRKTKHUFEpOofTUiMlzVc+QsdMX0viZi2ji7CU0de5ymr5gJc1ctJrmL1tPG7bvpeTU48o4Qi8R0wi5efm8tgFiCmWy7ly/aHwCpJq2T5u/XG0f+4H9sZfE8tMXBMcDx6VJlwF0PuOysRWeCXOWZJkgOP5BzdFtJsje5CPGqGDu3LmjTJDDHibI7Vu3xQQRBEEQBEEQBEEQBEEQBEFwIUeaIMAM/EJ2EwSBYtMEQQDZNEHu3b1rjA5m9ZZdIWaHm1r0GmqMDAWB/JdLV/NngrxRjH75ZgktE+SlEp/TK7omSI1mqkk3mnV7miA+mqIHmyCPS2Gh5BRKT6EE1ehpC2jsjIU0YdZimjxnKU2dt5xmLFhJsxatprlL19K85etU43P0/li2dgut27yLzpzPoK3TOtCcdgVYs8NRgdfvXThAHf979++r+WG+uJkgOn1B7CYITKIO/UaqEl9O4PNv338kb4IEPh98Tvi8YIKcPv/YuLFy/fq1EBPkxIkTYoIIgiAIgiAIgiAIgiAIgiD4JNeYIAgIu5kgCCjfvHHDGB3M4aMnWbPDSf/4pzcoOe24MTqUtJOn6V//ml/PBHmtqJYJ8kLRyvR3TROkiDJBmniaINWaZ5ogtVt11zJBvPqBOJkgU+Yuo2nzV9CMhato9uI1NHfZusxG6Ks20ZLVm2n5uq20csN2WrtxM83rUIg3OjyEbBD0HMFcMF2wXWwf+8H3BfHXHN00QZAxM2TCLNf+GzcC52KNlt3cTZDA5+Zkply+dCnLBElLORxigly+fElMEEEQBEEQBEEQBEEQBEEQBA1ynQmCALFpgiBwbDVBrl7mSxkhaM2ZHW56o3wt10D4qJkLPU2Qn7yiZ4I8p2mCFPRhgqApuo4J4qcpur0fyLgZmaWw3EyQpWs204p1W2nVhh20csVimt+pCGtyeGlB56K0ZvkCtR1sz9sECW6O7mWC4Ljg+MAEQebMwlUbjU+a5/ips1Q2cNydTJAPqzQyXhnK+XPnWBPkzJkzISbI/fv31XcAGSiC4AeUBzx89ATtTkqhY+lnXK9ngh4wNmGQ70lOUZltgiAIQs4C91Opx9PVb+ORE6fkt1EQBEEQBEEQcgm5wgRBINhugiBgbJogCCQjoHzxwgVjdCjfe/Zd1uxw05hZi4zRPMXrtnQ2QV4upGWC/KVQRS0TJH+l+tomCJqia5kg3QZrmSBOTdE5E2TOkjUhpbBWrt9GqzfuoJWLZtG8TkVZk8NLczsWoRnTJmaZIOg/MmnOUrUfOiYI3peWCRI4TjBBcNz2OfT0MEHjcycT5JMv2xuvCuV0ejolHdifZYKcZEyQG9eviwkihAXKsDXvOYR+9mpheuJ3r2Tp2SKVaOiUOfTgwUPjlYIuMD5qtelBPwhc463H9M0KtWjaopUSRBMEQUhwMq5cpfYDRwfuxUsEXcd//34Z6jNmqupfJwiCIAg5nd6jp1Ap9DD1qTL1v6K9yanGLIIgCDmTHGuCIOhrN0EQGLabIAggmybI2TOnjdGh/C7wkMMZHW7697/mp1PnnI2VS1ev0X+9FXiYSiAT5JNG2WeCoCm6uwkyk+Z2LMyaHF6a3b4QzZw1mzZu30f7Dx2h0+cuBra9lBYEtrNpxz61/WiZIDheOG7473MX3Rulo+k6Z4I06tTfeEUox48ezTRBkpOzTJBT6enqnL548WKWCXL37h0xQQRfbN17kH78YsGgAI9d71SsQzcD11NBj1nL1tA/P/0WeyxNVWrcXmXeCIIgCIkHjOxfvlmcvX6beqFYZWWUCHkPZAT1GzeNqrfqphY3/CrwbPdfr3yo9Jt3S9H7letTnXa9aOT0+XTx8hVjlCAIQmLyT6hWwvzO6eiLzv2MWfImyPrftjdJLRxs1KU/1W7bk6o070xVW3ahuu17Uddh42nKguW0efd+unP3njFKEIREIteYIAgImyYIAsUIGCNwnGWCJCdT+okTxuhQ3vq4Nmt0eOntinVcA9BLN26PyASJRTmsaJsgqhyWZiYIymE5mSBrA8dqTocPWZPDU+0K0vHjJ+n6jVt09fpNOnH6HK3csIMuXb5GV67ivLhGx9PP0JLANmHaYL97j5hMA8ZOV+9nxJS5vjNB0Fger3NrlH4tsD8fN2wbYoJ0HjzOeEUoR1JSHpsgqWkhJsiVq1dDTBA/K83xsD8n8BkgeBsNzV62lpKOHDNmFxKVo+mnQzIVnPTB519I9oIG67bvoX/4w+vsMbSrQce+xigh1kT7GgctXruZ7gWut4Ig5C4QtLZnRjrp7yWriKGdR8D1vu/YafR84PmLOxec9O3AsyEWkyzfuM2YKXG4HHgemr9qA/sbF67mrVxPS9YFnuU27VALbS5duSb3j4KQ4Hz3T2+w1y8dNeyU955nUo6dVAbHnwt9TN956jX2uHDCcYZx3m7AKPUcLghCYpArTJCHDx9mmSAIEIeYIKlpKqB8NM25fFGttj1Zk0NHPUdNNmbhqdtlQFx6giDIrmOC+OkJgiC/bk+QrMboYfYEWbNpJy0a1oQ3OVyVn9aOb6UMEJgOMEG27j5IBw6nKQPENEEuXb6qlH76vDJEzl24RMdOnKbeIyZR38D78DRBjMboVhMEDeb7j5nmesO/Zc/BEBNk8rxlxl9DOXTwIB1KOphlgqDBP87lc2fPZpkgN2/eVOc8zn0/Jghe67VqPVyJEZLY1Gzdnf3cnLRp135jpODEu5XqsseOE8ySsxekT0iswbXwe8+8w34Gkapy0w7GVgRByC0gOMF9352EhR9C7gW/IVjFi2wP7vP3o/yfNqC0k4kT+CrXsDW7n9HWfwSedV/+qCp90qQ9jZ65QDKoBCHBEBPEG/wWrN22m4pUb8weB7/6VkAfVvuSVmzabmxBEITsIseaILgw2U0QBIZNEwQBYwSOEUA2TZCUQ8mOweLRaGTOGBw6+u7Tb9K+w84GCzIFnitdNcQE+fHLeibIs4Ur0fNF9E0QlF/yMkEQvEcQX8cEgSkAcwAmARqIe5ogU+aqhuRoTI4G5ZPnLKWp85bTjAUradai1TR36Vqav3w9LVq5kZas3kzL121V2SDrt+6mMycOqybnvNnBa26HD+nimRNBJsiu/Ydoz8EU1gS5mHFF6cLFy3T+wiU6eeoc9R011cUE6UcN2/dxNEFwPBev2Wx82jx9Rk0JMkF2HThs/CUYrDBEU3SYIGjob5ogaPSPczojIyPLBLl3755vE+TW7TvsD3M0hFXxQmJy/eYt+pc/+zO/yjZoZYwWOGD6ccfNTW36jTBGC7Hi4cNH7LGPhgpVbWRsRRCE3ACuFz95qRD7fXfS2x/XNkYLuQ2UAi1Zpzn7uYcrZOAiSyIRQNkubh9jLWTHFKzSkHbsTzb2RBCE7ERMEHeQNVfgs4bs+4+GUHHhzHlZGCcI2UWuMUEQEDZNEASKETBG4Ng0QRBQRmAZr+M4kHKUNTh09XShj11LZZw4e55+9k7JUBPk1SL0P6/rmSB/K/YZvViiiqYJ0phKVG+qZYIgqI/gPoL8CPZ7mSBdBo2l7kMmUM9hE6nPyMnUb9RUGjh2Og0eP5OGTpxNIybPpVFT59PY6Qtp/MzMbJCpc5erZuX2viBmNsjG7Xuz6iZmnNhP8zV7g8zr+CGl7VqpDBCzFBZ05dqNTBkGiGmCWA0Q0wQ5nn428F4mqffXpvcIatVzKLXoPpiaBd5/k84DPE2Qyo3a02dfdqD0s879YfDeKjVqpz6ndyvUUWYEx40b15UJgh42OGfR2N80QdDrBuf2tWvXskwQ8zsgJojgBprYcZ+Zm3D9yemgke3B1KO0YPVGVc+7fsc+qqnf9MWrjFeED+bgjpubStRuZowWYoWYIIKQu8B3GmUksHpy2JS51LT7ICr/RRvVxDxSzl28xH7X3fTDv+U3Rgu5ifMZl+nZIpXYzzxS/eMfX6c1W3cZW8o+sssEMYWV0NW+6upaRlgQhNgjJogze5JT6NdvR54J6CWUTRSyD8TOYHbBnJ+2aCV1GTpe9XVBnODwUecWCkLuIMeaIMAMAEOmCYIAMQLFCBibJggCyQgoI7B89QrfsA5zPIkSGozBoauGHo2i1u3cR99/sSBrgvz8zeL0q7dLapkgL5eqSq+Vrk5vlKnhaYKUqtmcStdpoUyQCvVba5og/VTwHyYAzACYAjAH2vcd6dsEcSyJZckGQdmqR4Hjb+Xc4S20sGsJmt+JN0Pmdy5CC7t/RGePJ9ONm7eDskCyTBCNLBAIZbEOHTmuymJ5mSB1WvWgmoHjVb15F1VSDP1VYIJUatiWmncb5Foret+hI/RexXpU8Yu2xr+EgvPWNEHQywbnLhr8myYIet7gHL9963aQCaKLmCB5E9zQcZ+Zm/5QoJwxOueA70LznkPoldLV6KcvO6/ufaN8TWNE+OCGiZvbTcVqNjVGC7FCTBBByPmMnbVIBQhQkgiryLnvI6S7AMQJlCjk5nUTSv0IuQsE5dHvhfu8oyXck8B0y06y2wQxhf2QhsGCkH38+wvvs99NHeVmEwSlEGNVNtwulEkW4gt+g7GIBgsevv9cPvZzgToPce7dK+QOcpUJgsAwAsQIFCNgjL4gCCAjkKyaoycdpHNnzxijQ3mtXA3W3NDVtwLyqvM3bPp8VxPkN+9+RL/NV5qeer8s/bGAhglSrpbKLEBwvcAn9b1NkIZtMzMXjOboCOYjqI/gvo4J0nHAaOo8aCx1GzyeegybqJqLo5QUmo3bm6M7lcQys0EWrd7k+kDw6MFdOrptLq0cVJUWdS9F8zoUCugD2ji+GR3fvYwOp6QqAyQaJsjZ8xnKjGkLE6THUNUUvmmXQdS4U39q1KEvNWjXm+q1cTdBcHynzF9u7D3P0MCx6ThwjPH/Qjlx7FhmU3TDBEFPG5zDOJdNEwS9b3Cum03R3Rrz2xETJG9y9foN36t+cmLAHo1Iufdi12tlqxsjwiec7BqsYBZii5gggpCzQUCa+/5xitQEwfUCmR3c3E5CrwMhd1Hxy3bsZx1todRWdpIoJgiEnmrI1hUEIf7gGQb9eqwqWqMJ+121K7eaIEvWbXFddBFtocG6EF8adOzLfhZ2dRzkHKsTcgc52gSxNkdHQBiBYQSIESg2m6MjgKyao8MESU6mY0fTjNGhNAhc1Dlzw49+9loRlVLtRt3OfekHL+qbIM8UqkjPF/mE/lrsU08T5INPG1LhKo2oaNXGVLx6EypZsxmVrq1ngiDIj2A/gv4I/sMEgBkAU8Bvc3SuJFZWNsiClbRh2x66F0E69I3AZ52UckzLALGbINZSWFYTBFq9aSfNXLiKNUHQNwX9U5A9g6bypgnySaN2VLFhGyofOL7l6n1FKcdOGnsZyoOHD2nZ+q3G/wvlUFJSpgliNEXHuYveNjiXcU6bJgh64IRjguCBg7vYR0Mbduw1tiIkImjqzH1uTsqJjdtQ9op7L3ZFwwQByDjh5ueEMhDH0p1NeCE6IBuPO/7RUOFqjY2tCIIQK3B/x33/OEVqgoBmPQazcztp4rylxkghN4DGt9znzAllrWBkDJo4UwUNe42aTPk+qacdOMN9wJETp4wtxx80auf2K7v0eYvOxp4JgpDdtO0/kv2e2pUbTRDEbr7vkhkQC4kJEn9qtenBfhZ2iQmS+8lVJggCwwgQ25ujKxPEaI5+ODnJ8aFp0vxlrLHhV6+UqU4PHjw0Zg3l4aNHVKDal/Tjlz+kn7xahH72WlH6+RvFVdq/lwny9+JV6OWSn9OrH1VTJshb5WrSOxVqe5ogZeu2VEF6BOsRtDdNEATzEdT32xzdtSSWJRtkzPTgbJDp81dQ6rF0rQdXfL737j8w/l8wFzIuU+rR9KxeIJFkgZgmyJlzF+n02Yu0ZvMutb+jpsyjZl0GqeOB46JjguA412ndw3G/wR2HvjTobXNg717Vu8Y0QVDODecwzmWc02ZTdJzrfpuiA7wWgbzvPfOOapRtCg923I8AJ2QUWMdCKJ3k1OdESAzQ9+if/vQm+5na9WKpKlEJLsWbeJsgC9fobQ/6uJFzGTwhuiBIZb/GQdznwgkBLftYPBwNnzrX2IIgCLEi3ibIqXMXVPNqbn67fpvvI7r/wPn+Tsh5oNE991nbhUa2GVeuGqOCSU477lqC06om3Qcao+LPgPEzVBkc3AuaiqQ3QKTCby2OnSAI2U9eNUHwm/580crse42lxASJP2KCCCY52gTBw49pgiAgjMCwvTk6Asj25uh37/Lpt1idw5ka4ahKyy7GrDwZV67RM4ELbogJ8k4pZYL8/r2y9If85ejpghW0TBD0BclfqT4VNPqCFFElsZpQiRrNHJuj65ggfkpiuWWDoDfI0rVb6Nr1m8YRcOf+g4e0ace+kF4hJlhRDdPCbxaIUyksqwly6swFSj9zXin16Enq2H+0Y1N0HEccTxxXHF8cZxxvlL3yy/Vr11Q/EJyj9qboOJdxTpsmCMq/hWOCOOGnv8FSl0wWIbFZtGaTZzD4mcIV6eJlvndSohNvEwQMnjRLre7ktmOqwGcNpRFoAuD1OZmq1Li9MUIQhHgTbxMEbNq137NG+m/eLUXHT501Rgi5gbSTp9nP2i6UbnJb3AZ0e69FoydZNPFTQhIlPacuXKGE2vnj5yyhEdPmqV5seF/h1NIvXquZsSeCIGQnedUE6TBoNPs+3fT798uo696WPQfo9PmLhLLT127cpDPnM2jngUM0cMJMevqDCuxYU2KCxB8xQQSTXGWC6DZHv3LZuVzV7wIXNc7U8K3Aha1/4ALoxqGjJ+j3+ct5miB/KVSRnitciV4oWpn+XuwzeqnE5/RKqar0eunq9GbZmlnN0f2aILrN0fVKYjlkg0yZS5PnLqMjx09pP6xmXL5Ky9ZtVT1DnEhKOUpXr+EHx2aAaGSBOJkgMEDsJsjJ0+dUA3edfiA4vui/gj4s6Mey68BhY2/1OH/uXFA/EHtTdJzTkTRFd0NMkLwDGvRX+KJNyOq/X7xRTN0A3wycXzmV7DBBAMppIMPKXhLjTwXLU79x01SJJiH7ERNEEBKf7DBBAALiVVt2UVlk1m385KVCKvh76co145VCbmHc7MVBn7WTEOjSQWc1Mc4vP2VsY40fE2Tx2s3GKB4YRVhsg+dZbryTsrNEmCAImeRFEwTPvP/xV/2+YMgaReUYnXsPr4C7mCDxR0wQwSRHmyDADARDbs3Rs/qCJB2k06fSjdGhNAk86LCmhl8FLmz/8Oe3adXWXcbMPLuSUuj/vVeG/ueNYvTLN0vQr98uRf/77kf0u8C/PZW/nAqioSSWjgnyfqV6VMAwQQqH2Ryd7QviUhLLLRtk6MTZKptDt3QAHgr2H0qjWYtW0+zFa2jVxh3GX0I5nHZCZYGYBkg0s0BMEwQGCLRxx17HUlhuJsinjdsHflz1S0QdS0t73A8kBk3R3RATJO9xOfA9WblphyrptHXvwagZatlJdpkgJlgNhObsCALsTU6NaoBOiBwxQQQh8ckuE8QE21+1OfO3cePOfSpILOROdAIifyxYTvs8a9FrCDuHXYm02CSaJogJemOidBw3B6cxsxYaIwVByC7yognSc+Qk9j1ywuLB7fuSjZHeiAmSeIgJIpjkeBPE3heEa45u7wuCjBCnG1qkxLOmhl8FLmxP/PEN+uErH9Ixj/T5jbv3028CN4tuJsizhSvR80Uq09+KfRZ2c/Rw+oKY2SD2klj2bBBrb5ABY6bTzMWrKeOy/qo5NDhfvn4bTV+wUjVOh2CgOHHr9l3HMljhZIFwpbBME2RfcmpQKSy3fiA4zjjeOO44/v3HTDP22B2sFLf3AzGbolv7gUTSFN0NMUGE3EB2myBCYiMmiCAkPtltggh5h9L1vmLPK6sKVmlovNob3YAazvFEIRYmCBg5fT47B6fqrboZowRByC7ymgly7/59+q9XPmTfI6deoyYbI/UQEyTxEBNEMMnxJggegEwTxN4XxNoc3d4X5PatW8YMwSCo/BM0t+OMDb/6w+v0xJ/epD8X/5Ru3eH7kJgs37idfvVOSfrV2yXDbo4e7ZJYQdkglpJY1mwQa28QlMUaPX0BHTpy3NeD6ZHj6TR9wQqaOnd5puZlauf+Q8YrQsEDRJAB4lAGK9wskCATJCk1qBSWVz8QHG8cdxx/fA6HNJr+oUQb+oEgU8mrH0i4TdHdEBNEyA2ICSK4ISaIICQ+YoII8aJsg1bseWUVGqfrgsAJN4dduH9PFGJlguC57B/wHMzMY9dfPvzYGCUIQnaR10wQ9DPi3h+nn75cSLuyiYmYIImHmCCCSa4zQZz6gqCskLUvyLkzZ4wZQqn6VVfe1PArwwR54um3qHCdFvTokftN75wV6+nXMTJB/JTE4hqkoySWUzYIymINnzSXklKP+cpMQKPg1Zt20IRZi2ni7CVZmjxnqRJKXjnhZoBEMwvkxKmztPvAYd+lsFCKrLBhgtRq3YO+9jguJ44dC6sfiJggPDg2d+7eU/WJEyVIgmwf7JNufwjs97a9SarJWm4B7wmfiZ/j4Ie8boLg+CKggWtrtLLEvLB+pvjeJTI52QTB54nPFQ9hiXJN08XvtS8e4FzF8Uyk34hExfodx/kX62tLXjdBcvJ33cR8DzhvEpl6HXqz55VVT/7lbbrtsZDN5MNqX7JzWPXLN4sbr04MYmWCgPcq12Pnsesf//i6MSI2mNcwnJOJcJ+C/cH3O1Hum8z9wfGJ172jF+ZnFq/fnWiD/UemQazue6znNP47GkTbBEnEez8rhao2Yt8fp85Dxhmj9MkOE8Q85riuR+u8iBfWczpW18VENUHw3vGZJcpvgi4433Cdy2nnGsjxJgjAyWJKqy+IURLLiUWBmzzW1PAroyTWE0+/SU/85R36uEUXz5Nk4rxlETVHd+oLolsSi2uQbs8GsfYGGTR+Bh04nObr5uSbb/6Pko8cV4bH2OkLaeyMhTRuxiIaPzNTMEWgC5euGCOCwbZiYYCwJkh6pglilsIys0B0SmGhJBlKk6FE2dzl64y9DwXv5+D+/SH9QJDBhHMXGU1cP5BoXiRzsgkCkwBp93Xa9aJXy1Snf3323aD9xcPVM4UrUuWmHVST6ng0YMT3HL0hmvccQu9Wqkv/9ly+oH369dslqGiNJiq19tzFS8aoYIZNmatei8AtViLi/+e0xqy4kZm5dDV91qwTvfxRVfr3F94POg64AcTqmgKfNVS1tGcsWa2a04b7sJOXTBDcLCEg0WHQaFXS4w8FyoWsusR34bmin6hG+LiBX7Zha8RlOG7dvqOaAsIo+HvJKvR927mNz/S/XyuigkGt+46gOYFr34nAtTQRbpBykgmSceUqDZ0yR1238Nla9x1NHF8vV0NdXxKxoez+wD1Bl6HjqVjNpiGlBhAA/ODzL2jwpFl0/SafkRttzl7IoFEzFlDd9r3Ud99+zuJ7g5XInzRpT33HTqOUYyeNkXkHPMjsSU5R51zjbgPVNeXFUlVUU3DrsYK+Hbi//X/vlFRlghp07EvzV22IarA7L5kg+A5MXrBcHfN8n9SjH/29QND7w/f+d++VpjL1v6Kuw8b7qkceT3AfM2jiTKr4ZTu1v9b38OMXC9JbFWpRm34j1G9BIoHfJ+u+OmlK4DPyAr+N/4SFb8x4q3CvmkjE0gTBNZWbh1M0n2n2HTpCvUdPoY8btVU9XXDNsm4L5yQMGnzvcI8azesXx7UbN2n0zAXqXuyFYpWVsWbdH/wG4bcRv5ntBoxS11T0mIvV9W3XwcOqdFv5wP48lb9syPHBdT//pw2oafdB6juCcyQW4Hdnd1IKDZk8m77sOoA+CjxL477S6XfnN++WUvcPCMLjfj9W+xUuFy9foU6Dx6pr+b/8+a2sfcc9R/FazVS/wHBAYHTWsjXUqu9wdY7gOFjvCfHfaNiN3+xPm3VUz5brtu9RwUk/RGKC4FzFNvGdwncL3zHrGNwLwnTA+Y1zO7vBd/57z7wTtI9OQi8QxJv84hVwx/c+EhAnw71t7bY91TO2/bqCcxDnBMoN4t7OKa6WXeBZf8Wm7epZ5p2KdYLuzXFscO1GtmY0r0GJYoIg1oF7pirNO6vndMSqrNvH9/nNwH1T/Y59aPycJer+IhHA9xy/T9hvXIfM/cWz/9MfVFD3eeg5mxPIFSYIvkRmUBgBYpQLQsDYXhLL2hcEJbHu3uVX9uBH43sIpOKmIBIFmSCBC1Ngztqd+xlbcWbMrEVR7wviVRLLng2CBun2bBBrbxD0/diXfMR3sPJCxhWauWgVjZg8l0ZOmUujps6n0dMW0JjpCzINEcMUgR46rBx4ELgQ6hogpgliNUD8ZIHABDl6/JTKjsHxsWeBeJXCQlYOsnOqBi4WTly/fk2VwsI5CXMO5yhKYcWrHwjIaSYILsIbduxVgRpceLn9dBMCtPjhjfYDBj4XHEuYLtx2OeHGHjfH1sDbgZSj7MM03isMAzSRxEOVE+NmL1Y3FAg8+FXJOs0jvlHCdxMrLK03NH6Eh8H2A0ezWTA475v1GMzuO36AufnsginFjbcLDxN4+AB4sOFeoyPcLJjzRAqCSC17D/VVx9YqnFf4jGHS+QFBrs9bdA56sPMjBMa6j5ioHhKzi1iYIDgfcVPNfe5OKlWnBR136BWG4A1MQ51gminsbziGAh5E8VDK7aOTEKjgHqxx7cODCl7D7SMnPLANnDAzJoEezLl59371AGU3B3WEQAtMQ9196z9uesixchKu93gAioS9yalanx1MeKfAOa7TOP6FqzUOWTzgVwh44Jrv57djwtwl7O8UjCpuG5zwkGgfb1eR6o2zzMJ5K9erY8K9zku4b3D63vrlUNoJFbgI57gjqAHjJJzALQIJ+D3i3p+T8B1yykjdsT9ZBZrtD/BOwjW4Rutu2pkVsQb3UTr3kLi38Dre+H3jxtqF60oiEUsTBJ81Nw8nvwFbO/gNwvcb1wRufjfhfgpBr2gvNDp55pwyPhBE5bbrJZx3WLx19br/AKwdGA4wfLBYjNuWm/7n9SLKhA0nEGwHxxi/l7ieRvq7858vfqCChOHeV+K+CcYLd93jhH1OZkpc4z5h+NS5Ws88s5etNUZ5g2dBmKYIiHJzeQn7AyNy5wHnhb9WwjFBcF0cMH6GWqzDvZYTfi/wPBHpoqxIgGHD7RsnXFPCAQYFFi3hmdMufKYwy8IB5wWeE/xeV/B6jMN4v6zestNXXAGvhfHC3UMjoA8D4Pfvl2H3k9Mv3iim9kEHXGPwnMXt189eLczObxcWq3LjrcICVT99YnAs1m7bre5JdZ9HTeF8gcGYfva8MZs+iBlx+88J7wnXeu5zw/0vXsPtn1W4R80J5AoTBB8Ubn4ge18QlBFCIBllhRBYtpbEunje+UT6rHkn3tjwI9MEQTDjz2/TE8+8S98JXPi+6j/K2Iozc1asU+WwolMSKzMbxKskVlCDdKY3SPNuQ2jy3GV0LN25lJgTCACu2riDBo+fSUMnzKahE2fT8ElzssyQkVPnKUPENEVmL1ljjAwFc5nmhx8DxHcWSODLfvzkGSVkpjg1RHcrhYWsHGTnjJ21yNj7UGB26JTCwjmNTKdo9wMBOckEOZ9xmd6vXJ/dN7/CSqdoBWXxkIIbGm47OsJNIVZdIe0bQSnuNVYhGI0fUw48sHBjdIWbk3DBj+0P/5afndevcExgdllBMIZ7bayE8wPXHO5vfrRy0w7jHYQHAgRfdO7n+8bJTas2e+8TrjN4CNd5uNMRVl6FcwMeDWJhgiCIxs3hJay+tF7DMQ8eCrnX6ggLJ/yalwhCc3N5CTfiVpD58dfin7Kv1RFWj0fT1MdxQJYCty2/QsAcvzle/DbfR+x4J2FlfyT4CWQ16R78eeH+4as+wyIOQHGCGYIVqzrgIZObIxYy9ymS8xTCStxIwG8JVmVyc/sVVkkmHTlmzKwHHqC5ubyE1dlWkKmGVeTca3X050IfRyWwGw2Qlcvto11uJWBwXO2rcDnhdxT3eIlELE0QZDJy83CK5JkGpvLzRSuz8/oRMrEivVcDuMbCVPnnp8NbNGIX7qkjMWBhuuI7x83tR8jctt+T6wITBguYdL4nfgUzZO4K54oLTuC9cPO5CUFt67UL9y4wYrjXcsICPC8wf7mGrdnx4QgLQXQWXvg1QWCu+Fn0ZxdWwDtVQ4g1uAfi9okTstoTAdw/YBEDt49+hGchVBHwc99dtWUXdi4vIWPLChZLhbuID4Kx4gWqg3BjYyFk9umA55JoxK4Q+0E1Bj+8UroaO5ebsKjDCjLFuQw9TjDAcgK5zgSBdEtiHT2SaswQCtIzWWPDr7AC0WaCfPf596jX2GnGlpxZtWUn/fmDipGVxLJkg9hLYnEN0rlskPZ9R9HKjdvpZhiOPS6we5NSaciEWSp7ZNDYGTRo3AwaMn5WlhkyzGKImKbI2i27jBlCuXnztqMBYjVB3MpgQTBAvLJAYIAcC2j/oSPKHIIBwjVEdyuFhc/CKTUM527ywYMhpbBwruKcxbmLc5jrBxJNcooJghV0uhdhXaF0z/rte4wthEfq8XRfKxrchLIs3L9zwmpgjkhuMCCs0vILvus69bX9CuVWrIQbxAlHSPUEuPZxf/cjnLvhAtPAz3mhK6xccwPBEQSoubGRCFk12UEsTBA8rHJz6Mg0g5BajOsQ9xo/eumjz32tDkeKNTePl371Vgk1HttC6nM4mRZ24eE7GiCAFen1zy7Mt2ar8z0JgAnFjXUSVgKGm96P8l7cnE6ym1ZL1m1hXxdN4QHbC6zs48bGQmYmA4Iu3N91hbKN4QLDQjdbUVcIKCLzUxesTOfm0ZFZ1nDqwhUhpU7CERaNRPteNhyQfaf724CypHZwHYRZyr3eLqywTDRiaYKUqN2MnccumAXhgjKq34/SIg0I2dk9RkwK25RBoBIrfbm5IxFKRoXDxHlLo2o84PceK//9ApOCmy+aQhlOP+DZj5vHS2YgFt8d3C9yr+GELHevwDPuNX7+elF2fCTSWUWva4LguQzH2l5GLRzBRMkOYxjlo7j94RQNYzRSUC0iGkamVSitppuNE+4iLfN5CgsKsfiHe40f4ZzzqmRglhOPh5DR6wWyjqL9XILvIIxlHfyc66ZwrTJ/A2EW45mFex0n/ObkBHKFCQLwo2IGh1EuCAFjlA9CABnlhBBQ5kpi3b/nXKLkVaTkm2ZGuDJNEKwG+cs79MSz+eg7z79HT76Qn0bOXGhsyZkd+w/RX4t/pkwQvyWxuAbp1pJYbtkg9dr0pBGT59DBlKO+nGITfHEOpR2n0dPmU+8Rk6nPyCnUd9RU6j96WpAZgswQqyFimiLoM+LEVaMMllcGiG4ZLNYEsRggR0+cVkpNOxnYz1kqC8S5IXpoKayOA53rCt68cSPbS2GBnGCC4AGA259oCOUQwq3VilXCkWZehCOsBHYiO0wQ3Ahwc0UqrLCyEk8TBGnkIDtNEIzzUxrJj9xMEFzDo3HDyineDedMEs0E6TNmqlqlz/0tXOmskjIJ1wSBtu1N8lW2yEsIrERaagirv3Q/Y7/CgxdKrTjh1wSBvIwVJ9BPhZvPSXYTBCvSohG88NL0xauMLfLEywRBxolJdpkg+KzDLSWoo27DJxhbcicSE2TEtHna9bR1pdNrIx6g5Ay3f3bhe7NwzeOVrbgX182IQbDPj0kdL2JlguDY6C5aQhZHOOiWIAtHfn5LTfB8Fq1Mdbtw3fcL+i9wc0VDuH/wA8pvxur32SqsNNclXBME2WP4rFGSmfu7k7wWe+AaG6tjFE0TxN7fMVKhP0288VNiLF7965zA/XYsMnchVJ7QiSmFa4LA0EPGUDQWeplCeWU3AyCeJggWhbiBe5xY3W+jeogO4ZggEEr/wcDxk9GI7xX6weYEco0JgoCNaYL4KYl19oxzaacpgRObNTb8yCyJZekL8p3n89F3Az8gT/6tAE1b4v6QCHASvl62hq+SWH4apJvZIMgAGTppNu3cf4ju3Q/PlcfnkJR6jIZPnkPdBo+n7kMnUI9hE6nX8EnUZ2SmGdLPYoYMHBtsiJg6f5EvP/F14ELtlv0RFQPElgWiTJDjp5QOpRyjKk06ZWWBsA3RbaWwDqY6l345cexYtpfCAolugiCYEuubZwQokAHmB3wW4dQfjobQZNGJeJsg+JHn5omGstMEMU2C7DJB0NMgWuUUOLmZIFjpx42JhsQEyVS4dcLdhAcOXJd0iMQEicW+o0xQuKDOdqx/I2BGOvXXCMcEadSlvzHaH2g6ys3nJLsJAtBbinttNAWTwy3oGy8TBD0rTLLDBMF9RawCGFahT4gXkZggsfjO28sCZheoUY7yYtw+2oVV9bgOIHCka57g87f2fUskYmWCbN17kJ2DE0p9+gUZUNxc0RLOd7/PBMiM5OaKhvyaILEOBOJ74LccH8qkcHNFUzC9dbMswzVB8H32Wx4I9ye4/jqB5/BY3sNE0wSJtpBZqHvfGg1ganD7wen7z+UzRmUPqDQRrRLTTkLmmxeRlOuNxb2DW0moeJogbk3+8Z3T7ZcWrqyLMpwI1wRB/xg/GSAQFsrkFHKlCQLplsTCCnynCy9+RP8LDXQ4c0NXDn1BUBLryb/mpx+8VIgmaKQNnQj8cL73SX2tklhcg3SnbBBkfyD7YteBw/TgYfgrlL4JHH+U9oCB0aH/KOo0YAx1HjSWug4aR92HTFBmSE+bGYLMEKshkmWKjJtBjx7xn8n9+w+iYoA4lcFis0AMAyTtWLrS/OXrVPZMUBYI0xAdx79GS+egzoP79+nA3r3qHFSlsFLTsqUUFkhkEwR1CGMZCLYKZV6stV696D16CjtPPOS2n/E0QdCALJYBnuw0QcwGiNlhguB9Rrv0m11OJgj6PsXiptWUmCCx1a6Dh429cycSEyQWQsPCcAKi6EkSizrjnGAyceUtwzFBEAD2CxrT6jRytoozQfAAyb022nJ7UI2XCWJd0R1vEwQlIOL1PrGQw23RDYjEBImVzKb12c3hoye072XQG6F4Lb1ST7g26fQByC5iZYL46RnjlmXHgYb8fu5R8LmivIffMm64rutm78AwiWUQ248JsnHnPl9lKr//XD51fNAThfu7k/5UsLx2SRaAnoHcPNGWVxaiSbgmSDjC4gUncD7H+jk3kU0QiGs4HyvwO8ntA6dw7tOiBZ498R3j9osTvvO430AMwM/3H/eUXoZvJCZILFS2QStjz0KJlwlilgbmQPlQP+YV7t9wDcZzv5/MEfQo8uptG64JEo6Q9ZNTyDUmCMCqHDNIbC2JhWwQlBVCNgjKDCEbBAFnZIMgAH35knNTprkr1tPvAxdA1uDQlUtJrO8Hbjh+8OIHNGCCdyPiS4EH70pftqfnAw9xnzfvrH7k9wQuWmu27lbpn237jaR8H9dhG6QjOwHZIMhg6DJkHC1ctVEFunRS4Nx4FDjW+5JTqf+YadSm13Bq22cEte878rERMnAsdRk0NjMrZEhmVohphmSWyXpsiJimyKTZzim2t+/cZc2PSAwQexYIDBDILINlN0GOHE2n3fsPq9JYXlkgS9ZuMfY8lHNnzqhSWMgCwbmILJDsKIUFEtUEwXv9W4nP2P1w0v97p6RKUUYg843yNX3fWOqmF6Lubzh1sXFjgnRBv4Esq/Bg5gZ6A3DjdOXHBEFAm5vDLvRMQWo+bsRRgxs3XDiX0HSbe70puwmCFTx4YONeG02hH4j5XcNDXjiftVV+TRDUauXmcRPO/VJ1WqgyXh/Vben5QOtkgug2eUR5j86B3xOkyyIQjeA7giRe50RuMkFwHYh2uTJcI5DujWsfbrK517hJt7QAAk/c+EiE7yb6HqABNW7Oude4ye9qaZgmfq93WClq/ka8VaGW798IbtUy3i/3Wi/5DQCHs/qZ68GDe6nvPRO4H2VeD6F0Aa4hGIusMBgJvUZNVv/mp4wEVpI5Ec1yak7Cd9PaEDac66pVfk0Qv01M0eAX+4hzE9k6fo41lP/TBsaWedDQ3E9wREdY6Yjfd1yvwjF83DIS4w2eq7h9DFf4/JDRmcjEwgTxE+zG7zLMXV3wHKTbW6fCF23UQirr4jEEWxHQ012hO3bWImOkO9gWN96uF0tVUSuvYVTgvglBIzQPxrMH93pTuiYITBsdUx7HHY3rsQ/W50rcn+MeUvc6gZ4suqD/gNvvLRYZ4LfZ+ruD+5mSdZr7WpFc7auuxhbdwXeTGx8LOZX+w7kZTs8/ZK6hZC0+K/Te8Sq3GGsTBPdVKBOGPoIoCee3BNCEuf7Kq0WCn75o2dnkWbdcLhZ34BqC+zoTXFPxfAbDnhtjF54d3fiy6wB2XCRCwP/ZIpVUOUS/C+/wvpwWTeF3ihsTbbn1AylUtRE7xi7c5+G3wJq9hsUqeM7QXZThVWbv9XI12HHRFmICiZDZq0uuMkGs2SBcSSysrEeZIay0R8BZZYMkHaQjqd7prqihPGvZGmraYzB9EDix/wdNq+xmh5NwI+FSEusHfy9IPwx8mdtrBIZgOqBU1a3Ahc56Uwdu372nbjC6DhmvTBBkg1T+sj11HDia5q9YHxXTwwQX1yVrNlP7fqOpeddB1LLHEGrVc6gyQtr0HkHt+o4M/G0UdRwwOisrxGqGmGWyrIaIaYosdwmyX79x0zP7gzNAIKsB4rcMltUAgdAfBKrUsF1IFojZEB3/7tTsC59D8oEDQQ3Rs6sUFkhUE8RPmSXc9HM3eVhJgcCFbgAUN+hu6Y0mMAq48U7CqoVNu/ZnnRP4HFFSAT+ifoOFuPF1A9kZSJFEw2WrEPDj5rNL1wTBe8DqbW4OqxDUsd6cWUEZCm6MKbsJAhDUsr836Ks+w9g57PpDgXLseFO4mbSvrEBmBv7d/trf5tNbAe7HBIGpwM3hJBxfriyBV8CPCz6hlqfOjdenzTo6rpDEChhujKncZIIAHHvrOYEasdy8Xvp+4CEfq/at1x98x/DABoOLG8Ppw2pfGqPdwdyrNu8I2neUaOLm9BJMG6y+staChUHUd+w0X4Yv5vADAjDcPJxwDLkV2bgGteo7XPuhHQ9r9rIWaLxtHkMEUnXfM46PH3SC+G9/XDtrX9Dryul7iuCJOQa/QQgM4l4A1zq3+wzMhyCTdZtOwnnhBDJquN8pP98fGHn28VbZTTXcI+OY2F+nu6rfjwmC7Gjdcwo11pGZZb9Hx4Mxgp9+si29gl17k1OD3juCvNw8XsI5g99cPB+ZYP/RANlPnzRkDCQSCD5w++lXMLRwrBOdaJkg+OyxwtrvimHUpPfDqBkL2Hns8mokrvvcA8PF7XoIcL+oYxo07NQ35NndBGYIN8aUrgmi+2wCo8oNlNzlxtn195JVPI+PFTwLmWOxUhq/JfjNPHXugvEKHvzu6JrKuMfXAQuc0MTXej3sOmw8O6eOYKzhfMZ9FN4XVmDjvhMLkpzq5KOXGTeXk/D9wm+0Ha+m2bEyQWDqzVy6OuS8xnNAvk/0S3dyz3qxwk+mQHb9PuEeU2eBFe4JrQF0OzhXdBbx4Tw9mv54wYgdPMPb79cKVgmvrCpiEbgPs97vnL2QoX1facotewgGp3Vf/e4zTG1uvCnEwpyy4PBd4+a0CyaX27UTMSOd3xV8vnjecgKlKbFY3rr/uEZyc+kIcQ+UAq3XoXfQgsuBGgv6E4lcZYIAXIRNOZXE4hqk37p505hBHzzArd22mwZMmEFVA1/clwI/diif9S2rAQLhYdg0QZiSWN+HCfLSB/TjlwvTF10HON4g6QKjJOPKtag3pvnmm/9TjdKHTZpDX3boS1927E9NOg+gpl0GKSOkRffB1KrHUGrda9hjI8TICoEZgqwQ0wxBmSy7IWKaIsgscSLjkn8DxJ4Bom2AOJggpgFy+MgJ+iJwHJyyQCa4NI1D9pG9ITrOSZybOEeRBYJzFlkgOIfNLJBIzw0nEtEEgVmAlSXcPtiFB26vG2g/Nz2o9eoGfvh0VzwiCIKbbDfwXjsMGq29Mg3NIMMBK3S4+ezSNUFgRnDjrUIwkLthNwnHBHECJgU3h11YgRwt8ADIbcMuXRMEN4V+VpUju8bpJiocE2TLngPsa61CeQ+3cmx5zQTh8HODiWsEHj7dmi+iXIJuYB3B/nDR+U5bhZVcWCDi9tvUfuBodiwnP9933RWvEMxat3rcQDfoA2EFrRsffP4FO84uBAl0wbVSJ2sFn4cOKP/ToGNfdd10MkqcwG+grgHMlQ9zA0YFNw8nP8E3N2A+cvPb5ccE0T0H8JniuusGjHHdjDO/QUm81k/TUjyUoxE7zkcn0AieG8sJK0ETCVzLilRvzO6rrnB/mKg9QOz4MUFw/iPgCfMZPWgQSMdKfZiIfkspQfhNO5R2wtgTbxCI01l4g0CxDrqfs9f9m869JwJV9wLPck5EwwTBPYTO54AAlhe4LrxbqS473i6sZNYFvzv4nXcz6J3A747uc+G1G/7jOgDnmJ+FG6ZgfnAL6JB953QtwDVUt3wx7hORCepEvE0Q/GZgEY3bbw0W5Olm8Pi5F4oULHrh9oGT7rUk2ug8ryNT3C34bYKG+9x4u+q2974uWPFzzwwhW9Sprx7A86+fnnf4LfILelZwc9kV7nMq3gMyW7g5rUKGkc59GowGbrxdfheQwZDn5nETfltQ4ta+37hnwu+X3+t5dpPrTBCcfGawGIFjZIMgkGwticU1SE8/qX8T5gVOAgSBcFMwddFK6jlqMjXo0p/KNmpLReo0p3xVG9HLFevSc2Wq0dOBL8pvC5ann79Tkn7zXhl6+sNKKtskkv4c0ebKteuqrFOrnsOobpueVL9tL2rYvg81cjFCzKwQlMcys0JMM8Qsk2U3RExTxCkQBHPHzfwI1wBRJohhgHiVwbKbIBNnL1Flxuy9QErXaelqQqUePhzSEB3nJM5NnKPIAsE5iywQnMNmFojVNY8miWiC4MeN2z4n3R9C3aAE0ordbix0AsWmsFJSFzwYcHPYhZXh4RBtE0RnxS5uzN0QEyQYvI4bzwkrMNwIxwTRaYiOB2M3xATRL7uDcim69eLR4Jmbwy48VIcLfmd0y2DggUYnaw6BC91sN90yFgArzrk5OOFapQPKOXDj7UI2CLIMnUCAkBtnF441gv466PwmIqPAKQM12uCBmdsHu9xWF3LkBhPEj5mIgIwOLXsPZcdz2uszA0G3YTGyG3QDnggKcnPYhVJaiQYCobq/7XahJBkCnzkFPyZItMWV6nMD2R3cPFZ5Lbyxolv+zKvZq05DdK/7tWiYIDCkuLFWwUy1Zm+5oVvWjOs7FStqtO7G7oNduA8NF12jBcLxxEK3cH6LsHKam5NT857uvz3xNEFQful8xmVjlDso1cXNYderZaL3XOaFn2w/nG/xBtcvbl/s0i0liedsnaxUmPd+zmNkKnDzcMLCITcT2AT3Ltx4TuGUUIu1CYIYGTefXbplMrEAjhtvF+JbfvCzMBhC2S6v3iM5jVxnguDLa5ogCBwjGwSBZJ0G6Q/i9OCYE7gYuEFavGYzdRo4hqo170w1WnSlWi27UZ1WPbKMkAbtetMX7WGE9KPGnfpT084DqVnXQdS82+DM8lhmVojVDLGUybIbItAIFyfz7t172uZHuAaIUxksLgsEGjN9YWYWSJVGQVkg6LnixO1bt7KyQKwN0c0sEK4heixLYYFENEF06+ti1TOOjQ7I3OLm4IQAmxNYfc+NsQs1K90CZXZ0b8z8rLqyEm0TBBkp3Hir0NTNDQTs3Fa4+jGRcoMJopsOjNXDXivbwzFBdIKBSGV2Aw/Ybjfc6AOTHcTTBNE1NJGarYvuTStW3kWCbuktr3IjVnTr48Lo0QUPVdwcdqHZoFPauh0/D3VYDe0Egqjfc+m5YZWuia/TaLh6q/g9sOsuVPBq1m0nN5ggqPnPjbcLZppuQBKv062b7VUj2g7KG3Lz2OXWjNSOzv0BhD4AiQZWOOtmmVmFe0Pd+9HWfUcoIWtGJzgUK7LLBEFwVPdYmehkJqBHlC64h+LmsAv9F9zQ+f6gr4UbyJDgxpnSCfjpNMD1WsRiBVk63Bx2YUFEvNAtk+wnw8gOSkpyc9qFrGhcK8JFdzvIfvJ6loynCYJV5LrA6OTmsAsZ8PFCd3U9VLN1d2NU/PDqlWnKj9mu23cGpfN1wSIobg5OXMlmDvwm6GYP+c1+ALE2QVBJhJvPKixU0713xcJ6nSxglEzVfc4BumYNBAM/p2V56JDrTBCAL5Aprwbp1myQM6f8NajMbZy5kEFzl6+jr3oMpU8ataNPv2xPVZp0pM+bdvJlhFizQsxeIaYZYi2TBTPEmiECrd7s/CN97fpNR/MjbAPE0gjdboDYs0DsBghUL3AMzDJYyAJBM/rPAsfM7cb+WFpaVhaItSG6mQUSz4boJolmguBiq9sQ1M8KJPzo6Kbs46HGCaxY4cbYhdqyftA1QbAyIByibYKg6Ro33ioEnr32F0Gy2cvWhgj13v0EB3K6CYLvOVbacuPtQpM6L8IxQVAeh3utVQjEeTV0RpN07jPFZ+TnRi2axNME6T16Cju3XX5MEN0VUngwjwTdB3M/JohuSSzdICvOIdQT5+awy88DO34jdMtTwKh3A+cRN84ut98aE5jFOg+GG3bsNUbEHt26x3uSvfvuWckNJsgrpaux4+1C6Qc/6JaKwEpdP+gGv/yYILq9rSLJXIs2KN9i7ZXjV6jxrQPua6zjsKgB5WBwT4X63fH8jcwOEwTnm99nGnw2OmWKvFbMW8H1Q7dxsNvKd517awSpzl28ZIzgQZY5d9+E7G+v44W+VNx27fIT3MM2dZ7FsOjFrZxnNNEN3qHhe7joLrDQ/b5z4HzWWZ0PoUG8F4lqgqAXATeHXSghFC9gbHD7wMlPdnK0eFOjf6dXlQU7OsF5CD2XdMEzq27muK4JAnR7yQya6L8HRSxNEBwPlD3k5rOqXMPWxgg9dO8nt+1NMkZ4o2twQ9n1zB5rcqUJgpsanIiQtUE6VtbbG6Tbs0Gw6j6vcO3GLdq8az+NnDpPlbcqW7cllavXij5u0IYqNWyrjJDPGnfQNkKCymOZWSFWM8SSGQIzBNkhQRkiATmlMH/99TdBGSBu5ofdADHNj0gMEM4EWbBiQ0gzdGSBbHJZpX/zxg06sHdvSBYIzkUzCySeDdFNEs0EwcoabtucvJr72XmjfE12HrsQjOaOOYJRuvVi/QakdE2Q3Un+gkom0TZB8DpuvF3PFK7o2bMlGuR0E2S9j4boOiXRsPKQG2uKu9nVbS6PY5iTSn6AeJogurVy/ZggXmXGTEVqgug2ifZjguiubNMNsvr5rqAesh9066AjOOT2u7x84zZ2nF34rfEKcOH7zo21CiU8YrlYwg5+37j9sCuvmSC4Lupea/yUewR+VrAiKKoLGvRzc9jlxwTRNW0TxQSB+aDTb8JLKCnphVe5NCzWST2ebrw6tsTTBIER4JZl7YZuaSa/zyi6ATeUznJCN6iKkiWxMgsQEOS2aRd+O/2gk10CocdHPFi5Se/5MBITRGcxEKRrinP46afgtegIoLcSN9YUTGkvYmGC4NmHm8OueJoguoFwCM344wlKDuncP9Ru29MYoYfub7zf5x/dxUh+TBCvZ1dTiWaC6C788PPsBHQrRPjpFwtDnpvDLpyLuZVcb4JAZoN0rKxHmSF7NggC0WY2yMnA/3cilkHoeKAauW/dRQPHzaCaX3VTZZzQ1LtEjWZUqmZzKl2nhTJCytdvnWWEVG7UnjVCarbsRrVbdae6rXtQvTa9qH673spIsWaFmL1CODPEzA6xmiJdB493fIBHel5y6jFH88M0QJyyP7QMEM0+INCh1OOZWSCWMljIAqnfzvmBFufPEUsvEGsWCM5FexZIPBqimySaCaIbMIPw4OoHlAvh5uHENXTFzSj3Wrvww+HWOJQjp5kguiuBIZSGadSlf0Qp6l7kdBOky9Dx7FhOWEXmBTJsmnYfpAJ8dqGGNXd+6vR5MYUgMEwTvzX/s4t4miAoXcHNbZcfE0Q39TxSEwSpz9y8dvm5kdcN0OgGWVEfnRvPyW/5QDSN5ebh5LayF6undLNKvFZw6azi0+0tES1wXLn9sCuvmSC6D8KQzgpfK/jOcfNw8lOmRbc2vR8TBL8/3Bx2JYIJMnL6fO1SY17C7wxW77uhs9Bn1rI1xqtjS7xMEAS2IjF2YtULQrdnAe7PnND9fYNgeqNEULQXBulmHuqW3zNBjxtuHrt0nxsiRXeRXCQmCDKtuTntisQEQXCdm9Mu9PnS+Z2DuYXMFPu9PoTyjDqruWNhguiaVvE0QXTL1UJevXyizeK1m9n9sEvHbLeia7r57c3yk5f0Mun8mCBl6n/FzmFXopkguiVAdbKyrOhej/yUw0UMgZvDLjFBciAIppvBY2s2CALMXtkg6NngxKLAxemjei2pQ+DLgVItx0+dTWhzBEGTlj2HUoUGbei9ivVUtgLKNiFwjzJOaOoNI6RkzWb0Ua1MIwTZIH6NEGtWiLVpOmeGoGeIaYhkmSIBzVzkvMpmyZrNtHj1Jk/zIx4GCDRl7rKQMlg4vkmpzhf5q1eusL1AnLJArA3RY32OJZoJottwFbp246YxSg/d1RDQ9n2hZZx0b8C9emFw5DQT5Or1G9qpsFahfjBuXjA+muR0E0T3oQg9G2IFftO4bXrp9XI1VGaJnx448SaeJsik+cvYue3yY4LolruI1ATRfQDxY4Lomha6QVbdayXEmdlu+AloeRksuvvpZmDgHkCnTF7KsZPGiOhw99599eCKe10E6/HbiRKPCJQ06zGYStfTO0/ymgmC6yA3lpPO6lwrfvqa6TZNBdH+fgKcO9wcdmWnCYLSq35Ko+gK5a3QX8iJbsMnsOOsQq+QeBAPE0Qnc9UL3Qw9LPDoMGi0tnRr5cMcd8KrqTkn3I8gCwVNte/cjbwKhW7GBkpTcsfBSX8oUI6dxy4suIkGOBYwUJ1+d3RXiUdigsBM4Oa0KxITBL31uDnter9yfWNE7ImFCaL7zBxPE0Q3qAy9U7GOMSo++Mma5r6vTtJd3PSrt0oYe6KH7kIfPyYI3hs3h12JZoLolhxDRi/3GTlJ91rxYbUvjT3x5sq1G+wcdokJkgPBg5FpgkB+skGOHXX/4cRJ9gTqOBr6/vPv0StlqqumlU0CNwH9x8+gOSvW0Y79h9QqwXiWJ7CDfXirXE16p0JtyvdxXVWuCUYIyjchgI9yTjBCSlRvmmWElKmTWRbLywip3rxLSHksMyskuESWJTPE6BmSZYgYpgi0/9ARY69D6Tl8IvUfM823+WE1QGB+sE3QGQPENEFMA8RqgmzbfZA+qt0ipAxW39FTjb0NBefAoaQkzywQnJvxzgIBiWaCIDDIbduucB6eEYzm5uKEBnx2dFdT+Gnwa5LTTBCge7PCCc2+UBsTqyKiEczK6SaITh1YyE8gKhx0gw2cEIBHjwO/GVrxQEwQPXKCCVK0RhN2vF2oz+sXPxlu42YvNkbx4FrNjbPLrYeDTukvXIciBSuEEXTC+f/bfP6bQjspr5kgeA03lpPfVdl4PTcPJz9BybxogmABDe4FuH1yEvoA6WaMoEwIml1z6PR28bvAJ1ziYYJE4zf1F28UY+eOl9BjzQlch1D2lRunI/R7QqYLSsiFi26/w1jJq0eWE4iT4F4Czye/ebcUO3c4SnQT5H9eL8LOaReyreNFXjFBWvYeyu4DJ5ik8cRPJnIshIWNfuKWYoI8RtesiJVQEk8XMUFysQkCrNkgCCj7yQa5fs251Ah+sH+Imw2LEeKmf/jjG/SLN4vTnwMX0pdKV6N3KtenwrWaUZnAD/5nrbtT3S79qXnf4dS8z3D6sscgqtepH9UKXASrtupOnzTrRF8GHs7QhyBc0Gwc5sa7FeooIwRZCyjfhAA+yjllGiFNPI0Qs1k6zBAYIVWbPTZCuKwQzgwJyg6BIZLVSH2wWnXIkXHlmjJNIJTEcjI/vLI/omGAoAwW9j/LAAkcRxggFQPH565LP5mLFy+EnQUSDxMt0UyQ371Xmt22XX4bgwE/K7aQsm5Ht8EvnH6/5EQTBPui2yPFTVjFhtWCkQS1croJovtQhHMwluimr3sJZorflc6xREwQPXKCCfL0BxXY8XY9lb+sMUKffYeOsHNxwqpjN3A9+2NBvZW0yNzl0KlP7rc0ghUE3mBcRqsckF15zQTR/f5AfhtO4vXcPJz8lPHIayYIAv9YYc3tDycYGmZmhp/7ZfTpsTfUxrMOFoBwrzeF1ffxwo8JgsbtCGqa0i2jBvntkWcFx4ybM576a/FPjb3h8XNeuKlwtcZsFrobyKrm5oqnsIjHD3h2wL3WP/7Rfza5jhLZBEG2Czcfp8nMYrxYkVdMEN3fOwh9ouJJgc/0FoHGUvbfLDfEBHmM7jN8rORn0ZeYILncBMHDkWmCQF7ZIFiZb2aDHEk57PpwhR8lzvDQEsrH4Ab46bfoib+8Q088m4++83w++u4L79OTfytAP/h7QfrhSx/Qj18uTD99tUjgS1VM3RDdf/DQ2Lp/7gTe+9DJc1TAHmWbTCNElcWKwAixlscys0KsZog1M8TsGWI1RExTZMiEWcaehrJ+2x5lmkAomeXH/Ii2ATJuxiJ1vEwDBMcRxtL+Q843Wzj3kg8cyMoCgdlmZoHAhPPqBRKth3w3Es0E0f1RDeemCTfG3FycuBtc3VWeSLf1S040QQAejLl5whFKZSENPpzzPiebIH6CW6jvG2vwkMNtOxy9Ub6mMlbicS1zQ0wQPXKCCfLLN4uz4+0KxyhPTjvOzsVJ5zqve33kyhfhO+P1XrFyD824/YIHXd2MmkiU10wQND/mxnLyu/94ve51DPuhS14zQXSDnBDKg9gzOnqNmsy+ltMLxSoHlYlcsWk7+zqrKjftYLw69vgxQVCv3grOR5TC5F5rF1ZU+zX9THT7YcVSuA57gXsHbmw4QjDUraSaFfRa4eaIp2D264D7mEJVG7FzRFOJbIL4+bzmrlhnjIo9ecUEwYI7bh84waSLZ0UXHAduP+KpAylHjb3xRkyQx8TK0PUj3XtKMUFyuQkCdLJBsBI/KxskNS0rGyTjIr8qz6RknRa8yeElrJr+4xv0xNNv0hN/fpueeOZd+s5z+ei7z79HT/41P33/7wXoBy/CBPmQfvJKYfrpa0XpDwXLU/rZ8/Qo8D4i4eSZ89S4y4AsIySrP0iVRqpRut0IsfcIqdiwDVX6ol1IeSx7VghrhliyQ2CIWE2RtVuca9/CIMk0TfpRuz4jKP30edb8sBsgOuaHHwNk0459VLJGM3W8TAMEx3Gwi4EDzpw6lZUFApPNzAKB+ZYIWSAg0UwQ3bTuF0v5LwGCxtzcXJy4AJdusAS1a/2SU00QnKe6Nxa6KlK9se9yEDnZBPGzMszv5xMOCIygVBm3/XCF8y8ata/DRUwQPXKCCYLVedx4u8J5sD5y4hQ7FyedjD806uXG2sWVW4GBwL3WKqwc9gtWtcerfEpeM0F0Sh1BeGAOB92MHfQb0CUvmSAILOv+Fvz89aJ09kKGMfIxOO/8NNfFdR6/qUDnPm/m0tXqtfEgEhMEIMODey0n1LsPh2PpZ9j54qn/fq2IsTfO4P7Gjwmqo9pte6reNW6ghwY3Np5CBr8Xyzduo//4a352fLSVyCYIgszcfJyi0U9Hl7xigsDU5vbBSUfTTxsjY49ulnMs5eeeTUyQTHBPwM0Tb+kuNBATJA+YIDgpTRMEcsoGwYp8MxvELIuVfPCAer0TWHn3ny8V4o0ON8EE8ZkN8rPXitLfSn5Op85dpNtRCCKt27aHytVrHdwo3cUIKVs3MyukQv3WWUaINSvEywxRPUPshohhinzRvo966OVACjRMEhgmME8gNEh3Mz9iYYDs2n9IvT8cJ2sj9MqB9+9WqgymxoG9ex+XwTKyQGC66WSBxIu8ZIL4uflBYMSO7s1xXsoEAbjWoiGsTgNfXWHloJ+mxjnZBLl+8xY7jhMCVvEAn2mfMVPpB8+/x+5HOMKxv3X7jrGF+CImyP9v7zyg7ajOe5++3ktCnOSlLL/kxWl2HMc2hLhgjG26AYOpomPTQZIxGNuIYlFMR/RmRJPpHdFNMc3GdBAqV10gUUWRKRLCAnvtd37D7Kt9534zs2fOnHPb/7fWfyVYZ+bMnTNl7++/v++LY6SbIPMWvmDuyxKB0Bhi+v1wn2UnMEzErM+Guub2n6efjoOgJdeIta9OSCaIrbomSFkpJS+OI5aRZIJgNlrHYYn+QHkwRt+axXDGdpZ2G3dMUraI/g/Wv3vRVL2b78h2TRDgPWZ9Piv+9iqlVjxVnsmd0t+15vsxcF1QsvTPPtua2xv7qSPOb9Fcs0oJx07pX9bZKj0aG+4lrm1r205oMJsgzOGs/Vkic6xbjBQTpGp5vRvuvD/dsvNQCtE6hm7q8anx5fhkgnwIi0Gt/XRb7/3Gbi2QRSbICDBBIMwGYYW9zwZh5X2YDcLKfJ8N4stizZ8zp3CSdf2d99lGR5mKskFWX5kN8tdrbNKbDUJZrI+1BhmHnHKee3Hxa+791mSZVSfvtAbLK1p/FytlXl+S38skCy8BGj9vPfrgSkZItjyWzwoJS2SFZkiuIZKaIudfeVN6RP15evrsXsME8wSRPTJlxpx+xodlfrRrgKCpM+a2vndCrwGCcYQBskFLPXOfTY+0P1xv2WboXFu+GbrPAsGM81kgmG4+C6SpyX0MKodlyxrgxjZU+85RJ6dbxDOUTRAPzyS2ZwWlte+qIiMk9l4YyiYI5TKs7SzVXU1ZFwya48+7pDGDi2DQQCATJI6RXg6r3WxBi/OvvsncPqtHp8xIt/gQeiVZn/MiqMhYLhbGiNQNtvZVJno/8VynvA/PUP6v9bmsRpoJ0slyWBD7HFM5rP4wPvnfn44LxBIsKYN7j3vB2t4SzyPrfw9V5Rw3QRMmyJPTZ5mft1Tn/brwxbhsuk6KZ3EVWMBDz6i/XH0Dc39VVfSuqfLO6pSKMs8Wv76k9nngvUNTfP/eWe2b3zI/l9VgNkGm9Mwx92fptvseSrfqPCPFBIHYOAPivHSLz266s3kM3RKLLPL601nIBFlJE/1R2xG/ReyYUibICDFBuCC8CYJYae+zQViBH2aDWE3SX128ON2TzegjJthGR5G4Ufplg6zbJxtklSAb5O/SbJB/aA0E/umrW7p/Xntr95lv7Oy+usNo9819DnJf3HoP96mNdnCrf3NXN+m62xKDJJZly5e7yyf/LDE8vBHyYY+QH7gt9v6h23KfcW7rfQ92o8Yc0qdPSG9WSKZXSNYMoWeIZYh4U2TGnPwH408uu77XMME8QWxz9JkXuWcXvdiI+VFkgMyYNd+NO/6sfgYIfUCuuPnO9ChtXli0KLcZus8CwYTzWSCYcwORBQKDzQT59/W2Mb87qzoBriqTtRMmXpputZIJF1xufjYrVghWZTiYIB7S9y+67pZGBnRkmMQwlE0QVm9Y21k68fzL0q26CwEkGjDTbNo6riq6+ee/SPfaPWSCxDEUTBDGO9b2WdVpjF7FKP/x2RelWxXDCvCYMkbHnDMp3eLDbOOya3b31viqCnsccqy5H0tkZBJ4u//Rp5KSQNlxyS+feMbcLquRZoKM2i/u/kFVeyTwG1j7sUQ5w1hGiglCfX3rGCzFjrMIJjS5epdxTDdpwgQBGvFb21iq2iT95VdfN/eTFdlVlChsWgTFef/WgecZYzaa5FvHXEV5541yPdbns2JsYP197eqgE89OjI48djrwCPN4LGHSc74feOxp870TG1QfzCZI7LMRdTMLYSSZIF8atZd5HJasUqWdgr6Y1jFktdXYg817sR3xuxZlP1rIBFlJ7AKLvX90gnn+29GBx52RlEWMRSbICDFBIDRCWGnPinufDeLLYvlskD5lsWZMT8piLV++PN1Tf5jErLPLd2yzo0gYIWSDYIQE2SB/GGaDYIT4bJC0Sfo/fmWLpFHfv66ztfu3dbdxH19/W/cfG2zn/vPrO7j/2mhH95lNdnZb7DsuaaZeBdKvf3r97UlmSJ4RkpcVYpXIQr5MVp4hcvAJ57jf/c6exL751jtuzGEnJmYJxomX3/aqm+8qNz/aMEAog3X0GRf2K4GFAXLM2SsDFRZvv/1WUgYryQIJymD5LBBfBstngWDKDVQWCHTaBGGVEoFFTAUGRKwsL2LDXfc3vzurOpPnmKaUXlZdZkqPWJ/N6l/X3TrdIp7hZIKEsOpp/6NPq12D/hMbbBvVH2comyDc87HlE8hGGkg41kemTHf7jD+htLRHntbctrnfIBaZIHEMBROEPhjW9lkRUKkKQX9rX5auuOWudKtymLRa+wi1zs5j0087d9Wtd5ufCcWxxkIWCE3Urf1khYlfVopQJogN/cCsbS0VBQ4tMMas/Vg67NTz0q3KGSkmCA3HrWPIioB1lWuLvj+xwaAiUVIoG/TtNE2ZIIzz/4C5rbFdVlWbpHOMMc8uVuJ2e/4UC2NYntdcg3XLEZIZbbHs3eXm57NivNZtMDJirwsMZIJzRQwHE4SScNb+LF18/a3pVp1nJJkgVGuwjsPSn6+6bnSZoSzH/eSSZOxnibE2Zl8I97h1DFl1Y0FqDDJBVkLcx9pXVlUybTqFTJARZIKAN0GQb5Lus0HymqT7sljzZs8uHFhxMf3beqNssyNP/bJBWoMinw3S2yR9o35N0skG+cevbuE+tvZWiRHy763vTYyQDbdPjJBPb7xTYoSsuukuyeqMV9/4dXqUcTABvfjaWxPTAyPELI8VZIX4XiFZM4QyWUWGCLrlnvzVwLfd+1Cv4YFx4oWRgsaOn+AWPPdClPlRxQDB/ECnXXil23jXA/o0QccAGf2jEwub1HF9WWWwrGboXHu+GbrPAokJ9jZNp00Qq8Eyge0dv3e4O23S1Ukj2pDYlxQqM1SyEOC39mPJCt48/PQ087OWWP1bhVgThGyWOgyUCeLhvmFVE4O8qmmj2YGixVA2QSA2ayZvIjwQUA6EQPAG3/5utMng1TMvv5xgJ5AJEsdQMEGqNCWuUiYU+Lus/ViqstjkxrvKV6Ez2fZjgLFHFk/SKRFSZbzAhNHaT1Zf3+2AqP3KBLGZeNVkc1tLMe+1kAdbn7f2Y6lK8GykmCD0kbOOIasqz2UPi1O4f639xeqsS6sHddqlKRMEdh13tLmdpaplPWOzbSgtOtjhGLk/v7LDvubfkCfGMFajfogtEVk1+6xdTr7wCvM4svrGXt+Pep4PBxOEvzN20RPzwm4xkkwQmvRbx5Gnm+55MN2yGmXvBLICQojbWZ/LinL2gwGZICvZZM8DzX1lNW12fMZGp5AJMsJMEF463gTx2SB5TdIxQsIm6ZQ0InBdBAGdv6CBrGV45CmbDfIZ3yR9fbNJerYsVmKErLtNYoR8Yv3tEiOEMhEYIZ/dZGe32qa7uDVH7e0uueH2ygOfpe8udzfe+YDbY9yxvUaIlRWSa4YccESpIZK34oPskIOOP6vXLPHmSajjzp7UqPkRGiAXXnWTaYDw95atjnx+4cLSMljZZuhci/7abGpSX4VOmiD8PTQUtPblRQ3K8LzGDpoRK9KrwOp1az+WCMZkiQ1EoqpppbEmyBPTZqZbVGOgTZCQRS+94rYcM878fksxJaCGugkSez6oyz8YmfPsoqQutHXMlrq5wg1kgsQxFEyQKmZ21dIrVVYIlq1aDaGxbUxddFZUQ1nt84MnVAvAxJYkYVV7DLEmSFXTfqibILFBH/STK29Mt4qDz1v7sVTluh8pJkhsGb06Jgjwnq9bF/yvP7dhsqK/2zRpgvDsoCSVtW1WVZukbzE6bnxEcHMoQbC+SmmevFKisRn0Dz05Nd2iO5BVaB1HVrGro2Ofr1N65qRbVKfTJgjELnoKs0M7zUgyQRiPVTGtGT/VoaxE0p6HHpd+8kOYF1mfy4oSSIMBmSAroXysta+sWCgz0MgEGWEmCLC6zQebfTZIWBYrbJLepyxWT0+ysv+dt4snvLe1Boh/wADYMjzy1JsN0hLZIFaT9IKyWPQHoSyWN0I+aRgh/73Zt93WYw7p13QzBs7ZY8/McONPOS8pjxVmhfheIVkzxPcMKTJETr3wyvQb+jNt9rzEKEHeOMnqhjvuizY/qhggF199S2//j9AAwRCZPX9heoQ2XEN9DJCSMljZZuhVVnU2SSdNEAKj1n5CfaR1rfP3e2gEZ33OUtVAauzKK1ZVWRB0+eiam5rbZFWlHAXEmiBVS915mjZBLp18RxIsyIqGrFYpMYtjz/2peQxZkTVURqwJ0mQppiZNkNiJF6IsSidgUJn3m8YEF7g/mCBZx5wVJdK6iUyQOIaCCVJlFV/VCce6lDc19pMV74GqsOrP2lconqusFC4rIVI1kyqmoSxlamKJNUGqjjurmCBNjZmaNEGqLJQgo6kKBD6s/WTFs65KBtRIMUE+vv4o8xiy+p8tdk23qE5sECurI8+8MN1Dd2nSBIEqJnKVdy2mr7WPrFjo1G0oeZMdMyFWBpM9XgbPsdhSbXl9qGKzI7uZWQAxGTxV7rfYoHrdxWLQDROEckjWPrNi4US3FkeOJBMEYg06hJlRxbT1VDVBYqtN/MNamw1YzChkuJogsf3+Qi645mZzX1mRbT3QyAQZgSYILxJvgngjJGySXlYWi+D2b957L92bzQRWsWeNjiKF2SBWk/S8slgYIZTFCvqDYITQH8QyQlZvvWA+t/lubsz4CbXTRJ9/+VV33hU3Jj1BkqyQHDMk7BmCGWIZIkWrA8+cdE1illjCSNn/qFPcnPmL+hkfseaHZYBMmzkv6QHiDZANdvnQ/Fh3x7Fu7R3GJC/yIpYtXZoYINkyWN4AKSuDhbo10MnSSRMk5qVAgDWE1XD/i3vB+GxWOO+xcH5ZbWftJysmcnnErqj9q9a9WyU1P9YEqWNmQtMmyOqbf9vcHsVOaliNU5YphOgBUEasCUJJjKZo0gSJ7TeDaDrfCYpKKjCpj+HNt9+Jqnm927hj0i26g0yQOIaCCUIZtphrDFUx23hH/P0a5c8jVCfYxup8a1+hCHSX9a7i2VuVmL+LbLRYYk2QOx54ON0ijiomCO+PJmjSBIHYVb5kzlUh1qBba/t90i3iGCkmCCafdQyWZi8oXvRUxFFnXWTuM08EtAYiCwSaNkEIFMY+m1FsxlLsO5XnHPOpblL098Ys4AEyIWKyiHhWWZx/9U3m57MiZtDNuSaL3KzjCMWYI5bYoHo7GUHdMEEwzqx9WqqazVqXkWaCXHLjHeax5GnMERPSLeOpaoIwf4rtoVM3FtAkw9UEGX/a+ekW8cQaWPS3qlouvWlkgoxAEwRCIySmLFZohGCCzJk1y/22pLTUuAnn2IZHnrwRQjZI2iQ9WxYLI+TDsljfSMpiWf1BwkbpGCE0SreMkM9vsbv77lGnth5K9Wqyv7v8Pffzhx53R7QeElvtc1BSIsubIWHPEG+GZDNE6OeRN0jlBYDZkZglGWGioMl33h9tfsRkfzz21HQ35kcn9it/5Q2QG1vfV8SK1kS8Z/p0sw9IWAbLGyBcawPdDD2kkyYIAUVrP6HIBsgS2xysSiPJ2MEYKjK9qqz0i111hSkYG3yLWVlm0bQJwqDV2h6x6jiWtXcaY+4jFKUQyrj1vjgThABVUzRpgmCY/cmnWu8BY/usMHI68cygz4D1fYi+H7H818Y7mvsItddhx6ef7g4yQeIYCiYIxK6k5JqOLQdKjwZrH5bq9Mdi5R5BKGt/XpRGKQtG0EurKn/7hY3NfYVi5XIssSZI1ZJPPAet/Viq2hMsj6ZNECbQ1vZZ8byPXV368quvR5caoqRoFUaKCRJbUgm1U26EdzNlN639WqKhatXeRU3RtAkC3CfW9pZim6QzN6R0rrWPrOi/1E2KAp1V7pmYOUBeGcRX31gS1TwexYxHm2KV1dYzjyFUzPjeEzuPwxSqSzdMkFnznzP3aaluKaaqjDQThGdu7JwLMYdgsV0VqpogEFvartsLySyGmgmCkWXtKyueAVUhFkW5amt/WZ1yUX41nG4gE2SEmiDARJSLFVllsbwRYpXFwgh5bv780gBUJSMEEyRbFotskJyyWLn9QcJG6RtslzRKLzJCvrjlHu77x53Z1oonBqa33vuQG9eaRJIZ0qdnSJAd4k2R8adMdD0F5svNdz/Ymz2SFSbK944+3c1d8GEWSNb4iDU/QgPkzvt+5bZrHZvP/vAGyDo7jnFrbz+61ADhGsIYs8pgZfuAhGWwuOYGugyWp5MmSFnAB9HsMwsr3a3PWmIFfRncrwRxre2zIv2YiWEei19fUmngdPjp57v3Ws8ZC0qaYJTENslDv3qqXk3fwWqCFO3HqygzxxNbIofMk6buuSZNEKA5pLW9JRqSN00TJgj3WtF+vFgt201kgsQxVEyQKqv4+D1iICvR2j6rVVpjs7pZCIee8hNzn15kQRYZw6wSrFOWIaZxLu8+smxiiDVBqvYu4V1p7ccSgaQmaNoEoUm2tb2l2PMT2zAVzVv4QrpVHCPFBKHOt3UMlqgXX+f64v13wsRLzX0WiTKdeePETtIJE4RVrjEZAF6xY87YdxP9RqqWCwzhdz/mnEnRv38TJghGUEyPgqLAX+ziMTLi5z73fLpVdabPmZ/cSzHPmRhj52++sFH0+zQ2qF61HHFIN0wQiG32z9i1av/LOow0EwRi+zh4ka2FwVYWA/TUMUGY21mftVR1kUkIz+kzL7k2t89QDEPNBCEz3NpXVsRL6hBbthHDumrf2JDnX16cjDPqPhdkgoxgE4SHlzdBQiPEKouVZ4S83Pq3MiobIXllsTBCkrJYX0/KYoX9QTBC6A+SbZReZITQI+R/Nt/VfX7z3dwXttzdrbHVHm7ciee0NSgCgsPX3XGv+96PT+uXHXLF5J8lGSRMsPNeHvzv3z3qlD7ZI6EwUW7/+S8rmR9ZA8SbH798bIo77KRzc7M/YgwQjve5BQsK+4CEZbBCA2QwlMHyVDFBCNiTCREjXq7WPkKxstEKuvByjmkii6jNXtbMNeZYvMaddE66VT67H3ysuW2eWB3A6lACh7y4mWAx6bU+W6a6qdGD0QShCbC1fVYx5Z9o+Ghta4m+M1m4D5ncMbEh0yIm1bhpE2TS9beZ21tiwlzFlOTvmzZ7fuGqyyZMkJiSP6jqiqp2kQkSx1AxQcgCiC1viPE5f1FxwKZK0+kDjzsj3ao6sc+8PFW5ZkIovWTtL6uf3nB7ukU+BE4p82Jtn9U39/lhulUcGNSxzaXz3tVkTZAtQw+w864s7wnTtAnCszamBwtidbu1ECSEQFJsFkidetMjxQThfWkdQ54oU8X9Ggvj1irZJllxfru9KKoTJgjE9ntDsU3S+X5re0uYvlUWDHHeCShREtCPFWLL1TVhgpC9Ym2fVdHfRC8+axtLZB9V6S/I+WGMHRotm+97UPqv+VCaL/zePMUsVFix4n03ar+48QmZonXplgnyo9Mmmvu19H+/vJl7umd2umU5jPOrlj4fiSYIz2xKV1vHVKRVN9sl6d/G9kXUMUGIla0SkUGFGCuddel1ld4bBNBZVOFNV47xjV+/lf5rNYaaCVK2CMmL+JOVncn78p6HHk96OH1tx9H9ylhWGd/zHVUMKMaVnEfiT348SAUg4ohVkQkygk0Q4GLyQehsWayY/iCUPlryRvmgrbYRQlmsxAihLFZBf5CgUTpGCI3S6xohX9p6Tzf2iAnu/keecr9tcyC+5M23EpfzjNZEdErPHPfeb8pXebAS5FvfPzLJHrH0w2PPiDY+UGh+eAPkutswaU51G+/2vcT88L0/wuyPr22/r7uhxACBV15+OdoAyZbBGigDhKwJBjChYle/dkJrbLNnemT9OfH8y8xtLDHhoRxS9nwSKIsd0CKCamQ3ldFuIKsd8QIuYsGiF931d97XT7FN4UmxzW7L/ZAdJBWZIBhTN93zYGG5Eoyr2EBRTCCCcgDWtpbI5OHvZPB40vmXJ4OubMP7MPsE8yB7ThADkHCbPDHZyW47+e4H+q38ZJIX27wVsSp87JEn5wZ42R8NIrmX/mPD7ZJtioKcRSYIx0UQoqh2OasvY46/7mr2GDivrO4iUB3KOg5L/7nR9v22ZVVh3iIBzjHXevjbxjYp5foPt0OLXnol3XNfYk0Qru3sPvNK6FGHPPtZyjFZ+82Kcmbhdtb17IkNsmIMh/tERQY3KeXWfixhRPM7Zd8RlF9i9VasScYK57oTRs//bLGrue8Y1c0Ai70m+fsYs+XB6miMGGtbSwQYwt+Td0lZGSv/rIoRQX+M+9N/enXSeD67ujZs9v7S4tf6HIsXRk24TZ4IkFrbs98sGN/WPiytstp6iQmXNaiZcPO3xWaKcg0/M3NuurUNi064V8PjJxBj7S8r6/60/naINUG43rL7bKepcRE8qwkmWseRJwL0PL+KxoU8QyZccHl0QKhIVTOnqsA4CuMwfLfFroxFGDzhtrxnJ1412VxYsXTZu1H93rwIlmf3zQKtEL4nttwI4n7gnr3q1ruT48nCu4W+hdsfMD63XCBjvzKKAp0ES+nxVJRh9/jUnqi/iwUOReMv5tBVzjnjMEyFa++4t99+eU8yruT35TNka2S35/yWLS7gmZzdzhIBwaKgPWPL9b8dZ+Qjfs/wmYLJRL+pLLzLeSeFn23nfVB2PkIIslbJmOL3Zy6RN3YmeE6GJgvuMHDZhv+24HnGOQmPPdZgImM93I7z99qSX6d77kusCfLPa2/ZZ59ozrOL0r10FspHWscUK+ZNxFF4jlC6bJvvHOrW2XlsVBaUZYIAPeesz+eJPnGMh635A+Mtxr7MaZnfWNsff94l6afzYWyR/Y1ir99TL76qz3ZcF3nEmiB7HHJsn33m3eMhzH+tfVni98PoxGw58swLkzJl2bEYcacsVRe48ly78NpbzHkF9zoG8a7jjs6dn8csKGRxYniuqiy4DLdD9PnrduyyE4xoEwRwTrNGiFUWy+oP4o2Qd94ub24TbYRggmTLYn32w7JYuf1BMEJ8o/Q2jBBfHmuNrfd0a26zl9tq9MHussk/K52sxhB7s3zQ+h1mzV/oth1zaJJBEoqskrsffLSP8VHF/Jgxa7478dxLejM/wtJXPvsD8+Or28UZIFwf06ZMKe0DwjWU1wek2yu+mADG1tTtlvKa/AGThioTHsQklAEsgxFqMlcpW4Wq1GnkpWTto9Mqe+FVCaJXUXZFW5EJ4sUqFQYEBOBInyegQxYMA8ayFTJesU1eec78n89/3dxHHfmVSQR2q15HsaJUWhYCVNZny4QRyOSE34nJGcFsSutkP0f2Sh4xZaxYgcIKGAxUfkt+U0pbsWoy9jxxfJ2AayA2YFhVW489JP2WvjB5sD5fV5/bcrd0z32JNUHy9OzzL6V7WgkmtPXZuvrx2XaJs1gTxFJRDx/uzZgyT6GY2LCalXcEz5aq9zYp6O1CloK17zKxco9ARx2YuFj7tERQnskfQULuKYLxGCM8W2LNoiKVNZXn+WBtV0ccrw9gxy4EqCrKl2XhvMVm33gRUMDU4dpkYhxTHidUTBYbv6u1bV1xnBaxJoglxg3tGo15sOjB+s4y8S7d4XuHJ2YVQQnK8fHewxDkfrG2qat2+hkUERvkrKq87ATGBtbnY8WipCxVskFCcU1hyDLG4R0Qe2/lBSlDYsayXD/cK2TT0xSbc8P476utsVRsL4+YPmoEqaxty8T54XxzfjBSYsdRmGhFVBnPYjiy4IRALs9P5qz0SySo3MR7x2psHZv5GiuC+VXAPLX2UyTOBfM85rq8kzEnCYJb1xHvEgsWgWU/247yxvSxJoilbmUJYh7yu1nH0GnlPV94/8WYKJZ4H2H2I8YUMfcOsRbGeXlgksZmo8YqLwM21gSxVFY6G8PZ2q6urEULmLl1zhW/E2YwvwXXfuy4Yt1dvpN+s83TPfHlWWPFwoKhzog3QXjJehMEFfUHyTNCeqZPizJCjj5nkvt9y/jIqjUQ6VsWa2V/EIwQ+oNghCT9QSoaITRL/9RGOyRGyGc22dmtmhgh3+rXJ8RnhXx51N5u3R3HuOPPvaTtUlmx8DK68ua7PuwvEui4syflmh4oa3x48yPR7AXu6DMuyjU/yP7A/Fh7h9Hu1ghHlQygWAMk2wckLIPVbVgJZT3MBlKsTiiiSnp3uyLozfUXCwYhjdmtfXVSZT1QmliNaCnbNDfGBGlCrFKLJTb1PkaskmNVSZVGvVVlNc7nvcQqIuvzTSmvDEKMCdKE7n/0qfQbm6VKaY+qymsaHZteHStWslu0a4JY6egxDeyriBR7i3ZMEMp2FFHXNKwjDJmiFb2xsLqL54v1HUUiBb8ujDmqroJHsQG6KqKUVhFN31O+bGBs5mFVkdljwWTYMqI7IVY+84wogyCBtX1dfXGbPdI996UdEwSRpdYJGLd1aozUlAhId6J5dWxfvKrKy05mPN3OmGKV1rzXomo52nbE/VvWtD52QU87IkAWW94Is87aRyfEb1S0+poxWZXsFK+mA67IMombroTAQqwqcI/8+3pxGeV1xHm0MkcwlqzP11Ve6bh2TBCMym7BcXZirFOmIpOVUknWNp1SNvMuhLJf1jbtyCpLDe2YICxOLaLp+XzeIk0WCFqf75SKMhYxm6xt2lGnFmp0kxFvgkCMERL2B2nHCLnhrvvdn7H6JDQ9LPUzQiiLldMo3Rsha27WlhFilcfyWSGYIV/Zdh+372EnJH0yfv1WebmgdmBAdeAxp7sd9x/vNt/rB26n/Q93z0yfU834SM0PdObFV/cpe4X5EZa+4m/bdI8DC0tAeJoyQLjuus1gNEHyUmhDqpSzqisCCAtfLO4rYkF6aJ16ou2orGb7cDJBNm3d/1XuFVbYWfupK5qtd9sEASYtnTQkvvVDe8VwN0wQVqB1Cpkg+RquJgg0/RtYIrhBqcGmYMW/9T1FKiuFWEaVviedVJkJUqW/U4x8k9xumyAQ2x+oHRHoeqCkr4hnpJsgQImYgQh4VdEqrfleTCmmKnTbBAH6uVnbxIhzYIGR1a0FG4hxZRHdMEGYB8VCvfduGn2UIiyi3YygpjQYTRCgFyHXurW/JkQWfhaZIP2hNJ51HJ1UWaYZczVru06I6gF5DBcTBKhkYG1bR1RXsRbPUrqRrH5rm06oKEtQJoiNTJCU0Agp6w+SbZRe1Qh5ZtZc9zHS7izzI1RohPT2BwkapfczQjY1jRCrWbo3QvLKY1lZIZgha6VmCObBD4470/3sgUcK65M2wdLW/nn4vvPOMvfGkjfdy4tfd4teeMU9u/BFN+/Z593s1AyxzA806Zpb+pgfPvPDmx9ol+8flTTSLKOsBFZRH5DB0Ah9sJkg1P2OgbJhDF6tfTQhBp9PzYhvOJeFuqXtruTxZaOsf8uKQFYR3TJBSL+2PteUWD0Wc1+G8Kz4G6N2cV1RW3cgTBCgfnedFXQxYuBmrW6sWlqoqsicaqLEYh4yQfI1nE0Q3qlNl3cIRWmQKk1kY7jspp+Z35UnsjgYP7QD71JKN1n7ryMCPr72eBWVmSD8nqT4W9vWkS9XNRAmCNQpeRIrVoiXZYeGyAT5kHaeSXVFPXZMsdigOQtNmmQgTBCCQZ/YYFtzuzIxNs+D8VGdzLY6Kis3Qq8Ga7umRAZiXr+tPMga6dT4MSvKsBbBe4fyxNa2dcQYv85vP1hNECA7ulNmGuV1sn17ZILYdPJdbamsxB2Zx8w9rG07obxyq8PJBKFfsbVtXeWVgyR+0fQcK09FZfhkgtjIBAmw+oPEGiE0xa5ihLD6fS1qE1vmhxcmCCuVMELoD5JtlI4RkjRKjzRC1tk6aeKLGfKJ9bdz/7Hh9n36hGTLY1m9QrJmCNqgNTg8/NSJrZtsSlK/cyBgwvzBB79N3Fge4EuXvpsELl9sTaJ+9eS0ZFVhoiemJivAaBD06JQZyeqLxa8tcb+LMCXyDJDYRui+D8hAGSAw2EwQmlrFwrmj3nydEiJFomkqjV7bhfqdvHwxM6zvyROrEZlAEDCIrdle1rekWyZI070QQjHJKWvwmgflcar+DnmiXvNAmSCAwdap1STW6j0aklqfbUKs3GxyJb2FTJB8DWcTBHhHHHvuTxu7971YMGKdu3bhfVwleFZlJXARjD/5m6zvqCL2wbuzSmNlrzITBCjBmtesuKooaUMQcaBMECD4XbXHR5l41zOhr4JMkJWw8rdbGSFc834BAH0tYr7X6hnWDgNhggAmnbVdmVYpMEGAPledDjJh4JQtkqJMobVtE2KxWNXFQB6eoXUNqFjxHojJWCK7mb/F2kcV8XszLqa/h/XvRRrMJgg8/PS0ZLxj7bddZQPOMkHyoSxUtwzEmN4KxNY6+YxBjEVpzp3HcDJBoMlxUFGmILEh4gjWdk2JceDdDz2WfmN/ZILYyATJ0E0jhIfaHoceZxsgXt4IScpipUbIZ1uTKG+E0Ci9nxFil8YyjRCjPFaYFdLbKyQtkVVkhtBTY6Nv7+8OOelcd+NdD7hXX1+S/qVDn6YMEK6vgYQggPUwGyhdOvmO9MjiwcRqarX63j86oZH67iE0kqUJOOZKnmHDC4uaxjQwDFfFx65OoNZkER9dc1Nzu3aVXe2FoUcJDgYsTdbvJajCJKcdeAY1cUykInfSPMR0KIPAPgZgk8EaGmAyOcnCb0r9fBouNmk4MkF6/uXF6bd0Dp6x1vc3obzGj5TasT5fV6wWtiCIYH0+Vj3znk33tJJPb7KT+dm6GnfSOeme+3LelZPNz8eIMUsVCCQ01eSS53TdRuQx7HTgEeb3WmqyNA7lUjbf9yDze8rEc4Hf2a9MZlGJ9bki8XfHgMnSxGpv7il+x06VcMSojmH+ohfc57fa3dxHVRHQXlxjnL3fj08x91dXa2yzZ7rnvvDbWZ+PVUx/kyZgQVQna/Izv7J6YF15y125DWvJ1Cwre1qHpgO+XmWl2Hgv17n3PvLf66d7yIdFKjSn5ZxZ+6gr5hknnn9ZMv4rg/kdY84Nd93f3Fdd8YyOKRlcBHOM7x9/pvuTT33F/I66IquXBVlV5lD8LXVXtfPeOeTkc3tLz9QJrltlYJteZc8Crnbgeqtj8BTpY1/bMln0GTJqv2YbwtP034Jnn/X5GJWZoJ2EoP8+408wj6sJYebdEtGD1sPcjIUUTWfrY37wd85b+EL6TTZvvv2OuX07YjGABQsGrM/HKLbcMueTWI21jypi0VVZLIt470nnX568z6x91BXPGuafZT2r6ozRy8QCkqGOTJAM3BTeBEHZ/iBVjJBfL4mbnEy64Tb3kdU3sE0QhBHS2x+kJVYOxhghNEtfczP30S9/MzFC/rH14ORFmNcnJC8rpE+JrNAMCcpk0TPEMkRWvN83/XIo8trixcPCAAGu7wOOOS0ZqDNgGSgxeafMUDY9NxYG3Rdff2uy+tJ6OBeJdGPST5uutWzBYJYSKpgbiP+f4H7etUBKpXXMWTERKIKJiXXe2xG/GU3a8nj1jSVJGjE9PFgJZR13mXg+UeqrqXvl8ak9teruMyjEBKApP/cMYhJpnZd2xLE9MW1merTlEEDjt2/H5CI4zGp9VqeUgWmB4cZx/iXvKGN/Zfr4+qOSgTvnsFsQEGn6GbfR7gfkrrim7AT/bm1XR3nl7jiHR5xxgblNmZgYWOU0GMhyb1vbVBXXSd6KWa637Q8Yb25XpjMvuTbdSzy8Iwgi1gk4kzVAlmLdTLQqYDhax5AV5VA6wU33PBh9jorenVxH/P7W75cV92bRqrUsZATwvVVNYIJmlGA5bdLVvdf+pOtva+x692J/VQLWjAcJfvDMsI67SPxNmLEEluo+Uwn6x/5WZeJvv+RGOwDA38m7xtquTPuOP7H2+LAOLDTgGm4ywISxcurFVyX7zuPcK27otx2laxi7dAIyMpp8V/H7E7AqaoztYfxLwNnajyX2zTwhlkUvvZIE89oph7rKauslTcV5PnH91oFxGhk8LPyom/nF4gSezU1C1gzvNRbAWN8ZI4J4ZFPc98iTtcfpPLdYABY7f2M8zoK1bDYm+2FxRexYj89ZYzjOc5PvBIyzJpjSM8eNPfLk2mNvxHVEdqy1kIOxR1PjZM4fv6kF797Rh59kblcmq5dJt8HMZ9xNhrZ1jquI+4drmbl+3fc3Y1sC6u1k8zKW+soO+yb9mjCRY+B+J35k/U51RCYSi3Esnu6ZnRj21nZFyrvH8+A3oCwt81TrPBWJxayMSznWWJgHkdHNO97aZ4wYhxNnueHO+6Or7/Abs/DIOmd1RHykG4saO41MEANuCgY/XlajdJpe5xkhvkcIQXMaZMc86LiYNmxNSkwTBDVghPzDVzbvZ4Rky2OFWSG+V0iMGRJmh4SGyKPPzEj/wqEHD/xFCxe66c88U9kAGSyN0EcCBJFPvvCKZGBOoChcDcYqO5qWUw+cskNM1mOCvwMFAcTwZZcnyo8MZrjWWVXC4IJBPJMdfgeCi/5v4Lch4MCghd+GDJ+mzI8sj0yZnqyWIPCTnSD/RWvSS+YJKbQMLCnrYAWLBxMEh5jAHHXWRW7b7x6WrCjKroLkXDNoJ+hA2i+B9dkLFtZ+DvHbMBkgiEiggXst+5sSoCOVn8ErwS/uTT33xEDz5PRZiTHMKtBVN9ul33PIvyOY4BHMLltV1STcy2UrpLmv8gLNTYE5T3k87u11dh6bZDbwXOSZiamIIZw3Ye0WZFlSgpHJM2ZuuIqe35SAD8/DI8+8MAnIDPTxxsB7klJxBEY439mgKf/N/44pQMCPcyA6B0EFrnXGA3VKsfEs4bciGy323UeQ0m9PYKpOdo9YCc9UMlN4bm019uBkrEJPp/B34nlBuRsCOoxVKH9D6aimx6DM/TCNKR1CViHza4La4XiNlcQE4QhsMU7t9AItzg+BQv7uLUaPS7LWs2UZOT9/v8Ymyfic83jtHfcm5k7T4zn6umBS8/zjHezfOxh1LPjhOc6K/JEMQW/OA9cGvxfXSjbLneub35HMIeZTjGMWvqh3RZNw7bPg6ezLrkvm4MytKDVnZaBhNDIv4/mC8cj9z33N86BJmNMxbyX+QVPz7DuL7C/muCx0YWw38arJybxssM9xuw3PRN77ZMmS2Ro+Dxl/Y3jQF4q5NAsXMD7aeVdwLfE7YK5RSYMYCQZZ+NtxXXEdUUqLuQnZJhjBHKtoBpkgOXCB+uA1qmSEzJnXxwh5bsGC6Affea0H1J+3Hlj9TBDUxwhpTeKzRkjrBooyQnLKY/msEKtXyMoSWf3NEHqG5BkiJ553aeODpm5A9sa82bMTA2Rm63cMDRCaoOcZIFwbMkAGHl5OrL4bauedQVL4EswTxsJQZTD8Nnz3ULw+yuDcEsRpeiJfxlC938TIZTBds5T3YHLD89/ScFhx1Qn8c7zbz7tOM1zfT0MNriuywQiOEGjC3CALh2A1pUEJsGOWsPKb2uYYVHWvRRaMkPEWu7JTVGewjVOYGw6m4+H8cP3puTM00O81eOA34F4mQD3Qv4c/lti4o7Dh/uq24cBvNxBz+JGKTJACuBh9EBvFGiEEyUMjhCD63Fmzku1jIGV17Z3H1jdCVt/Q/ennvu5W+fxG7iNf2Nj99RqbuNyG6ZnyWNleIZYZEmaG+AbqeYbI0z1z0r8qjvd+s8L1zH3W3fPgo+7F1sT/tdeXuDffeidJ5ezWw+jdd5e5mdOnrzRAenpkgIiuQAkEy/TIinqxQgghhBBCCCGEEEKIcmSClIAbV2aEWD1C+hghPT1JMJ3A+tLWdjEQOCfl6m+/uEnzRohRHsvKCsmWyLLMECs7xBsiR515UfrXxEHKJ6upjjjtfNcze76bMau/rr7lbrf7Qce4A44+zY0/daI7aeJl7idX3OiuuPkud8vPf+keePTppKQQpR0oM/Dc8y+7dyKa2nno4+LLX3kDhBJn3gB57rnnZICIjkHJE8v0yCqmmbYQQgghhBBCCCGEEEImSBQxGSFZI4RguTdCCKJ7I4TgOo22Y4PjNLMZf/r57s+oE5xrhLRUZoTklceyskIizZC8Ullo3Z3GujffXpr+Ff15/4MP3NJ3l7tlLZH6teD5F91RZ1zgRo091E2ZPruv+TFzXqJTJl7uvrR1WnKrJbJNEJkniCyUJBulpXV3+k7SjHfF+3Gp5ZhdL7V+u7ABujdAKHHmDZAXXnhBBojohd8Z4+6td/Kv9SrQkNEyPbKiJqkQQgghhBBCCCGEEKIcmSCRlBkhBMNDI4RguTdCfMN0guq+T8iCuXPdb957L917Oa+89obb9/CT3B9hfOQZIZ9e2/3eZ9Zxv7fquu4PV8MMWd9smJ4tjxVmhfheIdnG6VkzhDJZRdkhN9/zi/TI+/Nu6+8++MRz3EEnnO0OO/k8t9GuByQGxpdH7ZOUwZreM7ePnpzS48YePuFDk8MrNTuQzz4hE+VL2+yZ1NWtkv3x7rJlbvbMmf0boKcGCJk93gCh0X1ogKgJ+sjmhjvvT0wJmmjR/IxGV3WhiStNsLKGhyWaGgohhBBCCCGEEEIIIcqRCVKBIiOEYHhohBAs90YIQfRsw/QkK2TqVPd66/NVAuazFyx0W409pLoRYpbHWpkVEvYKCUtk5ZohQQP1bHbIrgcdkx6tzYkTL096iXhhXqBzL73eTeuZ20eXXH+b++ZeP+z9jFe4vS/FdeQZF7jFry9Jv6Uczvsrrd/JZ39k+394A4TMHm+A0AMmNECWLV0mA2QEs9OBR/QzKD69yU5J4/Irb7kruqHtq28scWtuu3e/feWpynUuhBBCCCGEEEIIIcRIRiZIRfKMEILhoRFCsNwbIdk+If2yQubNcyta+6nC1Fnz3N4/OsH96WfXyTFCispj5WSFZEpkFZkhKDRDfHbIqpvu7BY8/1J6lP3pmfesW22zbyXZIl6U0TrwmNPd1BlzevX01FluwsTL0hJb/eW3XWu7fdyEC6+IDjZ7lr/7rpsza1af7A9f/sr3//AGCJk93gCh9FlogLz33nsyQEYov1mxwv3FauuZJkWo//eVzZMyV6defJWbdP1t7to77nU3//wXyf89YeKlbp2dx7o//s+1zG0tfW3H0ekRCCGEEEIIIYQQQgghypAJUgPLCCEYHhohBMsJmlt9Qnx5rDArpGfaNPfG669XDqK/+fY77pSLrnT/ut4o93ufXCu/YbpRHqs3KyToFdKvRJZlhgQ9Q7LZIadPuiY9sv789re/c9vud1iffiKf33J3t/P3jnBPTZ3Za4CccdHVbp0dxybltfK01eiD3XU/uy9ppl4Fzi+/CdkfGCBJ9kdLYfkrq/+HN0AofSYDRAC9QCyTotP66Q23p0cghBBCCCGEEEIIIYQoQyZITbJGyPvvv99rhOQ1TM8tjxVkhcyfM8ctbW1fFRp73/7Aw27jvb7vfr+wPJadFZItkZVnhvTpGbJO3+yQ9b61X7I6PuBpjgYAAApkSURBVI9LJ/+st3yWL6F12ISfuIcfn+qmTp/jnni6x407/mz31e337TVKQq36jV3cgceeUbvvAr/JnEzvjzD7wyp/xW/Hb+gNEH5bb4Dwm8sAGbnsNu4Y06TopLjX3l0e30tICCGEEEIIIYQQQoiRjkyQNsgzQqyG6dnyWEVZIQTon5s/3723fHn6TdWgNNTZV9zgNtjjQPfHq65jlscKs0J6e4VkS2RlzZC1Nu/bQD3IDiELZNqc+ekR9IceBvTv8OWz0Ho7f8c9+Ksn3TPTZrv7fvm423TP7ycmSShKZ405YoK7/s77k8bRdVi2dKmbN2eO3fsjk/2RLX/l+394A4TfVgaIWLHi/egm5k3p91v65RPPpEcghBBCCCGEEEIIIYSIQSZIm1hGiO8TEjZMz5bHsrJCCMj7rBAC9WQsEJRfUZBdUQblsq687R637YFHuFW+uLGZFdKvRFaeGRL0DMlmh5x/zc3pN9pgZITls8aMP8k9/Ngz7qFHnnYHn3jOSoOkpS9utYcbd9I57p6HHq9c7ioEs+K5BQv6mh+pAcK5Dnt/5JW/Cvt/+Abo3gAh+0YGyMjkhVdeTUwJy6zolE6+8Ir024UQQgghhBBCCCGEELHIBGkAAuEExEMzJNsnJFseKzcrxCiRNWPq1OTzH3zwQfqN9Vjx/vvuzocec4effbHbZMzB7m/X3mplrxBfIivXDAnKZGWyQ3b+wVGFZsC9Dz/RWzoLnfXTa9yUabPctbfe7b6w1e5Jc/N9x5/kzrn8BvfoMz2t8/e7dMt6YFK80Dqv2b4fvdkfaemrouwPq/xV2P+D31uMbG686wH38fVHmYZFk/qjT67lLp18R/qtQgghhBBCCCGEEEKIKsgEaRArK8Qqj1WUFdKvRFZohkyb5l58/vnaZbIsFr282N3w81+4Q864wG24zw/dR9fd2jRDwp4hYXbIZzb7lnv912+le+vPW+8sc18atVdSOuuzm+7iTr/4ajf/2UXuF49Pcfc+/KR79Y1fp59sn2XLlrpFrfOI8ZHt+5EtfRX2/sjL/lD5K1EG18P1d97nRu13mPur1j1jmRjtaIvR49yMuQvSbxNCCCGEEEIIIYQQQlRFJkjDWEaIL49VlBVCIN5nhXgzxJfIypohBPgXzJvn3mrtpxMB+fd+s8I999Ir7pFnZrgb7/mFO+eqyW78WRe5vQ8/yW2x36Hum6PHuU32+aH7+h4HursfejzdyubpnjnuqZboCdKJ7An2ueSNN9zcWbPyMz8KSl9Z2R955a+QDBCRB9fHY8/0uFMuutJtOWac+6evbuH+4BNrmuZGkT759e3dD044yz0xbWa6ZyGEEEIIIYQQQgghRF1kgnSIovJYeVkh2RJZBOzDfiGhGUKgH0Nkduu/X1282H3w/vvpN48M6JPC+eqZNq036yPG/AhLX3HOvflhZX9ky1/JABFVoYH6vIUvuLsfesxNvGqyO+Tkc93+R5+W9MjZ+0cnuLFHnuwOPeUn7oJrbk564Cx66ZV0SyGEEEIIIYQQQgghRBPIBOkgsVkhBOAJxmdLZFUxQ+gbQhNwsiLa7R0yWMH4eL11nsiC8VkfVcwPzqk3P3z2B+de2R9CCCGEEEIIIYQQQggxPJEJ0mEIoOdlhRBwJ/MgWyKryAwhsF9miGAOzJ87173W2g/fNZRZvnx5ci7CcldFxkfY8yM0PziXofkRlr7K6/2h7A8hhBBCCCGEEEIIIYQY2sgE6RJZIySbFeLNEF8iy5shZC7UMUNCQ2TOrFnulZdfdktb38F3D2bIYnn77bfcS62/l1JfpvGB2jA/wtJXnHtf+krZH0IIIYQQQgghhBBCCDG8kAnSRaysEALvPivE6hcSZoZYPUO8GZJniHhTBBOh1xSZOdM9v3BhkimybOnS5JgGAv5+/l56mixs/S0cc2h6tGN8ZMteWeaHVfpK2R9CCCGEEEIIIYQQQggxfJAJMgAQZPdBd6+wRFaMGVKaHZI1RFJTJMwS8aaIzxbBGGHf9N14q/Xdy5YtTfpw1DUFMBT4u5YuXerebP0dmC4vt44bw2P2zJm9hkeZ6ZE1PpowP7Klr5DMDyGEEEIIIYQQQgghhBheyAQZQJo0Q2IyRCxTxDJGQnPEq2fatKQvB71GaEz+7Pz5SSN2L/6b/51/x1Dh86HJ4RV+h//e0PTwxoc/3jDjI8/4yDM/wp4fofnBOQ7PucwPIYQQQgghhBBCCCGEGJ7IBBlgCMDn9QvJmiEE9GOzQ0JDpMwU6WOMBOZIaJCECo0MS9Y24T7D7/LfnzU9vPHhjz80Prz5kZf1EWt+qPSVEEIIIYQQQgghhBBCDG9kggwSmjBDyjJECk0RL29GBAaJV2hexCi7fbhv/32h4ZE1PULjIy/jQ+aHEEIIIYQQQgghhBBCiDxkggwyLDMEVTFEvCniDRHLFMkzRkJzxKuPSVJD4b78d+QZHt708MaHP/46xke254fMDyGEEEIIIYQQQgghhBhZyAQZpNQxQ7KGSJglgomQNUWKjJHQHAkVmhhFym4X7hdZhodlenjjw/89WeND5ocQQgghhBBCCCGEEEKIPGSCDHLyzBCUZ4h4U8QbIlaWSJExEpojXt60qKrsfsLvCA2PrOnhjQ9//FWNDyTjQwghhBBCCCGEEEIIIUY2MkGGEGXZIVlDJC9LxJsiljESmiOhQWIpNDRCUyOrcH8o/K7Q8LBMD298+L8na3wo60MIIYQQQgghhBBCCCFEHjJBhiBl2SHeFPGGSJEpEhojoTkSGiShQgOjSNa24b5Ds8OryPQoMj6QzA8hhBBCCCGEEEIIIYQQWWSCDHGKDBHkDRFvinhjJDRFvLwJERokKDRJqircDwq/w39vaHhkTQ9vfGT/Lm96yPgQQgghhBBCCCGEEEIIkYdMkGGEN0TKTJE8YyQ0R7xCkyRUaGaEsj6Lwn3678ozPCzTA8n4EEIIIYQQQgghhBBCCFEFmSDDGG+KWIZCqKwxEpojoULzIkbZ7cP9++/MMzyQN3RkegghhBBCCCGEEEIIIYSog0yQEYTPoogxRkKFhkUdWfvMKjQ8ZHoIIYQQQgghhBBCCCGEaAKZICOc0BjxskyKphR+jwwPIYQQQgghhBBCCCGEEJ1EJogoxBsVoUIjI5T1WSSEEEIIIYQQQgghhBBCDAQyQYQQQgghhBBCCCGEEEIIMSyRCSKEEEIIIYQQQgghhBBCiGGJTBAhhBBCCCGEEEIIIYQQQgxLZIIIIYQQQgghhBBCCCGEEGJYIhNECCGEEEIIIYQQQgghhBDDEpkgQgghhBBCCCGEEEIIIYQYlsgEEUIIIYQQQgghhBBCCCHEsEQmiBBCCCGEEEIIIYQQQgghhiUyQYQQQgghhBBCCCGEEEIIMSyRCSKEEEIIIYQQQgghhBBCiGGJTBAhhBBCCCGEEEIIIYQQQgxLZIIIIYQQQgghhBBCCCGEEGJYIhNECCGEEEIIIYQQQgghhBDDEpkgQgghhBBCCCGEEEIIIYQYlsgEEUIIIYQQQgghhBBCCCHEMMS5/w97/YoDVO/rnQAAAABJRU5ErkJggg==;" vertex="1" parent="1">
          <mxGeometry x="425.59" y="110" width="340.68" height="50" as="geometry" />
        </mxCell>
        <mxCell id="i7WmX-7RhP07Q_WVPCmK-1004" value="Server" style="strokeColor=#dddddd;shadow=1;strokeWidth=1;rounded=1;absoluteArcSize=1;arcSize=2;labelPosition=center;verticalLabelPosition=middle;align=center;verticalAlign=bottom;spacingLeft=0;fontColor=#999999;fontSize=12;whiteSpace=wrap;spacingBottom=2;" vertex="1" parent="1">
          <mxGeometry x="313" y="223" width="70" height="120" as="geometry" />
        </mxCell>
        <mxCell id="i7WmX-7RhP07Q_WVPCmK-1005" value="" style="dashed=0;connectable=0;html=1;fillColor=#757575;strokeColor=none;shape=mxgraph.gcp2.storage;part=1;" vertex="1" parent="i7WmX-7RhP07Q_WVPCmK-1004">
          <mxGeometry x="0.5" width="50" height="40" relative="1" as="geometry">
            <mxPoint x="-25" y="15" as="offset" />
          </mxGeometry>
        </mxCell>
        <mxCell id="i7WmX-7RhP07Q_WVPCmK-1006" value="" style="dashed=0;connectable=0;html=1;fillColor=#757575;strokeColor=none;shape=mxgraph.gcp2.storage;part=1;" vertex="1" parent="i7WmX-7RhP07Q_WVPCmK-1004">
          <mxGeometry x="10" y="60" width="50" height="40" as="geometry" />
        </mxCell>
        <mxCell id="i7WmX-7RhP07Q_WVPCmK-1007" value="Envío de archivos MiBus" style="text;html=1;resizable=0;autosize=1;align=center;verticalAlign=middle;points=[];fillColor=none;strokeColor=none;rounded=0;" vertex="1" parent="1">
          <mxGeometry x="415" y="230" width="150" height="20" as="geometry" />
        </mxCell>
        <mxCell id="i7WmX-7RhP07Q_WVPCmK-1016" style="edgeStyle=orthogonalEdgeStyle;rounded=0;orthogonalLoop=1;jettySize=auto;html=1;exitX=0.5;exitY=1;exitDx=0;exitDy=0;" edge="1" parent="1" source="i7WmX-7RhP07Q_WVPCmK-1011" target="i7WmX-7RhP07Q_WVPCmK-1013">
          <mxGeometry relative="1" as="geometry" />
        </mxCell>
        <mxCell id="i7WmX-7RhP07Q_WVPCmK-1020" style="edgeStyle=orthogonalEdgeStyle;rounded=0;orthogonalLoop=1;jettySize=auto;html=1;exitX=0.5;exitY=1;exitDx=0;exitDy=0;entryX=0.5;entryY=0;entryDx=0;entryDy=0;fontColor=#0000FF;fillColor=#0050ef;strokeColor=#001DBC;strokeWidth=2;" edge="1" parent="1" source="i7WmX-7RhP07Q_WVPCmK-1011" target="i7WmX-7RhP07Q_WVPCmK-1013">
          <mxGeometry relative="1" as="geometry" />
        </mxCell>
        <mxCell id="i7WmX-7RhP07Q_WVPCmK-1011" value="" style="strokeColor=#dddddd;shadow=1;strokeWidth=1;rounded=1;absoluteArcSize=1;arcSize=2;" vertex="1" parent="1">
          <mxGeometry x="600" y="160" width="200" height="60" as="geometry" />
        </mxCell>
        <mxCell id="i7WmX-7RhP07Q_WVPCmK-1012" value="&lt;span style=&quot;color: rgb(0 , 0 , 0)&quot;&gt;Recepción y Verificación&lt;/span&gt;&lt;br style=&quot;color: rgb(0 , 0 , 0)&quot;&gt;&lt;span style=&quot;color: rgb(0 , 0 , 0)&quot;&gt;de archivos SFTP de GTP&lt;/span&gt;" style="dashed=0;connectable=0;html=1;fillColor=#5184F3;strokeColor=none;shape=mxgraph.gcp2.hexIcon;prIcon=bigquery;part=1;labelPosition=right;verticalLabelPosition=middle;align=left;verticalAlign=middle;spacingLeft=5;fontColor=#999999;fontSize=12;" vertex="1" parent="i7WmX-7RhP07Q_WVPCmK-1011">
          <mxGeometry y="0.5" width="44" height="39" relative="1" as="geometry">
            <mxPoint x="5" y="-19.5" as="offset" />
          </mxGeometry>
        </mxCell>
        <mxCell id="i7WmX-7RhP07Q_WVPCmK-1022" style="edgeStyle=orthogonalEdgeStyle;rounded=0;orthogonalLoop=1;jettySize=auto;html=1;exitX=0;exitY=0.5;exitDx=0;exitDy=0;fontColor=#0000FF;fillColor=#0050ef;strokeColor=#001DBC;strokeWidth=2;" edge="1" parent="1" source="i7WmX-7RhP07Q_WVPCmK-1013">
          <mxGeometry relative="1" as="geometry">
            <mxPoint x="390" y="320" as="targetPoint" />
            <Array as="points">
              <mxPoint x="390" y="320" />
            </Array>
          </mxGeometry>
        </mxCell>
        <mxCell id="i7WmX-7RhP07Q_WVPCmK-1013" value="" style="strokeColor=#dddddd;shadow=1;strokeWidth=1;rounded=1;absoluteArcSize=1;arcSize=2;fontSize=14;" vertex="1" parent="1">
          <mxGeometry x="600" y="270" width="200" height="100" as="geometry" />
        </mxCell>
        <mxCell id="i7WmX-7RhP07Q_WVPCmK-1014" value="&lt;font color=&quot;#000000&quot; style=&quot;font-size: 14px;&quot;&gt;Algoritmo de &lt;br style=&quot;font-size: 14px;&quot;&gt;Procesado GTP&lt;/font&gt;&lt;br style=&quot;font-size: 14px;&quot;&gt;" style="dashed=0;connectable=0;html=1;fillColor=#5184F3;strokeColor=none;shape=mxgraph.gcp2.hexIcon;prIcon=cloud_composer;part=1;labelPosition=right;verticalLabelPosition=middle;align=left;verticalAlign=middle;spacingLeft=5;fontColor=#999999;fontSize=14;" vertex="1" parent="i7WmX-7RhP07Q_WVPCmK-1013">
          <mxGeometry y="0.5" width="44" height="39" relative="1" as="geometry">
            <mxPoint x="5" y="-19.5" as="offset" />
          </mxGeometry>
        </mxCell>
        <mxCell id="i7WmX-7RhP07Q_WVPCmK-1023" value="Envío de archivos de salida" style="text;html=1;resizable=0;autosize=1;align=center;verticalAlign=middle;points=[];fillColor=none;strokeColor=none;rounded=0;" vertex="1" parent="1">
          <mxGeometry x="415" y="294.78" width="160" height="20" as="geometry" />
        </mxCell>
      </root>
    </mxGraphModel>
  </diagram>
</mxfile>
